<svg width="120" height="35" fill="none" xmlns="http://www.w3.org/2000/svg"><g fill-rule="evenodd" clip-rule="evenodd"><path d="M87.468 25v-6.24L91.956 25h4.248l-4.992-6.48 4.68-6.48H91.86l-4.392 6.24V7.72h-3.312L84.132 25h3.336zm-13.704.36c1.12 0 2.046-.194 2.778-.582.57-.302 1.108-.75 1.617-1.345l.021-.025V25h2.856v-7.92c0-.592-.024-1.128-.072-1.608-.048-.48-.2-.96-.456-1.44-.456-.864-1.128-1.472-2.016-1.824-.888-.352-1.904-.528-3.048-.528-1.56 0-2.792.336-3.696 1.008a5.008 5.008 0 00-1.848 2.616l2.952.936c.208-.592.572-1.004 1.092-1.236.52-.232 1.02-.348 1.5-.348.864 0 1.48.18 1.848.54.258.252.425.604.502 1.056l.023.169-.52.078-.535.079-.514.076a41.67 41.67 0 00-2.256.39c-.664.136-1.236.292-1.716.468-.696.256-1.25.574-1.662.954-.412.38-.71.818-.894 1.314a4.695 4.695 0 00-.276 1.644c0 .72.166 1.378.498 1.974.332.596.82 1.072 1.464 1.428.644.356 1.43.534 2.358.534zM51.444 25v-7.848c0-.744.206-1.35.618-1.818.412-.468.958-.702 1.638-.702.712 0 1.27.238 1.674.714.404.476.606 1.142.606 1.998V25h3.264v-7.848c0-.496.094-.934.282-1.314.188-.38.45-.676.786-.888.336-.212.732-.318 1.188-.318.712 0 1.27.238 1.674.714.404.476.606 1.142.606 1.998V25h3.264v-8.52c0-1.416-.378-2.562-1.134-3.438-.756-.876-1.874-1.314-3.354-1.314-.864 0-1.65.19-2.358.57a4.394 4.394 0 00-1.6 1.448l-.055-.1a3.838 3.838 0 00-1.002-1.12l-.211-.15c-.652-.432-1.486-.648-2.502-.648-.888 0-1.69.196-2.406.588-.477.261-.89.585-1.237.97l-.149.175V12.04h-2.88V25h3.288zm22.044-2.376c.272.112.596.168.972.168.6 0 1.106-.106 1.518-.318.412-.212.74-.454.984-.726.244-.272.41-.5.498-.684.168-.352.266-.762.294-1.23l.015-.271c.01-.175.016-.337.02-.487v-.01l-.044.007c-.52.088-.966.165-1.341.233-.6.108-1.084.206-1.452.294a8.47 8.47 0 00-.972.288c-.32.128-.578.266-.774.414-.196.148-.34.31-.432.486a1.25 1.25 0 00-.138.588c0 .296.074.55.222.762.148.212.358.374.63.486zm35.328-7.284c.456 1.16.616 2.524.48 4.092h-9.099l.017.125c.112.72.349 1.308.712 1.765.524.66 1.294.99 2.31.99.64 0 1.188-.14 1.644-.42.456-.28.804-.684 1.044-1.212l3.264.936c-.488 1.184-1.258 2.104-2.31 2.76a6.395 6.395 0 01-3.45.984c-1.328 0-2.498-.286-3.51-.858a6.189 6.189 0 01-2.376-2.364c-.572-1.004-.858-2.154-.858-3.45 0-1.416.28-2.648.84-3.696.56-1.048 1.332-1.862 2.316-2.442.984-.58 2.116-.87 3.396-.87 1.36 0 2.516.32 3.468.96.952.64 1.656 1.54 2.112 2.7zm-2.823 1.668h-5.709l.023-.11a3.69 3.69 0 01.503-1.21l.116-.162c.524-.676 1.342-1.014 2.454-1.014.952 0 1.638.29 2.058.87.258.357.437.854.537 1.491l.018.135zm9.291 1.368V25h-3.288V12.04h2.88v2.088l.051-.091a4.63 4.63 0 01.309-.461c.28-.368.624-.672 1.032-.912a4.184 4.184 0 011.02-.45 5.403 5.403 0 011.14-.204 6.086 6.086 0 011.176.03v3.048c-.36-.112-.778-.15-1.254-.114a3.584 3.584 0 00-1.29.33c-.384.176-.708.41-.972.702a2.945 2.945 0 00-.6 1.032 4.104 4.104 0 00-.204 1.338z" fill="#fff"/><path d="M31.948 17.306a16.217 16.217 0 00-.149-3.85A12.95 12.95 0 0135 21.97 13 13 0 0122.01 35a12.95 12.95 0 01-8.553-3.201 16.113 16.113 0 003.848.149 11 11 0 0014.643-14.642zm0 0A11.011 11.011 0 0022.01 11a11 11 0 00-4.705 20.948c7.795-.63 14.013-6.847 14.643-14.642zM13.457 31.799C5.829 30.581 0 23.971 0 16 0 7.163 7.163 0 16 0c7.971 0 14.58 5.829 15.799 13.457A12.97 12.97 0 0021.977 9C14.8 9.013 8.99 14.84 9 22.017a12.97 12.97 0 004.457 9.782z" fill="#3EE9E5"/></g></svg>