<svg width="46" height="46" fill="none" xmlns="http://www.w3.org/2000/svg"><g fill-rule="evenodd" clip-rule="evenodd" fill="#3EE9E5"><path d="M18.232 28.703h26.2c.657 0 1.19-.536 1.19-1.196V1.196c0-.66-.532-1.196-1.19-1.196h-26.2c-.658 0-1.191.535-1.191 1.196v26.31c0 .661.533 1.197 1.19 1.197zM43.24 26.31H19.423V2.39H43.24v23.92z"/><path d="M0 29.77c.011 8.669 7.016 15.689 15.649 15.682a15.603 15.603 0 0011.061-4.616 15.737 15.737 0 004.563-11.122c-.02-8.67-7.031-15.682-15.664-15.667C6.976 14.062-.011 21.1 0 29.77zm3.39-5.1a13.254 13.254 0 0112.258-8.22c7.295.014 13.21 5.939 13.243 13.264a13.311 13.311 0 01-8.152 12.333 13.214 13.214 0 01-14.462-2.86A13.352 13.352 0 013.39 24.67z"/></g></svg>