<svg width="80" height="94" fill="none" xmlns="http://www.w3.org/2000/svg"><path d="M60.285 92.87l-14.873-9.765v-28.28c0-.99-.798-1.794-1.782-1.794s-1.782.803-1.782 1.794V83.13l-14.872 9.766 33.309-.024z" fill="#3EE9E5"/><path fill-rule="evenodd" clip-rule="evenodd" d="M26.951 93.481H60.28a.607.607 0 00.58-.438.613.613 0 00-.253-.685L45.994 82.8V54.825a2.396 2.396 0 00-2.388-2.405 2.396 2.396 0 00-2.388 2.405V82.8l-14.594 9.56a.613.613 0 00.328 1.122zm31.291-1.22H29.024l13.158-8.62a.612.612 0 00.273-.512V54.825a1.18 1.18 0 011.175-1.184c.65 0 1.176.53 1.176 1.184v28.286c0 .206.102.399.273.512l13.163 8.637z" fill="#093F68"/><ellipse cx="11.667" cy="19.044" rx="11.024" ry="11.103" fill="#080C20"/><path fill-rule="evenodd" clip-rule="evenodd" d="M.922 23.527c1.8 4.377 6.04 7.23 10.745 7.23 6.42-.006 11.623-5.247 11.63-11.713 0-4.738-2.834-9.009-7.18-10.822a11.57 11.57 0 00-12.674 2.54A11.774 11.774 0 00.922 23.527zm1.119-8.49c1.612-3.922 5.411-6.48 9.626-6.48v-.012c5.753.007 10.414 4.705 10.418 10.5.002 4.244-2.535 8.071-6.427 9.697a10.364 10.364 0 01-11.356-2.27 10.55 10.55 0 01-2.261-11.436z" fill="#093F68"/><path d="M43.63 58.121L7.903 16.285h71.455L43.63 58.121z" fill="#080C20"/><path fill-rule="evenodd" clip-rule="evenodd" d="M43.176 58.518a.604.604 0 00.46.214.605.605 0 00.455-.214l35.727-41.836a.614.614 0 00.091-.653.606.606 0 00-.551-.354H7.909a.606.606 0 00-.551.354.614.614 0 00.09.653l35.728 41.836zm.454-1.337L9.224 16.896h68.812L43.63 57.18z" fill="#093F68"/><path d="M16.503 26.35L43.63 58.121l27.128-31.77H16.503z" fill="#3EE9E5"/><path fill-rule="evenodd" clip-rule="evenodd" d="M43.176 58.518a.604.604 0 00.921 0l27.127-31.77a.614.614 0 00.091-.654.606.606 0 00-.551-.354H16.509a.606.606 0 00-.551.354.614.614 0 00.09.653l27.128 31.771zm.46-1.337L17.83 26.991l51.618-.03-25.812 30.22z" fill="#093F68"/><path d="M44.648 53.525a.61.61 0 01-.51-.94L76.807.305a.606.606 0 01.84-.192c.284.18.37.559.19.845l-32.672 52.28a.605.605 0 01-.516.287z" fill="#093F68"/><ellipse cx="73.085" cy="7.947" rx="6.273" ry="6.318" fill="#080C20"/><path fill-rule="evenodd" clip-rule="evenodd" d="M66.194 7.947c.003 3.83 3.088 6.932 6.89 6.928 3.802-.007 6.88-3.112 6.88-6.94-.004-3.83-3.089-6.931-6.891-6.928-3.803.004-6.882 3.11-6.88 6.94zm1.644-2.188a5.672 5.672 0 015.247-3.525c3.124.007 5.657 2.554 5.666 5.701a5.714 5.714 0 01-3.494 5.288c-2.12.887-4.563.4-6.187-1.234a5.743 5.743 0 01-1.231-6.23z" fill="#093F68"/><path d="M69.624 7.605a.602.602 0 01-.182 0 .611.611 0 01-.4-.763c.862-2.607 3.62-4.056 6.237-3.277A.627.627 0 0175 4.785C71.297 3.9 70.242 7.1 70.2 7.227a.606.606 0 01-.576.378z" fill="#093F68"/><path fill-rule="evenodd" clip-rule="evenodd" d="M40.418 35.122a.645.645 0 00.449.024.607.607 0 00.345-.311l5.006-10.541a.612.612 0 00-.285-.812l-10.46-5.054a.604.604 0 00-.806.287L29.648 29.25a.614.614 0 000 .47.575.575 0 00.31.342l10.46 5.06zm-.024-1.367l-9.37-4.53 4.497-9.436 9.37 4.529-4.497 9.436zM38.4 48.117a.606.606 0 00.564.385.602.602 0 00.248-.043l8.049-3.205a.612.612 0 00.345-.787l-3.182-8.112a.609.609 0 00-.788-.342l-8.072 3.198a.608.608 0 00-.34.794l3.176 8.112zm.903-1.02l-2.733-6.97 6.927-2.753 2.733 6.97-6.927 2.754z" fill="#093F68"/></svg>