<svg width="1440" height="228" fill="none" xmlns="http://www.w3.org/2000/svg"><path opacity=".25" d="M545.559.005c.491-.01.9-.006 1.238.02.326.024.6.063.919.16.49.15.925.37 1.378.855a3.026 3.026 0 01.252 3.82c-1.255 1.766-3.609 3.182-6.938 4.374l-.765.266-1.026.351-1.188.403-1.87.628-2.684.885-3.606 1.163-4.063 1.284-7.376 2.291-14.669 4.52-4.678 1.463-4.054 1.288-3.265 1.06-2.735.907c-1.264.424-2.499.846-3.751 1.279l-2.616.912-3.126 1.097-5.738 2.033-5.218 1.87-4.238 1.537-6.592 2.416-5.229 1.936-10.161 3.8-13.231 4.998-32.039 12.17-16.02 6.11-10.014 3.838-11.065 4.26-7.523 2.912-8.643 3.364-8.256 3.235-3.994 1.574-5.195 2.057-6.3 2.51-2.464.988-4.839 1.948-4.729 1.916-4.629 1.89-4.54 1.866-4.461 1.847-4.392 1.833-5.409 2.277-4.275 1.816-4.239 1.815-4.215 1.819-3.425 1.488-3.991 1.747-4.668 2.059-2.927 1.302-2.895 1.297-2.864 1.292-2.833 1.287-2.803 1.282-1.39.64-2.756 1.275-2.726 1.271c-.452.211-.902.423-1.351.634l-2.68 1.264-2.649 1.259-2.619 1.256-2.588 1.251-2.558 1.247-2.527 1.242-2.497 1.239-2.466 1.234-2.436 1.231a449.4 449.4 0 00-1.207.614l-2.391 1.225-2.361 1.221-2.33 1.217-1.154.607-2.286 1.212-2.255 1.208-2.225 1.204-2.196 1.202-2.166 1.198-1.071.597-2.121 1.193-2.091 1.19-2.062 1.186a484.36 484.36 0 00-3.036 1.774l-1.988 1.179-.982.589-1.943 1.174c-.321.196-.642.391-.96.587l-1.899 1.17c-1.57.974-3.109 1.945-4.618 2.914l-1.796 1.161-.887.58-1.752 1.157a291.69 291.69 0 00-5.081 3.459l-1.635 1.148c-.271.191-.539.382-.807.573l-1.592 1.145a233.886 233.886 0 00-5.344 3.992c-7.646 5.891-11.783 12.337-13.35 19.737-.883 4.166-.989 8.213-.435 13.565l.116 1.053c.02.178.042.358.064.539l.14 1.106.155 1.145.172 1.184.092.609.195 1.25c.214 1.346 1.199 2.73 3.309 4.193l.65.447.413.277.402.261.391.246.385.231.19.11.38.209c.063.034.127.067.19.099l.381.188.386.174c1.166.503 2.431.828 4.14 1.021l.586.059.622.05.66.041.702.033.367.013.769.02.817.013.869.006 1.059-.003.849-.007 1.831-.028 2.024-.044 5.802-.163 6.362-.21 4.457-.174 3.014-.137 1.867-.095 2.188-.125 2.433-.16 2.246-.172 1.407-.123 1.67-.163 1.275-.139 1.23-.147 1.191-.156.874-.123 1.143-.172.847-.137 1.106-.188.559-.101 1.363-.27 2.782-.585 10.054-2.197 11.415-2.501 2.926-.621 10.886-2.275 7.059-1.492 7.578-1.623 5.387-1.17 6.852-1.512 5.743-1.291 4.778-1.093 4.679-1.088 9.178-2.159 6.051-1.431 16.435-3.918 15.054-3.627 17.195-4.179 29.436-7.21 38.377-9.453 70.597-17.509 133.743-33.286 52.141-12.904 25.085-6.17 19.784-4.846 2.059-.498 3.423-.822 7.473-1.762 8.613-1.983 6.789-1.536 11.755-2.625 121.914-26.966 27.96-6.136 18.929-4.12 16.562-3.573 14.936-3.193 10.164-2.156 12.489-2.632 2.544-.534a811.58 811.58 0 015.926-1.221l2.538-.51 2.442-.482 2.248-.437 2.259-.433 3.804-.713 3.85-.706 4.73-.84 3.23-.56 3.29-.558 4.21-.701 4.35-.706 3.59-.571 3.69-.577 4.76-.733 3.95-.596 5.12-.761 6.42-.94 5.61-.808 8.28-1.176 11.43-1.596 18.73-2.588 11.85-1.7 5.33-.74 3.68-.487 1.97-.25 2.35-.287 1.38-.161 2.25-.252 2.24-.235 2.72-.266 2.4-.22 1.53-.13 1.93-.153 1.37-.098 1.3-.083.83-.047.81-.04 1.15-.047.74-.023.71-.015.68-.007h.66l.63.006.61.016.29.01.57.027.28.016.53.038.26.023.5.05.48.06.46.067c.3.048.58.101.85.16l.4.094c.12.032.25.066.37.102l.36.11.33.12.32.13.15.068.29.143c1.41.738 2.17 1.828 2.52 3.33l.07.307.03.157.05.323.09.718.02.078.03.151.07.272.37 1.225.02.094c.66 2.399.5 4.399-1.17 6.314-4.33 5.002-8.48 8.438-14.83 11.66l-.89.443-.86.418-.57.275-1.16.545-1.18.541-.91.407-.93.41-.96.415-1.34.565-1.04.435-1.86.753-2 .797-2.18.85-3.89 1.496-5.11 1.926-7.82 2.944-3.81 1.46-2.28.892-1.5.599-1.13.46-.55.227c-.73.301-1.46.603-2.19.916l-5.25 2.23-5.27 2.258-3.98 1.716-5.36 2.322-5.42 2.367-5.5 2.42-5.6 2.477-4.28 1.902-5.81 2.597-7.47 3.355-6.51 2.94-1.11.488-1.16.502-1.23.52-1.75.722-1.42.57-2.02.802-3.49 1.357-14.39 5.486-2.07.801-2.63 1.033-1.89.749-1.8.729-2.297.943-1.637.687-1.053.449-1.024.442-.994.436-.966.43-.939.425-1.356.627-1.298.617-.834.405-.809.403-.785.399-.763.395-.74.394-.718.391-.351.195-.687.388-.667.388-.675.403-.671.415-.639.409-.604.402-.289.198-.554.391c-.268.194-.524.384-.767.572l-.469.371a17.47 17.47 0 00-.436.362l-.403.353c-1.544 1.393-2.288 2.557-2.254 3.382.025.597.484 1.294 1.434 2.053l.3.23c.157.116.326.233.505.351l.375.238.406.241.436.244c.151.082.307.164.468.247l.499.248.262.125.547.252c.188.084.382.169.58.253l.613.255c.105.043.211.086.319.128l.662.257.697.258c.237.086.481.172.73.258l.765.259.799.26.413.129.128.038.287.072c.051.012.104.024.159.035l.348.066.39.062.21.03.451.056.493.053.535.049.881.067.976.059.705.036 1.137.048 3.424.103 1.047.027 2.119.046c.712.013 1.429.024 2.149.033l2.18.022c.36.003.73.005 1.09.006l2.21.004 2.23-.008 2.24-.019 2.26-.031 2.26-.041 2.27-.053 2.27-.063 1.13-.036 2.27-.079c.76-.028 1.51-.058 2.26-.09l2.25-.099 1.12-.054 2.24-.115 2.21-.124 2.19-.134 2.17-.143 2.14-.153 2.11-.162c.35-.027.7-.055 1.04-.084l2.06-.175c1.7-.149 3.35-.308 4.96-.475l1.91-.205.93-.105 1.83-.216c.9-.111 1.78-.224 2.64-.34l1.73-.243 2.9-.421 3.8-.577 3.62-.565 5.34-.854 6.69-1.096 5.72-.953 10.05-1.702 14.75-2.544 14.48-2.533 24.77-4.39 25.81-4.627 16.3-2.946 42.84-7.798 64.5-11.793 3.84-.673 5.19-.895 5.25-.892 3.98-.665 5.33-.877 5.34-.866 5.36-.85 4-.625 3.99-.614 3.97-.601 3.95-.587 2.6-.383 3.88-.56 3.83-.543 2.53-.352 2.5-.342 3.69-.497 3.63-.474 3.54-.452 2.32-.287 2.28-.276 3.34-.392 3.24-.365 2.1-.228 2.05-.214 1.88-.19 3.37-.331 3.19-.303 3.01-.273 2.85-.245 2.71-.217 1.31-.098 1.91-.134 1.24-.081 1.22-.074 1.19-.068 1.18-.06 1.74-.08 1.7-.064 1.13-.034 1.67-.04 1.11-.02 1.65-.016 1.11-.003 1.1.002 1.11.01 1.68.024 1.7.038 1.16.032c1.88.058 3.52.832 3.89 2.79l.06.338.04.145.05.174.07.214.16.415.29.71c1.35 3.37 1.23 5.962-1.74 8.322l-.25.2-.51.395-.52.392-.27.194-.54.387c-.09.064-.18.129-.28.193l-.56.386-.59.387-.6.39c-.1.064-.21.13-.31.195l-.64.395-.66.401-.69.408-.72.416-.75.425-.79.437-1.24.678-1.33.711-1.42.747-6.4 3.302-1.31.684-1.18.627-1.15.623-.8.444-.39.218-.75.428-.71.42-.68.41-.33.2-.63.397-.6.386-.56.379-.27.186-.52.365-.24.18-.47.353c-.07.058-.15.116-.22.173l-.42.342c-1.62 1.35-2.49 2.515-2.71 3.553l-.02.082 3.63.052 5.37.095 2.66.033 1.45.01h1.79l1.66-.017 1.17-.023 1.13-.032 1.1-.043 1.09-.053 1.03-.062.97-.073.62-.057.62-.065.63-.074.64-.084.66-.094.69-.107 1.13-.185.81-.142 3.97-.72 1.16-.198 1.31-.202.86 5.937-1 .153-1.21.204-3.65.664-1.32.231-.81.135-.77.121-.73.108-.7.096-.69.085-.34.04-.68.07-.69.063-.35.028-.71.052-.75.046-.75.041-1.14.052-1.16.041-1.19.031-.81.015-1.71.017-1.37.002-1.96-.01-2.16-.026-8.65-.145-1.26-.013c-.21-.002-.42-.006-.63-.012l-.6-.026c-.1-.005-.19-.011-.28-.018a8.2 8.2 0 01-.86-.102 4.05 4.05 0 01-.66-.179 3.255 3.255 0 01-.64-.32 2.952 2.952 0 01-1.1-1.227c-1.85-3.776-.81-7.486 2.39-10.801 1.5-1.556 3.45-3.046 6.03-4.657l.84-.512c.57-.345 1.17-.696 1.8-1.055l.97-.545 1.02-.558.76-.411.8-.426 1.76-.922 5.86-3.016 1.82-.955.85-.452 1.2-.65.76-.418 1.07-.603.67-.389.65-.38.62-.37.59-.365.57-.36.54-.353.53-.351c.08-.059.17-.117.25-.175l.5-.348.24-.174.48-.347c.07-.058.15-.117.23-.175l.45-.35.41-.327c.12-.106.13-.192.03-.475l-.07-.195-.58-1.426-.08-.207-.99-.022-1.64-.028-1.62-.015-1.62-.002-1.08.007-1.62.02-1.62.036-1.65.049-1.11.04-1.12.048-1.71.082-1.76.098-1.8.112-1.86.127-1.27.093-2.63.207-2.78.234-2.17.195-3.05.284-4.07.395-2.67.267-1.92.201-2.98.324-2.04.23-2.07.24-2.12.253-2.15.262-3.3.412-3.37.434-3.44.454-3.5.473-3.56.492-2.4.338-3.64.52-2.44.355-3.7.545-4.98.747-3.76.575-3.78.586-5.05.796-5.06.81-3.92.64c-5.86.96-11.67 1.941-17.34 2.924l-5.78 1.02-66.7 12.195-49.07 8.92-25.05 4.504-23.25 4.139-13.73 2.418-14.84 2.585-11.35 1.949-10.21 1.725-7.49 1.24-5.27.856-4.13.657-2.55.397-2.13.327-3.46.516-2.47.354c-.86.12-1.74.238-2.65.352l-1.83.225-1.89.217-1.94.209c-.99.102-1.99.201-3 .297l-2.05.187-2.1.179-1.05.085-2.15.165-1.08.079-2.19.151-1.11.071-2.22.137c-.75.044-1.5.086-2.25.126l-2.26.117-2.28.106-2.29.097-2.3.085-1.15.039-2.31.07-2.3.059-1.15.025-2.3.043c-.76.012-1.52.022-2.28.031l-2.28.019-2.26.008-2.24-.004-2.22-.016-2.199-.028-2.167-.04-1.072-.025-4.127-.118-.884-.032-.836-.037-.79-.04-.746-.044-.703-.049-.662-.055c-.215-.019-.422-.04-.624-.061l-.586-.067-.552-.074a26.02 26.02 0 01-.518-.081l-.486-.09a15.104 15.104 0 01-.457-.098l-.429-.107a11.44 11.44 0 01-.402-.116l-.476-.15-.928-.302a53.686 53.686 0 01-3.802-1.416l-.762-.328c-5.846-2.591-8.893-5.665-9.056-9.57-.18-4.318 3.225-8.078 9.579-11.996l.776-.471.699-.412.718-.412.737-.412.756-.413.778-.415.799-.416.821-.418.844-.421 1.311-.637.905-.43.93-.433.957-.437 1.486-.666 1.55-.678 1.07-.46 1.66-.702 1.147-.477 1.779-.73 1.227-.497 2.555-1.02 2.01-.79 2.09-.813 6.5-2.483 8.74-3.328 2.78-1.079 2.02-.798 1.41-.565 1.74-.714 1.22-.51 1.15-.49 1.08-.476.69-.31 4.64-2.096 6.05-2.72 4.43-1.987 5.79-2.584 5.67-2.515 6.94-3.058 5.45-2.385 5.38-2.338 4-1.727 5.3-2.272 3.95-1.684 3.47-1.47 1.96-.811 1.72-.697 2.47-.977 3.58-1.378 5.37-2.032 7-2.63 4.04-1.541 2.68-1.038 2.03-.802 1.88-.753 1.39-.575 1.32-.555 1.87-.805.89-.395.86-.393 1.41-.655 1.1-.53.83-.404c5.73-2.838 9.35-5.735 13.19-10.088l.37-.426c.05-.06.08-.093.06-.214l-.02-.127-.08-.306-.18-.621-.22-.734-.09-.32-.08-.293-.06-.298-.05-.261-.04-.258-.05-.446-.14-.036-.21-.048-.14-.029-.31-.053c-.05-.008-.1-.017-.16-.024l-.34-.046-.38-.039-.4-.034-.43-.028-.46-.022-.49-.016-.52-.01-.84-.005-.29.002-.61.008-.64.014-1.03.033-1.1.047-1.17.063-1.24.077-1.33.092-1.88.146-1 .084-1.49.133-2.73.257-2.66.27-2.22.242-2.71.315-3.32.413-3.06.402-4.51.619-6.57.933-10.83 1.546-13.31 1.829-8.47 1.179-9.28 1.308-5.03.718-7.2 1.042-3.45.507-4.46.663-5.35.81-5.14.793-3.96.624-4.8.77-2.79.459-4.54.76-2.66.455-3.47.607-2.57.456-3.37.61-1.66.308-2.48.464-4.085.782-3.243.636-4.036.81-1.614.33-2.524.524-10.912 2.294-9.877 2.089-13.785 2.936-10.096 2.166-15.697 3.393-25.113 5.479-28.925 6.363-88.049 19.488-27.956 6.183-11.056 2.48-9.458 2.163-7.13 1.667-3.662.872-4.551 1.098-26.939 6.602-41.024 10.117-57.012 14.15-142.813 35.538-32.697 8.093-53.94 13.274-31.652 7.714-13.555 3.268-12.197 2.916-8.666 2.056-7.54 1.779-7.427 1.742-5.543 1.276-4.878 1.104-4.182.933-6.071 1.335-5.441 1.179-6.674 1.428-8.122 1.716-11.535 2.412-6.654 1.447-14.443 3.169-2.641.566-2.12.441-1.321.258-.999.175-1.435.235-1.456.219-1.493.204-1.229.153-.948.109-1.304.138-1.357.131-1.416.124-1.483.117-2.368.166-1.683.103-2.702.147-2.937.139-3.195.132-5.331.19-6.549.199-2.496.063-1.838.037-2.111.028L158 228l-1.109-.003-1.046-.012-.665-.014-.64-.018-.616-.023-.593-.028-.571-.033-.817-.059-.52-.047-.502-.052-.484-.057-.468-.064-.453-.07-.438-.076-.425-.083-.412-.089-.402-.096-.39-.103-.382-.11-.373-.117-.366-.124-.36-.133-.354-.14-.35-.147-.347-.156-.345-.165-.343-.172-.515-.275-.518-.295-.349-.207-.531-.329-.36-.231-.741-.492-.578-.394-.197-.136c-3.365-2.336-5.32-5.08-5.813-8.179l-.107-.678-.202-1.321-.184-1.278-.167-1.237a77.304 77.304 0 01-.078-.604l-.141-1.18c-.729-6.392-.652-11.208.435-16.34 1.867-8.815 6.797-16.497 15.558-23.247a242.626 242.626 0 017.06-5.23l1.648-1.167a286.368 286.368 0 015.995-4.099l1.778-1.176a354.93 354.93 0 018.362-5.318l1.939-1.188a392.5 392.5 0 012.963-1.788l2.012-1.194 2.042-1.198 2.071-1.2 2.101-1.203 1.061-.603 2.146-1.208 2.175-1.21 2.205-1.214 2.234-1.217 2.265-1.221 2.294-1.223c.77-.408 1.545-.818 2.325-1.227l2.354-1.231 1.189-.616 2.4-1.236 1.211-.619 2.445-1.241 2.475-1.246 2.505-1.248 2.536-1.253 2.566-1.257 2.597-1.261 2.627-1.265 2.658-1.269 2.688-1.274 2.719-1.277 2.749-1.283 2.781-1.286 2.811-1.291 2.842-1.296 2.873-1.301 2.904-1.305 2.935-1.31 2.966-1.316 2.639-1.163 3.397-1.489 3.331-1.45 3.337-1.445 4.47-1.921 4.503-1.92 3.406-1.44 3.437-1.446 3.473-1.451 4.695-1.949 3.577-1.474 4.852-1.986 3.708-1.507 5.045-2.04 5.174-2.076 3.971-1.584 5.426-2.154 5.587-2.204 7.228-2.835 7.522-2.933 7.841-3.04 9.861-3.802 12.182-4.673 14.893-5.683 38.948-14.792 10.283-3.877 9.115-3.406 6.554-2.423 5.086-1.861 4.388-1.59 3.567-1.281 3.558-1.268 3.308-1.17 3.357-1.178 2.575-.898 2.903-.995 2.055-.69 2.487-.82 3.443-1.112 4.777-1.51 6.79-2.108 15.005-4.625 5.528-1.731-72.005 10.014-18.332 2.57-17.443 2.473-15.67 2.253-13.478 1.972-10.995 1.637-7.181 1.084-4.256.649-7.689 1.182-11.557 1.798-12.524 1.963-9.281 1.466-11.715 1.862-15.718 2.522-16.265 2.635-18.625 3.046-31.657 5.229-34.693 5.779-97.862 16.375-26.715 4.328L63.76 80.33l-5.366.91-5.445.948-4.024.72-4.235.785-3.559.683-3.412.678-2.492.511-.86.18c-1.432.3-2.849.605-4.268.917l-1.705.377-5.103 1.142-7.53 1.692-4.96 1.12-4.929 1.12-10.696 2.444-11.426 2.638-14.098 3.291-12.29 2.898-11.645 2.768-18.085 4.33-24.857 5.999-100.023 24.283-16.184 3.885-8.873 2.118-1.39-5.837 13.233-3.161 30.151-7.272 75.816-18.428 25.367-6.131 15.796-3.793 13.057-3.115 12.313-2.916 8.85-2.081 10.018-2.338 8.406-1.945 9.698-2.227 8.305-1.891 11.192-2.527 10.304-2.303 1.72-.375 3.46-.733 3.079-.63 2.252-.448 1.842-.36 3.335-.632 2.484-.46 4.19-.755 3.92-.688 5.448-.933 7.388-1.235 6.734-1.105 28.142-4.566 99.641-16.68 38.191-6.352 20.838-3.44 20.674-3.382 18.048-2.923 14.757-2.366 7.957-1.266 9.273-1.467 10.994-1.728 11.196-1.749 5.764-.893 7.124-1.095 10.547-1.6 8.196-1.224 13.253-1.95 7.985-1.157 14.977-2.146 20.422-2.884 28.122-3.928 56.02-7.785 1.295-.173 1.327-.169 1.371-.164 1.914-.217 2.036-.215 2.184-.219 4.25-.397 2.017-.18.629-.048.348-.022.718-.036c.238-.01.47-.018.686-.023z" fill="#093F68"/></svg>