<svg width="88" height="106" fill="none" xmlns="http://www.w3.org/2000/svg"><path d="M70.053 65.39a42.943 42.943 0 01-.608 7.362 32.39 32.39 0 01-4.51 12.02c-6.207 9.756-17.369 14.423-29.585 14.423-12.215 0-23.389-4.667-29.595-14.423a28.956 28.956 0 01-2.391-4.628 32.409 32.409 0 01-1.529-4.56c-.22-.905-.428-1.84-.579-2.803a42.964 42.964 0 01-.579-7.363A53.356 53.356 0 012.061 53.57a61.14 61.14 0 011.285-4.873 77.886 77.886 0 013.063-8.406c6.803-15.843 18.486-29.463 28.936-29.463 8.464 0 17.785 8.976 24.622 20.847a77.372 77.372 0 013.12 5.99c.412.86.806 1.737 1.188 2.615a80.257 80.257 0 013.062 8.395 58.591 58.591 0 012.716 16.715z" fill="#080C20"/><path fill-rule="evenodd" clip-rule="evenodd" d="M5.24 85.073c5.94 9.335 16.899 14.692 30.076 14.692 13.206 0 24.165-5.357 30.105-14.692a32.982 32.982 0 004.591-12.224c.42-2.465.628-4.96.62-7.46a58.544 58.544 0 00-2.803-16.863 79.75 79.75 0 00-3.08-8.457v-.034c-.37-.9-.77-1.8-1.157-2.61a76.87 76.87 0 00-3.138-6.03c-7.63-13.238-17.033-21.137-25.138-21.137-11.434 0-23.28 15.473-29.44 29.823a79.068 79.068 0 00-3.085 8.462c-.51 1.687-.95 3.34-1.297 4.913A54.115 54.115 0 00.052 65.389a43.39 43.39 0 00.62 7.455c.127.912.324 1.84.579 2.85a32.744 32.744 0 001.545 4.66 29.713 29.713 0 002.443 4.72zm1.707-44.537c7.33-17.136 19.007-29.104 28.369-29.104v-.034c7.596 0 16.841 7.899 24.177 20.573a77.994 77.994 0 013.103 5.955c.376.804.77 1.676 1.158 2.593v.035a78.745 78.745 0 013.033 8.309 57.786 57.786 0 012.687 16.526 42.465 42.465 0 01-.58 7.267 31.902 31.902 0 01-4.475 11.813c-5.725 9-16.366 14.157-29.103 14.157-12.737 0-23.35-5.164-29.104-14.128a29.46 29.46 0 01-2.35-4.56 32.501 32.501 0 01-1.494-4.507 40.088 40.088 0 01-.579-2.764 42.465 42.465 0 01-.579-7.266 52.973 52.973 0 011.413-11.689c.347-1.55.775-3.174 1.273-4.832a78.152 78.152 0 013.051-8.344z" fill="#093F68"/><path d="M60.02 31.8c.665 1.539-.985 7.09-1.054 8.942a98.193 98.193 0 01-1.25 10.64 7.495 7.495 0 01-.811 2.849 2.654 2.654 0 01-2.467 1.368c-1.267-.166-2.032-1.488-2.275-2.719-.243-1.23-.145-2.541-.62-3.704-.474-1.163-1.87-2.126-3.016-1.562a2.73 2.73 0 00-1.076 1.186c-.921 1.67-1.228 3.59-1.523 5.465-1.002 6.417-3.12 13.586-2.704 20.066.133 2.103.527 4.417-1.771 5.733-2.299 1.317-4.782-.49-5.732-2.564-.88-1.915-.903-4.087-1.36-6.138-.631-2.85-3.636-10.435-7.104-5.54-.892 1.26-1.158 2.85-1.372 4.36a218.175 218.175 0 00-2.148 27.025c-.035 2.097-.081 4.331-1.274 6.069-1.192 1.738-4.006 2.547-5.47 1.026-.858-.889-.98-2.229-1.049-3.454-.579-10.155-.336-20.584-1.517-30.683-.689-5.853-6.368-15.159-12.337-16.584a61.14 61.14 0 011.285-4.872 77.886 77.886 0 013.063-8.406c6.774-15.855 18.457-29.475 28.907-29.475 8.464 0 17.785 8.976 24.622 20.847a77.372 77.372 0 013.12 5.99c-1.186-1.796-1.973-3.967-3.068-5.865z" fill="#3EE9E5"/><path fill-rule="evenodd" clip-rule="evenodd" d="M16.546 104.695a3.293 3.293 0 002.426.98l.365-.011a5.013 5.013 0 003.6-2.069c1.303-1.892 1.344-4.274 1.379-6.377a218.21 218.21 0 012.148-26.973c.231-1.59.486-3.003 1.273-4.115.724-1.02 1.425-1.464 2.09-1.339 1.662.33 3.399 4.155 3.978 6.674.15.672.255 1.373.353 2.051.143 1.418.484 2.81 1.013 4.137a5.886 5.886 0 003.422 3.146 3.81 3.81 0 003.132-.325c2.407-1.378 2.235-3.788 2.096-5.725v-.002l-.041-.53c-.288-4.54.686-9.434 1.632-14.185l.012-.062c.394-1.972.753-3.887 1.054-5.7l.036-.22c.289-1.742.584-3.525 1.423-5.056.176-.39.463-.721.828-.952.294-.132.632-.132.926 0a2.395 2.395 0 011.291 1.282 7.55 7.55 0 01.417 2.194c.04.456.087.93.174 1.402.26 1.328 1.134 2.964 2.761 3.174a3.236 3.236 0 003.04-1.64 7.887 7.887 0 00.897-3.033c.081-.57.162-1.14.249-1.71a77.993 77.993 0 001.002-8.992c.105-.998.27-1.99.492-2.97.266-1.333.492-2.507.613-3.498.052.102.099.199.145.302a29.891 29.891 0 001.806 3.419c.164.255.502.34.77.194a.566.566 0 00.244-.741 76.87 76.87 0 00-3.138-6.03c-7.63-13.238-17.033-21.137-25.138-21.137-11.434 0-23.28 15.473-29.44 29.823a79.064 79.064 0 00-3.085 8.462 66.31 66.31 0 00-1.297 4.919.57.57 0 00.428.672c5.876 1.402 11.272 10.731 11.903 16.1.747 6.405.932 13.073 1.106 19.513.099 3.658.203 7.442.411 11.13.046 1.088.15 2.729 1.204 3.818zM14.99 70.103c-.649-5.648-6.027-14.994-12.227-16.926h-.018c.313-1.367.716-2.79 1.13-4.255l.022-.076a78.142 78.142 0 013.051-8.344c7.33-17.136 19.007-29.104 28.369-29.104 7.596 0 16.841 7.899 24.165 20.664.365.827-.18 3.562-.579 5.557a23.763 23.763 0 00-.51 3.145 79.298 79.298 0 01-.995 8.868c-.04.285-.083.57-.125.855-.042.285-.084.57-.124.855a7.105 7.105 0 01-.741 2.61 2.119 2.119 0 01-1.893 1.1c-.956-.149-1.58-1.248-1.778-2.28-.076-.43-.13-.864-.162-1.3a8.428 8.428 0 00-.498-2.518 3.527 3.527 0 00-1.956-1.92 2.35 2.35 0 00-1.853.068 3.285 3.285 0 00-1.32 1.419c-.97 1.757-1.291 3.788-1.579 5.605l-.008.048c-.289 1.83-.66 3.693-1.053 5.659l-.007.036c-.96 4.827-1.95 9.812-1.649 14.49l.035.542c.139 1.87.266 3.636-1.523 4.667a2.66 2.66 0 01-2.194.223 4.774 4.774 0 01-2.715-2.53 14.115 14.115 0 01-.956-3.899 31.433 31.433 0 00-.37-2.125c-.4-1.79-2.148-7.016-4.88-7.551-1.158-.223-2.258.381-3.266 1.8-.938 1.322-1.221 2.873-1.47 4.61a219.372 219.372 0 00-2.183 27.1c0 2.04-.052 4.148-1.158 5.761a3.874 3.874 0 01-2.738 1.567 2.203 2.203 0 01-1.83-.616c-.7-.723-.822-1.874-.891-3.094-.203-3.687-.307-7.448-.406-11.096l-.005-.197c-.178-6.407-.361-13.022-1.112-19.418z" fill="#093F68"/><path d="M56.422 70.261l4.689-3.933 3.646 4.212-4.688 3.933-3.647-4.212z" fill="#080C20"/><path fill-rule="evenodd" clip-rule="evenodd" d="M59.626 74.833a.582.582 0 00.816.062l4.69-3.932a.567.567 0 00.202-.387.564.564 0 00-.139-.416l-3.647-4.212a.582.582 0 00-.816-.063l-4.684 3.932a.567.567 0 00-.07.804l3.648 4.212zm.504-1.174l-2.895-3.346 3.803-3.191 2.895 3.345-3.803 3.192z" fill="#093F68"/><path d="M64.755 70.53l21.282-16.96a3.424 3.424 0 00.486-4.952 3.534 3.534 0 00-2.454-1.207 3.548 3.548 0 00-2.588.899L61.108 66.307l3.647 4.223z" fill="#080C20"/><path fill-rule="evenodd" clip-rule="evenodd" d="M64.315 70.9c.11.127.271.2.44.2a.584.584 0 00.365-.148l21.276-16.949a3.997 3.997 0 001.495-3.84 4.048 4.048 0 00-2.708-3.131 4.142 4.142 0 00-4.09.839L60.72 65.891a.564.564 0 00-.052.798l3.647 4.211zm.498-1.162l-2.895-3.368 19.934-17.616a2.958 2.958 0 012.165-.746 2.927 2.927 0 012.593 2.015 2.862 2.862 0 01-.955 3.114l-20.842 16.6z" fill="#093F68"/><path d="M54.302 73.85a2.036 2.036 0 113.078-2.664l1.871 2.16a2.036 2.036 0 11-3.078 2.666l-1.87-2.161z" fill="#080C20"/><path fill-rule="evenodd" clip-rule="evenodd" d="M56.216 76.936c.352.406.87.637 1.412.632a1.87 1.87 0 001.216-.427l1.158-.98c.38-.313.613-.763.648-1.249a1.8 1.8 0 00-.44-1.333l-2.894-3.317a1.857 1.857 0 00-1.268-.638 1.918 1.918 0 00-1.355.433l-1.158.98a1.815 1.815 0 00-.214 2.582l2.895 3.317zm-.747-6.041a.736.736 0 01.457-.166l.052.006c.188.01.362.097.48.24l2.896 3.316a.683.683 0 01-.076.975l-1.157.98a.704.704 0 01-.99-.08l-2.895-3.317a.666.666 0 01-.168-.501.715.715 0 01.243-.473l1.158-.98z" fill="#093F68"/><path d="M53.524 71.806l4.533 5.232s-.255 2.154-4.053 4.417a21.439 21.439 0 01-2.895 1.43c-6.588 2.684-10.542-1.88-10.542-1.88 3.856 1.515 5.118-2.035 6.368-5.836l.157-.468c1.279-3.972 6.432-2.894 6.432-2.894z" fill="#080C20"/><path fill-rule="evenodd" clip-rule="evenodd" d="M40.11 81.37a9.82 9.82 0 006.947 2.917 11.197 11.197 0 004.255-.883 22.77 22.77 0 002.976-1.465c4.006-2.382 4.342-4.741 4.342-4.838a.564.564 0 00-.139-.433l-4.533-5.238a.54.54 0 00-.319-.188c-1.956-.41-5.963-.245-7.12 3.271l-.157.48c-.747 2.279-1.598 4.866-3.15 5.584a3.019 3.019 0 01-2.448-.108.584.584 0 00-.686.197.563.563 0 00.031.703zm10.762.98c-3.804 1.555-6.646.564-8.285-.44a3.41 3.41 0 001.123-.296c2.012-.93 2.934-3.748 3.747-6.236l.01-.032.157-.474c1.008-3.077 4.701-2.69 5.593-2.547l4.209 4.855c-.197.565-.95 2.132-3.729 3.785-.906.529-1.85.992-2.825 1.385z" fill="#093F68"/><path d="M40.908 76.679c.264.624.598 1.216.996 1.767.51.57 1.534.404 2.142.09a4.193 4.193 0 001.517-1.424c.394-.57.712-1.197 1.1-1.778a.575.575 0 01.226-.228c.33-.165.637.37.724.604.141.406.235.827.278 1.254.063.45.11.9.156 1.35-.014.243.024.486.11.713a.422.422 0 00.249.205.471.471 0 00.226-.017c.41-.154.77-.41 1.186-.53a.97.97 0 011.158.36c.157.324 0 .712.052 1.07.054.393.338.717.724.827.263.05.532.065.799.045.52.015 1.022.184 1.442.485a21.439 21.439 0 01-2.895 1.43c-3.772 1.537-8.108.764-11.093-1.977a3.557 3.557 0 01-1.192-2.45" fill="#3EE9E5"/><path d="M47.063 84.23a10.821 10.821 0 01-7.457-2.883 4.117 4.117 0 01-1.372-2.85c0-.315.259-.57.579-.57.32 0 .579.255.579.57a3.02 3.02 0 001.013 2.046c2.823 2.578 6.917 3.291 10.467 1.824a22.266 22.266 0 001.778-.81h-.325a2.257 2.257 0 01-.735-.068 1.57 1.57 0 01-1.158-1.31 2.1 2.1 0 010-.57.945.945 0 000-.348.487.487 0 00-.457-.057 3.17 3.17 0 00-.58.25c-.187.1-.38.19-.578.268a1.121 1.121 0 01-.58.063.965.965 0 01-.613-.456 1.587 1.587 0 01-.19-.82v-.394c-.041-.359-.076-.718-.128-1.077a5.804 5.804 0 00-.243-1.14l-.04-.085c-.134.205-.256.416-.383.627a13.8 13.8 0 01-.614.98 4.7 4.7 0 01-1.737 1.613c-.903.461-2.17.53-2.842-.223a5.113 5.113 0 01-.8-1.322c-.086-.182-.173-.37-.271-.57a.572.572 0 01.22-.786.591.591 0 01.799.216c.11.206.208.41.307.622.154.372.359.723.608 1.043.26.284.96.21 1.453-.04.53-.3.976-.725 1.297-1.237.202-.29.382-.57.578-.918.197-.347.342-.57.527-.854.11-.18.266-.327.452-.428a.87.87 0 01.706 0c.384.201.678.537.822.94.151.448.254.91.307 1.38.052.37.093.746.133 1.14v.461a.612.612 0 010 .108l.26-.125c.249-.139.51-.251.782-.336a1.528 1.528 0 011.824.66c.125.296.163.62.11.936a1.975 1.975 0 000 .307c.028.165.146.3.307.353.132.02.267.02.4 0h.26c.623.02 1.226.218 1.737.57a.567.567 0 01-.035.952 22.782 22.782 0 01-2.976 1.465c-1.325.56-2.75.86-4.191.883z" fill="#093F68"/><path d="M41.644 91.662c.11-1.402-.14-3.642-1.303-4.657-2.518-2.205-4.284 1.442-4.377 3.42a5.145 5.145 0 00.834 3.368 2.745 2.745 0 003.167.991c1.14-.495 1.586-1.892 1.679-3.123z" fill="#3EE9E5"/><path fill-rule="evenodd" clip-rule="evenodd" d="M36.335 94.152a3.49 3.49 0 002.744 1.408c.39 0 .774-.081 1.129-.24 1.569-.706 1.934-2.57 2.015-3.613.127-1.653-.191-3.99-1.5-5.129-1.158-1.014-2.154-.918-2.785-.65-1.626.673-2.483 3.072-2.553 4.485a5.59 5.59 0 00.95 3.739zm2.043-7.175a.962.962 0 01.411-.091c.444.032.86.227 1.164.547.92.803 1.222 2.735 1.112 4.189-.052.638-.278 2.182-1.35 2.667-.856.387-1.921-.114-2.454-.82a4.503 4.503 0 01-.724-2.999c.064-1.316.863-3.088 1.841-3.493z" fill="#093F68"/><path d="M21.595 21.428l10.346-5.09V6.652l-10.346-5.1c-2.663-1.312-5.963.347-5.963 3.008v13.888c0 2.639 3.3 4.292 5.963 2.981z" fill="#080C20"/><path fill-rule="evenodd" clip-rule="evenodd" d="M16.998 21.736c.785.474 1.69.725 2.611.723a5.086 5.086 0 002.246-.518l10.358-5.078a.57.57 0 00.318-.507V6.668a.569.569 0 00-.318-.513l-10.346-5.09a5.1 5.1 0 00-4.858.206 3.831 3.831 0 00-1.956 3.288v13.888a3.831 3.831 0 001.945 3.289zm.608-19.502a3.883 3.883 0 013.74-.171l10.027 4.935v8.988L21.346 20.92a3.915 3.915 0 01-3.729-.154 2.718 2.718 0 01-1.407-2.32V4.56a2.718 2.718 0 011.396-2.325z" fill="#093F68"/><path d="M23.123 15.387a.569.569 0 01-.203-1.106l7.052-2.638-9.344-2.171a.59.59 0 01-.435-.399.578.578 0 01.133-.57.6.6 0 01.568-.171l11.18 2.598c.248.057.43.267.448.517a.57.57 0 01-.373.572l-8.817 3.305a.538.538 0 01-.209.063z" fill="#093F68"/><path d="M49.089 21.428l-10.346-5.09V6.652L49.09 1.556c2.663-1.31 5.975.347 5.975 2.986v13.905c0 2.639-3.312 4.292-5.975 2.981z" fill="#080C20"/><path fill-rule="evenodd" clip-rule="evenodd" d="M48.828 21.94a5.094 5.094 0 004.857-.204 3.831 3.831 0 001.958-3.289V4.56a3.831 3.831 0 00-1.957-3.305 5.1 5.1 0 00-4.858-.205L38.483 6.138a.57.57 0 00-.319.513v9.688c0 .214.124.41.319.507l10.345 5.095zm.521-1.02l-10.027-4.935V7.021L49.35 2.086a3.903 3.903 0 013.729.154 2.718 2.718 0 011.407 2.32v13.887a2.718 2.718 0 01-1.407 2.32 3.915 3.915 0 01-3.729.154z" fill="#093F68"/><path d="M47.56 15.387a.541.541 0 01-.208-.04l-8.817-3.322a.57.57 0 01-.373-.572c.017-.25.2-.46.448-.517l11.18-2.598a.6.6 0 01.567.171c.145.153.196.37.134.57a.59.59 0 01-.435.398l-9.344 2.172 7.051 2.598a.569.569 0 01-.203 1.106v.034z" fill="#093F68"/><rect x="30.806" y="5.87" width="9.066" height="11.238" rx="3.91" fill="#080C20"/><path fill-rule="evenodd" clip-rule="evenodd" d="M33.087 17.667h4.545c1.56-.007 2.826-1.245 2.842-2.781V8.098C40.471 6.554 39.2 5.303 37.632 5.3h-4.545c-1.569.003-2.84 1.254-2.843 2.798v6.77c.006 1.543 1.276 2.792 2.843 2.799zm-1.702-9.569c.003-.914.755-1.655 1.684-1.658h4.563c.929.003 1.681.744 1.684 1.658v6.77a1.677 1.677 0 01-1.684 1.659h-4.563c-.922-.003-1.672-.734-1.684-1.641V8.098z" fill="#093F68"/></svg>