<svg width="768" height="357" fill="none" xmlns="http://www.w3.org/2000/svg"><path opacity=".25" d="M279.879 297.706l.038.037h.014l.078.007.176.01.087.003.194-.002.22-.01.25-.019.284-.029.318-.039.358-.048.495-.074.584-.093.546-.092.512-.093c.082-.015.164-.03.243-.046l.463-.093.433-.095.206-.049.391-.099c1.262-.334 2.104-.724 2.848-1.274l.22-.17.217-.181.107-.094.154-.141.113-.112.218-.229.271-.293.592-.655 2.199-2.49 1.395-1.584.845-.949.55-.608.312-.34 1.345-1.445.861-.93 1.241-1.349 1.185-1.3 1.135-1.256 1.09-1.22 1.051-1.189.681-.778.996-1.152.649-.76.956-1.131.628-.752 3.059-3.714 2.457-3.01 3.007-3.713 2.892-3.602 4.299-5.395 4.538-5.733 7.052-8.951 4.61-5.87 11.228-14.362 35.539-45.629 10.014-12.788 3.462-4.4 4.963-6.289 2.786-3.518.836-1.044 1.221-1.503.883-1.07 1.295-1.547 1.397-1.645 2.008-2.332 2.321-2.665 24.72-28.219 7.363-8.359 4.669-5.26 2.715-3.037 3.633-4.033 2.786-3.068 2.118-2.316 2.453-2.669 1.205-1.304.536-.572.535-.563.535-.556.535-.548.538-.541.54-.536.543-.531.548-.527.831-.783.562-.52.569-.517.577-.517.586-.516.595-.518.606-.518.617-.521.629-.524.642-.527.99-.799.678-.54.694-.545 1.073-.832 1.113-.85.766-.577 1.187-.886 1.234-.91.852-.623.874-.635 1.357-.979 1.415-1.011 2.862-2.03.65-.472 1.958-1.453.561-.413.782-.568.486-.347.462-.324.44-.302.422-.283.205-.134.401-.257.39-.242.192-.115.382-.223.378-.213.38-.203.191-.1.388-.195.396-.19.202-.095c2.794-1.295 4.871-1.428 6.305.142.67.732.948 1.383 1.075 2.517l.032.337.013.18.023.382.017.416.046 1.628.052 1.013.067 1.158c.105 1.96.083 3.291-.151 4.686l-.091.533-.18 1.036-.18.996-.182.96-.091.467-.184.909-.188.878a68.395 68.395 0 01-.588 2.476l-.208.78a46.53 46.53 0 01-1.428 4.387l-.317.81-.271.672-.367.883-.284.661-.294.667-.306.678-.434.935-.347.73-.499 1.028-.405.818-.74 1.474-.66 1.294-2.756 5.355-.574 1.134-.601 1.209-.364.746-.26.543-.349.742-.349.755L497 99.535l-1.029 2.269-1.381 3.068-1.396 3.128-1.417 3.2-1.809 4.118-1.484 3.402-1.908 4.407-1.577 3.662-.806 1.881-.252.58-.266.595-.28.614-.296.637-.314.662-.509 1.049-.558 1.129-.721 1.433-3.024 5.944-.517 1.034-.734 1.49-.234.481-.452.942-.433.915-.412.891-.2.436-.384.858-.186.421-.358.829-.342.813c-.111.268-.22.534-.326.798l-.31.785c-.152.39-.298.776-.439 1.159l-.275.763-.133.38-.256.755-.124.377c-2.688 8.276-2.68 14.894.544 20.277l.098.16.047.018.06.018.151.037.326.061.496.072c4.212.605 9.583-.733 12.988-3.195l.371-.272.54-.409.439-.341.629-.5.68-.551 1.113-.921 1.223-1.033 1.564-1.344 1.456-1.268 1.83-1.613 1.968-1.754 2.103-1.892 3.573-3.243 2.082-1.905 4.437-4.087 2.752-2.551 3.545-3.303 6.156-5.772 19.209-18.11.805-.728.813-.728.821-.726.828-.723.832-.719.837-.714.839-.709.42-.351.842-.698.841-.688.421-.341.839-.674.419-.332.835-.656.416-.323.828-.636.822-.622c.818-.613 1.626-1.203 2.417-1.765l.787-.551.774-.532.382-.258.755-.499a51.094 51.094 0 013.86-2.309l.647-.336.629-.319.603-.298c3.744-1.822 6.077-2.411 9.086-1.934.961.152 1.54.768 1.831 1.501.135.341.196.692.205 1.028l.017.484.02.382.052.767.12 1.556.044.632.034.593.024.557.014.526c.023 1.451-.087 2.576-.384 3.801l-.078.315-.158.623-.164.617-.17.615-.178.616c-.03.103-.06.206-.092.31l-.191.625-.201.637-.105.324-.22.66-.232.682-.246.706-.262.735-.424 1.164-.306.824-1.457 3.876-.423 1.15-.191.533c-1.96 5.49-2.849 9.604-2.722 13.973l.014.377.41.039.424.036.38.025c.777.042 1.273.005 1.714-.125.084-.025.17-.063.269-.122l.125-.081.141-.106.163-.134a4.41 4.41 0 00.091-.078l.202-.181.365-.341.374-.354.208-.19.186-.165.178-.149.181-.143.094-.073 2.565 3.395-.107.083-.169.142-.131.117-.338.316-.107.101c-1.258 1.199-1.92 1.698-3.083 2.042-1.168.346-2.21.382-3.811.248l-1.326-.122-.37-.028-.247-.013a3.037 3.037 0 01-.974-.196c-.781-.301-1.435-.921-1.535-1.969-.543-5.717.343-10.669 2.648-17.245l.278-.782.534-1.459 1.454-3.867.435-1.176.268-.738.372-1.046.229-.664.215-.639.203-.621.192-.604.182-.592.172-.584.164-.579.157-.578.15-.58.146-.587c.204-.837.282-1.67.261-2.817l-.012-.445-.01-.235-.026-.497-.034-.535-.144-1.88-.022-.295-.154.009c-1.138.084-2.349.456-3.957 1.179l-.494.228-.52.249-.548.27-.285.144-.582.299c-1.385.717-2.957 1.677-4.648 2.816l-.732.499c-.493.34-.994.693-1.503 1.059l-.769.558-.778.576-.392.294-.791.599-.798.614-.803.628-.807.64-.811.651-.406.33-.813.666-.814.675-.812.681-.406.344-1.211 1.038-.803.697-.796.7-.789.702-.782.702-.472.431-19.139 18.046-7.554 7.076-3.721 3.458-3.877 3.581-3.266 2.996-2.721 2.478-2.852 2.574-2.344 2.093-1.373 1.214-1.799 1.575-1.427 1.233-1.107.943-.831.698-.783.649-.908.74-.67.534-.47.367-.441.338-.412.308-.258.189c-4.208 3.042-10.509 4.653-15.753 4.003l-.372-.05-.555-.081-.178-.031c-1.447-.258-2.513-.761-3.249-1.941-4.163-6.677-4.227-14.616-1.144-24.11.173-.532.353-1.064.542-1.599l.29-.805.304-.81c.155-.408.315-.818.481-1.232l.341-.835.356-.849.373-.864.39-.882.202-.448.418-.912.438-.936.457-.961.236-.49.489-1.003.774-1.561 1.177-2.325 2.437-4.788.39-.779.54-1.092.332-.683.312-.652.293-.622.276-.598.259-.575.246-.557 2.506-5.83 1.536-3.549 1.497-3.438 1.463-3.338 1.434-3.25.708-1.595 1.401-3.139 1.386-3.079 1.375-3.03.911-1.993.405-.864.314-.659.327-.674.348-.705.524-1.046.912-1.79 2.091-4.057.66-1.291.598-1.185.672-1.352.248-.507.237-.49.337-.707.419-.902.199-.437.192-.43.278-.637.269-.632.175-.421.174-.424c.114-.283.229-.57.343-.861.714-1.824 1.295-3.697 1.821-5.86l.183-.775c.151-.657.298-1.34.443-2.058l.173-.878.172-.912.172-.948.171-.988.087-.51c.117-.697.162-1.419.149-2.345l-.012-.527-.023-.574-.133-2.423-.023-.639-.027-1.08-.019-.435-.018-.251-.015-.142-.063.016a8.288 8.288 0 00-1.134.427l-.176.08-.339.16-.333.165-.165.084-.327.173-.164.09-.33.186-.334.197-.342.21-.353.223-.365.24-.382.256-.4.276-.422.297-.68.489-1.009.74-1.648 1.224-.725.53-.653.467-1.488 1.053-1.89 1.347-.906.65-1.737 1.258-.834.609-1.208.89-1.161.867-1.116.843-.72.55-.703.543-1.021.8-.661.525-.646.52-.632.514-.618.51-.606.507-.594.504-.583.502-.572.5-.564.5-.554.5-.548.502-.54.502-.534.505-.791.764-.523.514-.519.518-.517.525-.515.53-.515.538-.514.546-.516.554-2.01 2.18-1.974 2.152-1.205 1.319-3.583 3.946-2.063 2.29-2.662 2.97-3.956 4.445-4.988 5.643-7.584 8.634-15.977 18.254-5.569 6.348-2.261 2.598-1.544 1.793-1.012 1.187-1.498 1.779-1.055 1.274-.683.836-.529.652-.704.876-.709.891-6.002 7.594-4.945 6.283-10.478 13.384-37.808 48.537-8.325 10.641-10.619 13.5-6.206 7.841-2.321 2.915-2.457 3.072-2.08 2.587-1.516 1.874-3.462 4.25-1.827 2.224-1.5 1.817-.639.766-.647.766-.986 1.157-1.012 1.17-.691.791-.707.801-1.091 1.226-1.134 1.26-.783.862-1.218 1.332-1.713 1.856-1.575 1.694-.518.573-1.651 1.865-2.147 2.434-.945 1.056-.676.738-.356.374-.207.206-.057.053c-1.562 1.436-3.124 2.262-5.663 2.888l-.504.119c-.172.039-.349.077-.53.114l-.557.111-.587.108-.617.105-.752.119-.432.064-.415.054-.397.044-.38.035-.365.025-.349.014c-2.275.057-3.546-.616-4.54-2.503l-.147-.292-.144-.311-.07-.163-.14-.339-.068-.177-.136-.369-.135-.389-.134-.409-.133-.43-.134-.451-.134-.472c-.68-2.433-1.041-5.053-1.128-7.856l-.084-2.864-.054-2.082-.031-1.359-.042-1.995-.033-1.944-.017-1.269-.014-1.248-.009-1.228-.007-1.803.002-1.76.011-1.718.021-1.678.02-1.097.024-1.081.028-1.065.034-1.05.038-1.034.042-1.021.048-1.006.053-.993.057-.98.063-.968.068-.956.036-.474.076-.939.081-.929.087-.919.092-.91.098-.9.103-.892.11-.884.056-.44.118-.873.062-.434.127-.864.133-.858.139-.852.145-.848.152-.844.158-.84.165-.836.171-.834.178-.832.184-.83.191-.829.198-.828c.067-.276.136-.552.205-.828 5.752-22.863 14.264-46.506 25.764-72.641l.791-1.792.791-1.782.528-1.182.529-1.18c.882-1.965 1.77-3.92 2.672-5.885l1.405-3.045 1.094-2.346 1.564-3.324 1.377-2.896 1.415-2.953 1.213-2.51 1.501-3.082 2.351-4.789 2.488-5.018 2.041-4.086 3.415-6.788 4.046-7.985 10.326-20.24 2.352-4.574 1.724-3.326 1.758-3.356.998-1.885 1.289-2.41.786-1.455.779-1.433.944-1.72.964-1.74.454-.812.565-.992.467-.805.491-.833.518-.866.556-.914 1.088-1.765 1.687-2.697 2.999-4.768 1.216-1.962.661-1.083.723-1.206.785-1.343.114-.198-14.577 10.454-4.635 3.347-3.382 2.463-3.079 2.266-1.604 1.192-2.141 1.607-2.048 1.555-1.422 1.092-1.072.83-1.728 1.352-.929.733-.798.634-1.342 1.071-2.205 1.775-1.905 1.54-1.886 1.534-2.255 1.845-3.021 2.49-2.456 2.04-3.162 2.645-3.99 3.367-3.542 3.01-6.613 5.658-5.219 4.49-7.825 6.757-12.076 10.44-1.77 1.525-1.49 1.264-4.642 3.871-1.567 1.32-1.146.979-1.062.919-.745.655-.705.629-.67.609-.429.395-.618.58-.398.38-.387.375-.563.558-.366.369-.359.369-.528.554-.519.56-.515.567-.341.385-.342.391a819.465 819.465 0 00-5.124 5.955l-1.641 1.931-2.021 2.396-2.268 2.712-2.064 2.488-2.127 2.582-2.494 3.049-3.23 3.977-3.477 4.308-5.599 6.982-17.085 21.428-2.668 3.333-2.327 2.898-2.635 3.265-2.935 3.618-3.301-2.684 2.736-3.371 4.128-5.122 7.706-9.642 12.672-15.898 4.87-6.077 2.752-3.419 4.143-5.115 2.67-3.272 3.097-3.763 2.435-2.931 2.379-2.839 1.833-2.168 1.161-1.366a857.877 857.877 0 014.139-4.819l1.243-1.433.363-.412.543-.605.364-.397.366-.393.37-.39.563-.583.383-.388.59-.584.404-.393.625-.596.653-.609.452-.415.705-.638.743-.66.784-.686 1.115-.962 1.203-1.025 1.99-1.671 3.722-3.102 1.307-1.103.833-.714 21.707-18.753 5.599-4.815 5.435-4.65 4.263-3.622 3.008-2.538 3.509-2.94 2.165-1.8 3.638-3.002 2.264-1.851 1.741-1.417 1.988-1.608 1.005-.81 1.014-.816a422.665 422.665 0 013.772-2.995l1.349-1.053 1.954-1.51 2.299-1.751 2.724-2.044 1.924-1.428 3.093-2.272 2.612-1.901 5.885-4.247 12.591-9.024 1.477-1.065c1.169-.843 2.391-1.496 4.202-2.32a3.956 3.956 0 011.151-.319 2.462 2.462 0 011.219.144 2.23 2.23 0 011.415 2.4 13.69 13.69 0 01-1.61 4.82c-.229.408-.454.803-.679 1.195l-.683 1.174-.718 1.207-.785 1.294-1.044 1.69-1.229 1.965-2.901 4.608-1.511 2.43-.984 1.613-.508.848-.714 1.214-.333.579-.439.773-.442.788-.956 1.729-.627 1.14-1.12 2.056-1.302 2.418-1.338 2.515-1.405 2.671-2.301 4.429-2.629 5.111-9.349 18.324-3.35 6.597-3.12 6.182-2.913 5.81-2.136 4.292-1.749 3.538-1.954 3.983-1.87 3.847-1.543 3.206-1.741 3.653-1.448 3.071-1.414 3.03-1.157 2.503-.914 1.994-.68 1.494-.795 1.756-.528 1.173a797.702 797.702 0 00-2.627 5.908l-.558 1.273-1.104 2.535a778.815 778.815 0 00-1.619 3.773l-1.055 2.496c-9.065 21.571-15.988 41.481-20.914 60.776l-.281 1.112c-.067.266-.133.532-.198.799l-.191.798-.093.4-.181.801-.174.803-.085.402-.165.806-.159.81-.077.406-.149.815-.143.819-.137.825-.132.83-.125.836-.12.842-.057.423-.111.853-.054.429-.102.865-.05.435-.094.877-.045.443-.087.891-.081.901-.038.455-.073.917-.068.928-.063.94-.058.952-.053.965-.049.978-.043.992-.039 1.006-.034 1.021-.03 1.036-.025 1.051-.021 1.068-.023 1.634-.014 1.673-.005 1.714.002 1.166.011 1.786.011 1.217.025 1.863.021 1.269.052 2.604.048 2.014.037 1.372.082 2.818c.076 2.478.392 4.762.973 6.843l.176.622.159.541.142.465.128.394.113.328.1.267.06.147.056.123.051.102.046.081.043.063.021.025z" fill="#093F68"/><path d="M682.318 316.931l-10.042 28.419h28.359l-18.317-28.419z" fill="#080C20"/><path fill-rule="evenodd" clip-rule="evenodd" d="M672.276 346.309h28.359l.039.048a.961.961 0 00.801-1.477l-18.317-28.419a.953.953 0 00-.955-.432.958.958 0 00-.783.633l-10.041 28.371a.965.965 0 00.121.871.953.953 0 00.776.405zm26.603-1.918h-25.248l8.935-25.301 16.313 25.301z" fill="#093F68"/><path d="M786.898 217.397a14.693 14.693 0 00-7.112.124 34.593 34.593 0 00-19.511 15.025 10.075 10.075 0 013.294-9.757 15.488 15.488 0 00-13.145 7.752c-2.205 3.905-3.111 10.727-.162 14.555 2.597 3.358 7.341 2.744 10.013 5.421 1.661 1.67 2.253 7.676 3.131 9.988 2.234 6.035 4.878 11.907 7.312 17.865l53.035-9.921s-.888-13.25-2.864-24.082-9.469-24.409-22.126-18.978a10.54 10.54 0 00-3.036-3.713 20.317 20.317 0 00-8.829-4.279z" fill="#093F68"/><path fill-rule="evenodd" clip-rule="evenodd" d="M769.84 278.735a.955.955 0 00.878.595l.191-.01 53.025-9.978a.96.96 0 00.783-.96c-.007-.02-.034-.35-.081-.932-.26-3.216-1.141-14.14-2.831-23.256-1.317-7.119-5.059-15.975-11.597-19.496a12.827 12.827 0 00-11.006-.528 12.982 12.982 0 00-2.864-3.224 21.294 21.294 0 00-9.202-4.49 15.725 15.725 0 00-7.636.144 35.645 35.645 0 00-18.49 13.106 9.057 9.057 0 013.15-6.179.962.962 0 00-.61-1.698 16.385 16.385 0 00-13.965 8.232c-2.463 4.375-3.198 11.591-.086 15.62 1.571 2.046 3.838 2.78 5.84 3.429l.049.016a10.16 10.16 0 014.2 2.063c.884.897 1.531 3.877 2.008 6.071l.006.031c.222 1.201.522 2.387.898 3.55 1.359 3.65 2.888 7.285 4.379 10.828l.393.935c.872 2.047 1.728 4.09 2.568 6.131zm-18.585-47.724a14.464 14.464 0 019.918-7.033 11.11 11.11 0 00-1.833 8.808.955.955 0 00.773.729.952.952 0 00.955-.441 33.575 33.575 0 0118.957-14.613 13.702 13.702 0 016.682-.105 19.253 19.253 0 018.352 4.068 9.588 9.588 0 012.797 3.358.956.956 0 00.525.518c.235.099.5.099.735 0 3.675-1.583 7.102-1.544 10.185.115 5.947 3.205 9.44 11.783 10.614 18.153 1.728 9.096 2.625 20.034 2.864 23.123l-51.431 9.595c-.581-1.398-1.168-2.789-1.756-4.184l-.525-1.247c-1.642-3.809-3.312-7.752-4.773-11.686a28.454 28.454 0 01-.821-3.281l-.037-.171c-.608-2.776-1.23-5.612-2.492-6.881a11.592 11.592 0 00-4.964-2.543c-1.919-.614-3.742-1.199-4.964-2.782-2.548-3.301-1.937-9.662.239-13.5z" fill="#093F68"/><ellipse cx="764.873" cy="276.554" rx="7.494" ry="8.413" transform="rotate(-10.55 764.873 276.554)" fill="#080C20"/><path fill-rule="evenodd" clip-rule="evenodd" d="M756.591 278.169c.83 4.557 4.524 7.79 8.591 7.79.477.004.954-.041 1.422-.134a7.99 7.99 0 005.403-3.838c2.515-4.319 1.495-9.839-2.396-12.962a7.971 7.971 0 00-6.424-1.631c-4.573.854-7.551 5.69-6.596 10.775zm9.65 5.776c-3.551.652-7.044-2.092-7.789-6.131h.019c-.754-4.04 1.528-7.878 5.069-8.54a6.134 6.134 0 014.906 1.267 8.202 8.202 0 011.909 10.448 6.119 6.119 0 01-4.114 2.956z" fill="#093F68"/><path d="M795.632 298.711c16.17-3.023 26.937-25.791 23.969-41.785l-3.57 2.169s-12.276-10.401-14.385-22.903c0 0-3.446 8.175-17.726 11.591-15.54 3.703-24.876 2.11-24.876 2.11l4.229 24.908c2.968 15.956 16.227 26.942 32.359 23.91z" fill="#080C20"/><path fill-rule="evenodd" clip-rule="evenodd" d="M773.925 294.652a26.818 26.818 0 0016.438 5.517 30.081 30.081 0 005.412-.556c7.732-1.449 14.958-7.475 19.826-16.522 4.563-8.482 6.395-18.345 4.906-26.395a.952.952 0 00-1.432-.643l-2.968 1.823c-2.31-2.111-11.76-11.322-13.545-21.876a.953.953 0 00-1.823-.211c-.029.077-3.494 7.791-17.077 11.025-14.443 3.452-23.536 2.237-24.415 2.119a1.292 1.292 0 00-.069-.009.955.955 0 00-1.098 1.104l4.238 24.946a31.772 31.772 0 0011.607 19.678zm-9.698-20.014l-4.018-23.612c3.064.307 11.54.662 23.93-2.294 10.176-2.427 15.025-7.205 17.077-9.997 3.102 11.6 13.717 20.705 14.194 21.108a.951.951 0 001.117.086l2.358-1.439c.973 7.35-.831 16.062-4.935 23.737-4.592 8.539-11.331 14.2-18.49 15.543a25.406 25.406 0 01-20.38-4.643 29.875 29.875 0 01-10.853-18.489z" fill="#093F68"/><ellipse cx="768.905" cy="265.59" rx="2.711" ry="2.725" fill="#093F68"/><path d="M761.516 257.828a1.915 1.915 0 01-2.018-1.808 1.919 1.919 0 011.799-2.03l12.848-1.525a1.917 1.917 0 011.766.764 1.94 1.94 0 01.224 1.919 1.925 1.925 0 01-1.541 1.155l-12.848 1.525h-.23z" fill="#093F68"/><path fill-rule="evenodd" clip-rule="evenodd" d="M758.3 269.399a3.747 3.747 0 003.713 3.31l.496-.028 12.409-1.507a3.757 3.757 0 003.265-4.183l-.955-7.762a.955.955 0 00-1.059-.835l-17.993 2.178a.951.951 0 00-.831 1.065l.955 7.762zm1.899-.211l-.821-6.802 16.132-1.967.821 6.802a1.84 1.84 0 01-1.604 2.044l-12.495 1.525a1.793 1.793 0 01-1.352-.37 1.815 1.815 0 01-.681-1.232z" fill="#093F68"/><path d="M747.418 277.708h-75.782a3.07 3.07 0 00-2.543 1.349 3.104 3.104 0 00-.32 2.873l20.494 53.048h82.406l-21.392-55.322a3.083 3.083 0 00-2.863-1.948z" fill="#080C20"/><path fill-rule="evenodd" clip-rule="evenodd" d="M689.286 335.938h82.377a.963.963 0 00.878-1.305L751.15 279.31a4.008 4.008 0 00-3.751-2.561h-75.763a4.03 4.03 0 00-3.314 1.781 4.076 4.076 0 00-.418 3.755l20.494 53.039a.955.955 0 00.888.614zm80.984-1.919h-80.325l-20.285-52.473a2.141 2.141 0 01.24-1.958 2.115 2.115 0 011.736-.92h75.782a2.12 2.12 0 011.976 1.343l20.876 54.008z" fill="#093F68"/><path d="M744.43 282.832l-68.384-.077 19.33 49.182 68.145.067-19.091-49.172z" fill="#080C20"/><path fill-rule="evenodd" clip-rule="evenodd" d="M695.376 332.906l68.145.067a.953.953 0 00.783-.451.964.964 0 00.105-.892l-19.091-49.182a.955.955 0 00-.888-.614l-68.384-.067a.95.95 0 00-.792.422.962.962 0 00-.095.892l19.329 49.22a.955.955 0 00.888.605zm66.751-1.852l-66.102-.067-18.575-47.263 66.331.067 18.346 47.263z" fill="#093F68"/><path fill-rule="evenodd" clip-rule="evenodd" d="M731.984 293.701a5.345 5.345 0 004.943 3.331c2.924-.016 5.299-2.377 5.346-5.316a5.376 5.376 0 00-3.26-5.005 5.327 5.327 0 00-5.845 1.128 5.393 5.393 0 00-1.184 5.862zm1.507-2.049a3.446 3.446 0 013.436-3.438 3.475 3.475 0 013.437 3.502c-.027 1.901-1.577 3.424-3.468 3.406a3.445 3.445 0 01-3.405-3.47z" fill="#093F68"/><path d="M741.318 303.882a.945.945 0 01-.448-.115l-24.647-13.432-17.602 13.317a.953.953 0 01-1.527-.649.966.966 0 01.372-.886l18.137-13.692a.951.951 0 011.031-.076l25.181 13.691a.962.962 0 01.471 1.082.956.956 0 01-.93.722l-.038.038z" fill="#093F68"/><rect x="665.346" y="345.35" width="187.396" height="8.933" rx="3.53" fill="#093F68"/><path fill-rule="evenodd" clip-rule="evenodd" d="M668.773 355.242h180.6c2.39 0 4.328-1.944 4.333-4.346v-2.15c-.005-2.403-1.942-4.35-4.333-4.355h-180.6c-2.391.005-4.329 1.952-4.334 4.355v2.15c.005 2.402 1.944 4.346 4.334 4.346zm-2.425-6.496a2.432 2.432 0 012.425-2.437h180.6c.643 0 1.26.257 1.714.714.455.457.71 1.077.71 1.723v2.15a2.43 2.43 0 01-2.424 2.427h-180.6a2.432 2.432 0 01-2.425-2.427v-2.15z" fill="#093F68"/><path d="M727.487 303.719l-3.961 6.131-1.222 5.258.506.384 4.343-3.339 4.257-5.815-3.923-2.619z" fill="#093F68"/><path fill-rule="evenodd" clip-rule="evenodd" d="M722.237 316.259a.948.948 0 00.573.192.951.951 0 00.601-.192l4.353-3.339.191-.192 4.219-5.795a.964.964 0 00-.239-1.372l-3.923-2.619a.95.95 0 00-.716-.144.953.953 0 00-.611.422l-3.961 6.131a1.12 1.12 0 00-.134.307l-1.212 5.258a.96.96 0 00.353.959l.506.384zm1.384-2.6l.792-3.425 3.37-5.181 2.281 1.535-3.579 4.893-2.864 2.178z" fill="#093F68"/><path d="M745.022 303.546s.363-8.548-2.864-9.45c-3.226-.902-9.851-2.706-11.645 0-1.795 2.705-6.272 7.944-5.021 10.909 1.25 2.964 13.44 9.422 13.44 9.422l14.242 17.27 15.731-17.597-23.883-10.554z" fill="#080C20"/><path fill-rule="evenodd" clip-rule="evenodd" d="M752.467 332.263a.954.954 0 00.707.345.95.95 0 00.735-.326l15.731-17.587a.964.964 0 00.219-.844.956.956 0 00-.553-.681l-23.291-10.238c.038-2.427-.172-8.798-3.58-9.757-3.408-.96-10.49-2.936-12.695.383-.306.461-.688.998-1.108 1.583l-.22.306c-2.192 3.043-5.035 6.99-3.779 9.932 1.298 3.041 11.283 8.51 13.707 9.806l14.127 17.078zm-21.162-37.668c.496-.701 1.623-.96 2.978-.96 2.572.136 5.12.578 7.589 1.315 1.718.479 2.3 5.257 2.167 8.491a.96.96 0 00.572.959l22.671 9.969-14.108 15.783-13.536-16.368a1.156 1.156 0 00-.286-.24c-4.591-2.437-12.218-6.995-13.011-8.942-.792-1.948 2.091-5.968 3.819-8.367l.191-.269c.357-.501.686-.964.954-1.371z" fill="#093F68"/><path d="M737.672 288.579l-9.078 13.691s1.451 2.428 3.751 2.293l8.973-13.806s-2.1-3.118-3.646-2.178z" fill="#093F68"/><path fill-rule="evenodd" clip-rule="evenodd" d="M727.774 302.713c.085.138 1.696 2.771 4.38 2.771l.21-.009a.953.953 0 00.735-.432l9.021-13.72a.965.965 0 000-1.075c-.267-.393-2.721-3.866-4.973-2.485a.78.78 0 00-.296.288l-9.078 13.634a.966.966 0 000 1.027l.001.001zm4.065.824a3.6 3.6 0 01-2.08-1.344l8.524-12.827c.458 0 1.269.671 1.909 1.467l-8.353 12.704z" fill="#093F68"/><path d="M723.268 314.052l-1.928 2.879 1.928-2.879zm-1.928 3.838a.944.944 0 01-.535-.163.963.963 0 01-.258-1.324l1.909-2.878a.953.953 0 011.327-.259.963.963 0 01.258 1.333l-1.909 2.879a.954.954 0 01-.792.412z" fill="#093F68"/><path d="M835.246 354.513l-9.928-54.162a72.114 72.114 0 01-.792-.959 9.798 9.798 0 00-6.806-2.754h-38.105c-1.041 0-4.878-.499-11.025 4.682-8.878 7.494-21.478 16.906-28.112 23.296l5.67 28.784c1.117.269 19.301-8.088 19.301-8.088l1.795 9.162 68.002.039z" fill="#080C20"/><path fill-rule="evenodd" clip-rule="evenodd" d="M767.244 355.472h67.973a.96.96 0 00.954-1.132l-9.917-54.19a.967.967 0 00-.21-.441l-.451-.506a26.8 26.8 0 00-.408-.454 10.712 10.712 0 00-7.465-3.022h-38.354l-.011-.001c-1.488-.038-5.407-.14-11.395 4.904-3.322 2.811-7.226 5.948-11.045 8.98l-1.033.831c-6.03 4.849-12.136 9.758-16.082 13.561a.963.963 0 00-.276.873l5.67 28.784a.957.957 0 00.716.748l.038.001c.424.01 1.915.045 18.776-7.676l1.565 7.973a.955.955 0 00.955.767zm66.856-1.919h-66.074l-1.67-8.357a.96.96 0 00-.498-.667.95.95 0 00-.829-.023c-7.302 3.367-15.53 6.965-18.136 7.819l-5.374-27.344c4.123-3.905 10.461-8.981 16.599-13.884l.226-.18c3.738-2.985 7.582-6.054 10.856-8.819 5.307-4.475 8.677-4.466 10.032-4.462h38.507a8.791 8.791 0 016.09 2.428l.611.719 9.66 52.77z" fill="#093F68"/><path d="M740.478 324.626l-39.842 4.72s-9.45-9.268-11.455-8.913c-2.005.355.134 7.292.134 7.292s-7.074-4.798-8.324-.672-.955 11.84.802 14.181c1.756 2.341 9.058 3.262 21 2.571l42.238 3.378-4.553-22.557z" fill="#080C20"/><path fill-rule="evenodd" clip-rule="evenodd" d="M744.946 348.142h.076a.963.963 0 00.926-1.151l-4.544-22.557a.955.955 0 00-1.04-.768l-39.423 4.682c-3.713-3.607-9.86-9.23-11.941-8.846a1.75 1.75 0 00-1.194.845c-.706 1.17-.41 3.54 0 5.401-1.68-.844-4.047-1.736-5.784-1.113a3.124 3.124 0 00-1.909 2.149c-1.317 4.318-1.088 12.378.954 15.045 2.043 2.667 9.298 3.655 21.707 2.945l42.172 3.368zm-42.086-5.296h-.105c-15.96.921-19.406-1.238-20.151-2.197-1.498-1.967-1.861-9.307-.649-13.318a1.21 1.21 0 01.764-.902c1.46-.508 4.524 1.008 6.118 2.092a.95.95 0 001.105-.02.96.96 0 00.346-1.054c-.821-2.581-1.155-5.373-.821-6.045 1.346.297 6.424 4.634 10.5 8.635a.956.956 0 00.783.269l38.974-4.625 4.114 20.437-40.978-3.272z" fill="#093F68"/><path d="M765.449 346.309a.955.955 0 01-.915-.741.963.963 0 01.495-1.072l13.631-6.726a.953.953 0 011.403.915.96.96 0 01-.553.803l-13.631 6.773a.939.939 0 01-.43.048zm-65.539-26.49a.957.957 0 01-.955-.653l-9.669-28.668a.963.963 0 01.15-.985.95.95 0 011.654.371l9.45 27.987 19.501-.729c.528 0 .955.429.955.959s-.427.96-.955.96l-20.207.758h.076z" fill="#093F68"/><path d="M707.222 316.451a.954.954 0 01-.897-.614l-4.43-11.773a.96.96 0 01.554-1.237.953.953 0 011.231.556l4.43 11.773a.96.96 0 01-.554 1.238c-.108.037-.22.057-.334.057z" fill="#093F68"/><path fill-rule="evenodd" clip-rule="evenodd" d="M700.635 344.4h6.587a.956.956 0 00.954-.959v-15.169c0-.53-.427-.96-.954-.96h-6.587a.957.957 0 00-.954.96v15.169c0 .53.427.959.954.959zm5.632-1.919h-4.677v-13.25h4.677v13.25z" fill="#093F68"/><path fill-rule="evenodd" clip-rule="evenodd" d="M699.347 335.65c0 2.543 2.051 4.605 4.582 4.605 2.53 0 4.582-2.062 4.582-4.605 0-2.544-2.052-4.606-4.582-4.606-2.531 0-4.582 2.062-4.582 4.606zm1.909 0a2.68 2.68 0 012.673-2.687v.01a2.68 2.68 0 012.672 2.677 2.678 2.678 0 01-2.672 2.686 2.68 2.68 0 01-2.673-2.686z" fill="#093F68"/><path d="M753.88 322.419a7.687 7.687 0 01-1.69-.182 8.653 8.653 0 01-5.164-3.579.964.964 0 01.306-1.324.952.952 0 011.317.307 6.767 6.767 0 003.971 2.725c1.909.422 4.085-.154 6.395-1.689a7.024 7.024 0 003.313-4.557c.572-3.167-1.556-6.151-1.585-6.179a.969.969 0 01-.105-.959.954.954 0 011.651-.183c.105.153 2.625 3.655 1.91 7.676a8.844 8.844 0 01-4.153 5.843 11.192 11.192 0 01-6.166 2.101zm-.706 28.362a.957.957 0 01-.907-.662l-9.231-28.353a.96.96 0 01.611-1.208.953.953 0 011.203.614l9.23 28.352a.96.96 0 01-.601 1.209 1.17 1.17 0 01-.305.048z" fill="#093F68"/><path fill-rule="evenodd" clip-rule="evenodd" d="M680.533 259.843h50.877c.527 0 .954-.43.954-.959v-41.862a.956.956 0 00-.954-.959h-50.877a.956.956 0 00-.955.959v41.862c0 .529.427.959.955.959zm49.922-1.919h-48.968v-39.942h48.968v39.942z" fill="#093F68"/><path fill-rule="evenodd" clip-rule="evenodd" d="M691.682 247.274h21c.527 0 .954-.43.954-.959v-21.109a.957.957 0 00-.954-.959h-21a.958.958 0 00-.955.959v21.109c0 .529.428.959.955.959zm20.045-1.919h-19.091v-19.189h19.091v19.189z" fill="#093F68"/><path fill-rule="evenodd" clip-rule="evenodd" d="M699.824 240.91c.009 6.955 5.624 12.587 12.543 12.581a12.5 12.5 0 008.866-3.703 12.636 12.636 0 003.658-8.923c-.016-6.955-5.636-12.581-12.556-12.569-6.919.012-12.52 5.659-12.511 12.614zm2.717-4.091a10.626 10.626 0 019.826-6.595c5.847.011 10.588 4.764 10.614 10.641a10.679 10.679 0 01-6.534 9.894 10.583 10.583 0 01-11.592-2.295 10.72 10.72 0 01-2.314-11.645z" fill="#093F68"/><path d="M725.847 137.893c3.944 4.948-6.847 15.116-11.937 9.518-5.99-6.579 8.133-14.291 11.937-9.518z" fill="#080C20"/><path fill-rule="evenodd" clip-rule="evenodd" d="M713.254 147.999a5.624 5.624 0 004.311 1.93 10.001 10.001 0 006.218-2.614c3.157-2.702 5.116-6.992 2.746-9.966-1.215-1.527-3.288-2.123-5.911-1.667-3.359.579-7.565 3.07-8.746 6.527a5.54 5.54 0 001.382 5.79zm7.652-10.615a8.012 8.012 0 011.329-.123 3.623 3.623 0 012.921 1.149c1.653 2.088-.035 5.422-2.518 7.545-2.484 2.123-5.938 3.202-8.09.834a3.86 3.86 0 01-1.014-4.036c.831-2.439 4.066-4.79 7.372-5.369zM667.229 11.99c.092.013.186.013.279 0 .203.006.4-.06.56-.184l1.828-1.57a.88.88 0 00.21-1.088c-.464-.85-4.592-8.308-8.483-7.483-2.073.438-2.685 1.456-2.834 2.246a2.989 2.989 0 001.207 2.895 4.37 4.37 0 001.251.456c1.653.456 4.731 1.307 5.404 4.106a.877.877 0 00.578.623zm-5.23-8.623h.254c1.757 0 4.372 3.263 5.972 5.992l-.314.263c-1.373-2.763-4.525-3.647-6.161-4.106l-.031-.009a8.452 8.452 0 01-.429-.131 1.963 1.963 0 00-.305-.088 1.29 1.29 0 01-.473-1.044c.07-.377.612-.693 1.487-.877z" fill="#093F68"/><path d="M668.085 104.16h19.283a22.257 22.257 0 0115.763 6.55 22.402 22.402 0 016.529 15.813v39.979h-63.866v-39.988c.005-12.347 9.984-22.354 22.291-22.354z" fill="#080C20"/><path fill-rule="evenodd" clip-rule="evenodd" d="M645.794 167.379h63.901a.875.875 0 00.839-.877v-39.988c-.014-12.828-10.379-23.221-23.166-23.231h-19.239a23.15 23.15 0 00-16.401 6.793 23.299 23.299 0 00-6.808 16.438v39.988c0 .484.391.877.874.877zm63.026-1.755h-62.151l.043-39.11c.015-11.858 9.596-21.467 21.417-21.476h19.239c11.835-.01 21.438 9.604 21.452 21.476v39.11z" fill="#093F68"/><path d="M698.055 149.184a.876.876 0 01-.874-.878v-31.223a.875.875 0 111.749 0v31.197a.878.878 0 01-.875.904zm-38.776 18.195a.876.876 0 01-.874-.877v-49.419a.875.875 0 111.749 0v49.392a.874.874 0 01-.875.904z" fill="#093F68"/><path d="M690.193 127.891h-24.897l-6.017 5.834v32.777h36.931v-32.777l-6.017-5.834z" fill="#093F68"/><path fill-rule="evenodd" clip-rule="evenodd" d="M659.279 167.379h36.931c.473 0 .86-.377.874-.851v-32.776a.876.876 0 00-.262-.632l-6.025-5.834a.874.874 0 00-.604-.246h-24.897a.872.872 0 00-.603.246l-6.026 5.834a.876.876 0 00-.262.632v32.75c0 .484.391.877.874.877zm36.056-1.755h-35.181v-31.521l5.501-5.334h24.18l5.5 5.334v31.521z" fill="#093F68"/><path d="M665.296 130.313a.877.877 0 01-.875-.878V104.16a.876.876 0 111.749 0v25.275a.876.876 0 01-.874.878zm25.037 0a.877.877 0 01-.875-.878V104.16c0-.484.392-.877.875-.877s.875.393.875.877v25.275a.877.877 0 01-.875.878z" fill="#093F68"/><path d="M641.019 97.01c.945 2.097 2.965 2.79 6.481 2.632 7.555-.35 15.199 0 22.737 0h41.723c2.483 0 3.76-1.22 3.9-3.737.621-10.852 0-21.547-.708-32.364-.595-9.738-1.915-19.722-6.804-28.346-9.436-16.668-34.709-24.266-45.649-10.01 0 0-7.81-2.632-15.217 6.545-6.069 7.501-6.646 17.467-6.751 26.688l-.394 34.276a10.66 10.66 0 00.682 4.316z" fill="#080C20"/><path fill-rule="evenodd" clip-rule="evenodd" d="M640.189 97.37c1.189 2.641 3.725 3.176 6.261 3.176.359 0 .691-.018 1.049-.044 5.09-.237 10.302-.167 15.348-.097 2.466.071 4.924.071 7.381.071h41.723c2.956-.009 4.6-1.58 4.775-4.562.621-10.888-.053-21.845-.709-32.46-.559-9.169-1.827-19.749-6.917-28.724-5.623-9.913-16.965-17.09-28.229-17.88-7.687-.526-14.237 2.045-18.514 7.309-2.063-.412-8.981-1.132-15.566 7.018-6.209 7.65-6.839 17.634-6.943 27.197l-.394 34.285a11.252 11.252 0 00.735 4.711zm7.958-65.114c4.512-5.58 9.086-6.58 11.806-6.58a8.515 8.515 0 012.466.316.872.872 0 00.97-.298c3.892-5.07 10.057-7.58 17.359-7.08 10.704.746 21.487 7.571 26.83 16.994 4.898 8.676 6.113 18.546 6.699 27.977.7 11.036 1.321 21.45.7 32.24-.114 2.036-.997 2.914-3.026 2.914h-41.723c-1.223 0-2.446-.018-3.671-.035a250.825 250.825 0 00-3.684-.036c-5.072-.07-10.31-.14-15.452.097-4.032.184-5.09-.904-5.632-2.114a9.675 9.675 0 01-.586-3.975l.394-34.276c.104-9.255.69-18.906 6.55-26.144z" fill="#093F68"/><path d="M672.449 104.16h10.276v5.905a4.38 4.38 0 01-4.373 4.386h-1.548a4.38 4.38 0 01-4.372-4.386v-5.931l.017.026z" fill="#080C20"/><path fill-rule="evenodd" clip-rule="evenodd" d="M676.813 115.328h1.548c2.891-.009 5.23-2.363 5.23-5.263v-5.931a.876.876 0 00-.875-.877h-10.275a.876.876 0 00-.875.877v5.931c0 2.907 2.349 5.263 5.247 5.263zm-3.489-5.263v-5.045l8.544-.009v5.054a3.503 3.503 0 01-3.498 3.509h-1.548a3.503 3.503 0 01-3.498-3.509z" fill="#093F68"/><ellipse cx="648.217" cy="77.376" rx="9.987" ry="8.633" fill="#080C20"/><path fill-rule="evenodd" clip-rule="evenodd" d="M637.355 77.376c0 5.246 4.871 9.51 10.862 9.51 5.981 0 10.861-4.263 10.861-9.51 0-5.246-4.871-9.51-10.861-9.51-5.991 0-10.862 4.264-10.862 9.51zm1.749 0c0-4.246 4.084-7.755 9.113-7.755 5.046 0 9.112 3.509 9.112 7.755s-4.084 7.756-9.112 7.756c-5.029 0-9.113-3.51-9.113-7.756z" fill="#093F68"/><ellipse cx="706.424" cy="77.376" rx="9.987" ry="8.633" fill="#080C20"/><path fill-rule="evenodd" clip-rule="evenodd" d="M695.572 77.376c0 5.246 4.871 9.51 10.852 9.51 5.991 0 10.862-4.263 10.862-9.51 0-5.246-4.924-9.51-10.862-9.51s-10.852 4.264-10.852 9.51zm1.749 0c0-4.246 4.084-7.755 9.103-7.755 5.029 0 9.113 3.509 9.113 7.755s-4.093 7.756-9.113 7.756c-5.019 0-9.103-3.51-9.103-7.756z" fill="#093F68"/><path d="M695.904 51.768l-9.742-12.563s-2.195 7.738-3.542 12.528l-15.365-.044-3.621-11.221-4.25 11.194h-11.911V75.35a30.256 30.256 0 008.816 21.364 30.064 30.064 0 0021.294 8.85c16.634 0 30.118-13.527 30.118-30.214V51.803l-11.797-.035z" fill="#080C20"/><path fill-rule="evenodd" clip-rule="evenodd" d="M646.599 75.297c.014 17.162 13.876 31.072 30.984 31.092 17.105-.02 30.968-13.923 30.992-31.083V51.812a.875.875 0 00-.874-.878h-11.369l-9.479-12.23a.874.874 0 00-1.54.299s-2.002 7.018-3.323 11.8l-14.053-.044-3.428-10.616a.875.875 0 00-.805-.605.874.874 0 00-.874.562l-4.049 10.632h-11.308a.875.875 0 00-.874.878v23.687zm1.749.017v-22.81l11.036.036a.875.875 0 00.814-.562l3.375-8.87 2.86 8.853a.875.875 0 00.822.605l15.295.044a.875.875 0 00.875-.64c.514-1.825 1.15-4.074 1.741-6.162l1.328-4.7 8.719 11.239a.87.87 0 00.682.333h10.931v22.634c.183 10.601-5.349 20.476-14.471 25.829a29.162 29.162 0 01-29.535 0c-9.122-5.353-14.655-15.228-14.472-25.829z" fill="#093F68"/><path fill-rule="evenodd" clip-rule="evenodd" d="M653.959 77.235a10.72 10.72 0 009.911 6.633c5.916-.01 10.708-4.82 10.713-10.755 0-4.352-2.613-8.274-6.62-9.938a10.698 10.698 0 00-11.686 2.335 10.782 10.782 0 00-2.318 11.725zm1.615-7.562a8.972 8.972 0 018.296-5.553c4.947.01 8.955 4.03 8.964 8.992a9 9 0 01-5.535 8.324 8.951 8.951 0 01-9.782-1.95 9.022 9.022 0 01-1.943-9.813zm25.818 7.562a10.722 10.722 0 009.912 6.633c5.916-.01 10.708-4.82 10.713-10.755 0-4.352-2.614-8.274-6.621-9.938a10.696 10.696 0 00-11.685 2.335 10.78 10.78 0 00-2.319 11.725zm1.615-7.562a8.972 8.972 0 018.297-5.553c4.948.005 8.959 4.028 8.964 8.992a9.003 9.003 0 01-5.535 8.324 8.951 8.951 0 01-9.782-1.95 9.021 9.021 0 01-1.944-9.813z" fill="#093F68"/><ellipse cx="664.797" cy="73.7" rx="2.79" ry="2.799" fill="#093F68"/><ellipse cx="689.616" cy="73.112" rx="2.79" ry="2.799" fill="#093F68"/><path d="M677.084 83.263a17.865 17.865 0 01-2.719-.228.892.892 0 01.306-1.755c1.365.233 2.758.248 4.127.044.167-.807-.874-3.799-2.352-6.606a.882.882 0 01.372-1.189.877.877 0 011.185.373c.97 1.877 3.157 6.44 2.361 8.23-.183.435-.558.76-1.015.876a9.33 9.33 0 01-2.265.255zm-20.988-20.055a1.754 1.754 0 01-1.858-1.645 1.755 1.755 0 011.639-1.864l13.197-1.65a1.763 1.763 0 011.967 1.535 1.767 1.767 0 01-1.53 1.974l-13.196 1.65h-.219zm41.312.359a1.84 1.84 0 01-.315 0l-13.118-2.395a1.758 1.758 0 01.63-3.456l13.118 2.404a1.76 1.76 0 011.596 1.908 1.758 1.758 0 01-1.902 1.6l-.009-.06zm-18.155 30.706a19.334 19.334 0 01-13.73-5.86.88.88 0 01.1-1.204.872.872 0 011.203.037c.333.368 8.273 9.045 20.56 3.386a.875.875 0 011.24.879.878.878 0 01-.505.718 21.058 21.058 0 01-8.868 2.044zm2.204-21.599a.872.872 0 01-.499-.158 5.73 5.73 0 00-6.795 0 .87.87 0 01-1.233-.158.88.88 0 01.149-1.228 7.519 7.519 0 018.885 0 .88.88 0 01.219 1.22.874.874 0 01-.726.324zM653.962 71.2a1.095 1.095 0 01-.236 0l-5.746-1.58a.879.879 0 01-.439-1.507.873.873 0 01.903-.177l5.746 1.57a.884.884 0 01-.228 1.755V71.2zm47.617 0a.884.884 0 01-.227-1.755l5.746-1.57a.871.871 0 01.909.175.876.876 0 01-.455 1.51l-5.745 1.579a.959.959 0 01-.228.061z" fill="#093F68"/><path d="M650.639 35.002c4.679-1.228 14.867-7.553 22.388-8.378 7.52-.825 25.238 1.228 30.529-1.632s6.917-13.063-.813-20.415c-7.731-7.351-29.734.413-43.962 8.773-14.228 8.361-19.537 10.002-19.336 15.722.202 5.72 6.489 7.15 11.194 5.93z" fill="#080C20"/><path fill-rule="evenodd" clip-rule="evenodd" d="M641.264 34.467a10.47 10.47 0 006.183 1.816c1.141.01 2.279-.129 3.384-.412a51.11 51.11 0 007.259-3c4.643-2.159 10.424-4.843 15.006-5.343 3.677-.241 7.364-.282 11.045-.123l.352.006c7.865.139 15.932.281 19.447-1.62 2.554-1.378 4.355-4.3 4.819-7.808.673-5.01-1.321-10.124-5.448-14.037-8.483-8.071-31.561.763-45.003 8.659-2.428 1.42-4.584 2.646-6.513 3.744l-.605.344c-9.078 5.123-12.829 7.246-12.646 12.414a6.748 6.748 0 002.72 5.36zm42.125-30.556a42.106 42.106 0 019.944-1.404c3.463 0 6.672.71 8.815 2.71 3.708 3.528 5.5 8.125 4.914 12.511-.419 2.983-1.854 5.378-3.917 6.492-3.178 1.703-11.469 1.546-18.834 1.406l-.1-.002a101.48 101.48 0 00-11.272.132c-4.839.523-10.725 3.254-15.479 5.46l-.07.031a50.766 50.766 0 01-6.996 2.904c-2.982.781-6.156.351-8.08-1.088a4.997 4.997 0 01-2.02-4.018c-.149-4.079 3.095-5.93 11.753-10.843l1.102-.626a412.1 412.1 0 006.043-3.48 97.901 97.901 0 0124.197-10.185z" fill="#093F68"/><path d="M657.845 166.563c-3.078 2.825-9.934 4.895-13.345-.877-3.41-5.773-10.223-30.548-10.223-30.548l7.984-7.211 15.934 26.24c2.195 3.719 2.728 9.58-.35 12.396z" fill="#080C20"/><path fill-rule="evenodd" clip-rule="evenodd" d="M649.493 170.142a9.45 9.45 0 001.312.097 11.91 11.91 0 007.635-3.018c3.384-3.106 2.903-9.431.507-13.537l-15.942-26.24a.876.876 0 00-1.33-.193l-7.984 7.211a.882.882 0 00-.254.878l.017.06c.459 1.658 6.908 24.942 10.285 30.698a7.956 7.956 0 005.754 4.044zm-4.241-4.921c-3.043-5.203-8.981-26.232-9.987-29.829l6.804-6.141 15.382 25.328c2.056 3.509 2.44 8.905-.183 11.344a9.863 9.863 0 01-7.504 2.482 6.12 6.12 0 01-4.512-3.184z" fill="#093F68"/><path d="M628.025 114.612l6.852-2.532 3.122 8.504-6.852 2.532-3.122-8.504z" fill="#080C20"/><path fill-rule="evenodd" clip-rule="evenodd" d="M630.333 123.417a.873.873 0 00.822.57.855.855 0 00.306-.079l6.847-2.535a.877.877 0 00.516-1.123l-3.122-8.51a.876.876 0 00-.454-.491.87.87 0 00-.665 0l-6.847 2.535a.878.878 0 00-.525 1.123l3.122 8.51zm1.338-1.43l-2.51-6.86 5.238-1.93 2.519 6.86-5.247 1.93z" fill="#093F68"/><path d="M634.434 112.24a7.684 7.684 0 00-.769-5.676c-2.624-4.676-5.116 1.307-7.775-7.896 0 0-3.638 5.448-2.142 9.896 1.626 4.887 5.055 5.791 5.055 5.791l5.631-2.115z" fill="#080C20"/><path fill-rule="evenodd" clip-rule="evenodd" d="M628.558 115.197a.883.883 0 00.218 0 .936.936 0 00.35 0l5.632-2.079a.881.881 0 00.525-.562 8.512 8.512 0 00-.875-6.369 4.31 4.31 0 00-3.839-2.632l-.005-.001c-1.231-.14-2.446-.278-3.851-5.14a.876.876 0 00-.7-.623.874.874 0 00-.875.377c-.157.237-3.856 5.861-2.247 10.668 1.758 5.273 5.501 6.361 5.667 6.361zm-4.014-6.94c-.857-2.57.245-5.597 1.119-7.448h.026c1.408 3.772 2.921 4.264 4.679 4.422a2.624 2.624 0 012.51 1.754 6.936 6.936 0 01.787 4.588l-4.897 1.817c-.726-.299-3-1.474-4.224-5.133z" fill="#093F68"/><path d="M631.846 122.856c1.233 4.325 2.877 9.36 4.836 14.686 3.892 10.615 7.984 19.546 10.695 23.687l2.947-1.088c-.629-4.93-3.288-14.388-7.188-25.003-1.959-5.325-3.962-10.229-5.816-14.326l-5.474 2.044z" fill="#080C20"/><path fill-rule="evenodd" clip-rule="evenodd" d="M646.643 161.729a.873.873 0 00.734.395.876.876 0 00.306-.079l2.956-1.097a.876.876 0 00.551-.903c-.656-5.185-3.428-14.836-7.232-25.188-1.889-5.158-3.909-10.133-5.842-14.388a.874.874 0 00-1.102-.465l-5.474 2.027a.877.877 0 00-.534 1.07c1.277 4.483 2.956 9.589 4.854 14.748 3.787 10.352 7.932 19.494 10.783 23.88zm-9.139-24.486c-1.775-4.825-3.358-9.588-4.591-13.843l3.944-1.465a204.95 204.95 0 015.457 13.528c3.603 9.79 6.261 18.905 7.048 24.117l-1.626.596c-2.764-4.509-6.638-13.142-10.232-22.933z" fill="#093F68"/><path d="M630.257 130.099a1.715 1.715 0 011.016-2.199l5.785-2.138a1.714 1.714 0 111.189 3.217l-5.786 2.137a1.715 1.715 0 01-2.204-1.017z" fill="#080C20"/><path fill-rule="evenodd" clip-rule="evenodd" d="M630.753 131.927a2.388 2.388 0 001.827.07l6.131-2.272a2.39 2.39 0 001.338-1.246 2.34 2.34 0 00.07-1.833l-.131-.369a2.404 2.404 0 00-3.07-1.421l-6.122 2.281a2.396 2.396 0 00-1.416 3.07l.14.378a2.356 2.356 0 001.233 1.342zm6.803-5.422a.71.71 0 01.228-.044c.08.002.16.016.236.044a.642.642 0 01.332.36l.14.377a.614.614 0 010 .483.584.584 0 01-.358.333l-6.122 2.281a.64.64 0 01-.49 0 .703.703 0 01-.332-.36l-.131-.377a.64.64 0 01.376-.825l6.121-2.272z" fill="#093F68"/><path d="M640.15 124.567a1.589 1.589 0 012.041.942l2.472 6.733a1.588 1.588 0 01-2.981 1.095l-2.472-6.733a1.588 1.588 0 01.94-2.037z" fill="#080C20"/><path fill-rule="evenodd" clip-rule="evenodd" d="M640.862 133.655a2.485 2.485 0 002.309 1.615 2.61 2.61 0 00.857-.15 2.475 2.475 0 001.46-3.175l-2.466-6.721a2.457 2.457 0 00-1.286-1.395 2.494 2.494 0 00-1.88-.078 2.46 2.46 0 00-1.389 1.283 2.473 2.473 0 00-.071 1.892l2.466 6.729zm-.402-8.299a.774.774 0 01.245 0 .668.668 0 01.297.096c.174.079.31.224.376.404l2.484 6.668c.094.27.017.57-.195.762a.706.706 0 01-.776.115.69.69 0 01-.367-.404l-2.467-6.72a.703.703 0 010-.544.74.74 0 01.403-.377z" fill="#093F68"/><path d="M631.443 133.325a1.714 1.714 0 011.015-2.199l5.786-2.138a1.715 1.715 0 011.188 3.217l-5.786 2.137a1.713 1.713 0 01-2.203-1.017z" fill="#080C20"/><path fill-rule="evenodd" clip-rule="evenodd" d="M630.7 133.804a2.39 2.39 0 002.239 1.562c.269-.001.536-.052.787-.149l6.165-2.272a2.407 2.407 0 001.417-3.08l-.14-.368a2.401 2.401 0 00-3.069-1.421l-6.122 2.281a2.406 2.406 0 00-1.417 3.07l.14.377zm8.046-4.123a.614.614 0 01.218 0c.097 0 .192.021.28.062a.614.614 0 01.333.359l.139.377a.64.64 0 01-.376.816l-6.165 2.281a.616.616 0 01-.813-.386l-.14-.368a.643.643 0 010-.491.668.668 0 01.358-.334l6.166-2.316z" fill="#093F68"/><path d="M632.619 136.542a1.714 1.714 0 011.015-2.199l5.786-2.138a1.716 1.716 0 011.189 3.217l-5.786 2.138a1.715 1.715 0 01-2.204-1.018z" fill="#080C20"/><path fill-rule="evenodd" clip-rule="evenodd" d="M633.123 138.366c.312.147.652.222.997.22.295.007.589-.044.865-.149l6.122-2.273a2.406 2.406 0 001.417-3.07l-.14-.377a2.395 2.395 0 00-3.061-1.422l-6.165 2.281a2.407 2.407 0 00-1.417 3.071l.14.377c.218.596.665 1.08 1.242 1.342zm6.803-5.448a.657.657 0 01.219-.044.632.632 0 01.569.404l.139.377a.628.628 0 01-.376.816l-6.121 2.281a.609.609 0 01-.481 0 .665.665 0 01-.332-.36l-.14-.377a.643.643 0 010-.491.696.696 0 01.358-.333l6.165-2.273z" fill="#093F68"/><path d="M633.813 139.757a1.714 1.714 0 011.015-2.199l5.785-2.138a1.714 1.714 0 111.189 3.216l-5.786 2.138a1.713 1.713 0 01-2.203-1.017z" fill="#080C20"/><path fill-rule="evenodd" clip-rule="evenodd" d="M633.062 140.244a2.385 2.385 0 002.238 1.561c.281.002.56-.049.822-.149l6.122-2.272a2.374 2.374 0 001.344-1.24 2.395 2.395 0 00.073-1.83l-.14-.378a2.386 2.386 0 00-3.061-1.421l-6.122 2.281a2.398 2.398 0 00-1.408 3.071l.132.377zm8.045-4.115a.67.67 0 01.219 0 .648.648 0 01.603.36l.131.377a.633.633 0 01-.376.816l-6.121 2.281a.631.631 0 01-.49 0 .665.665 0 01-.332-.36l-.14-.377a.64.64 0 01.384-.824l6.122-2.273z" fill="#093F68"/><path d="M720.6 124.663c-6.699-2.536-20.219-4.194-31.876 7.72s-7.696 26.319 4.617 32.004c12.314 5.685 22.843 2.948 25.283-4.772 2.439-7.721-5.729-8.317-2.397-12.388 3.332-4.071 7.495.5 11.019-5.957s.07-14.072-6.646-16.607z" fill="#080C20"/><path fill-rule="evenodd" clip-rule="evenodd" d="M692.983 165.186a30.955 30.955 0 0012.838 3.114c2.447.061 4.881-.39 7.145-1.325a11.335 11.335 0 006.488-7.018c1.443-4.624-.533-7.019-1.985-8.773-1.285-1.553-1.644-2.097-.612-3.369 1.207-1.491 2.492-1.588 4.119-1.702h.003c2.15-.158 4.799-.352 6.993-4.387a12.057 12.057 0 00.752-10.097 13.269 13.269 0 00-7.8-7.756c-8.842-3.377-22.108-3.053-32.812 7.896-5.649 5.773-8.115 12.546-6.926 19.064 1.128 6.167 5.431 11.405 11.797 14.353zm-3.62-32.189c6.646-6.799 14.324-9.264 21.171-9.264a27.797 27.797 0 019.769 1.737 11.545 11.545 0 016.786 6.729 10.363 10.363 0 01-.647 8.641c-1.737 3.231-3.509 3.36-5.559 3.509l-.012.001-.021.001c-1.717.131-3.65.279-5.331 2.35-1.999 2.443-.608 4.117.614 5.589l.007.008c1.391 1.676 2.825 3.404 1.662 7.08a9.638 9.638 0 01-5.519 5.948c-4.836 2.141-11.569 1.518-18.565-1.702-5.842-2.711-9.786-7.475-10.809-13.081-1.085-5.965 1.206-12.185 6.454-17.546z" fill="#093F68"/><path d="M701.037 129.55c.07.342.245.658.315 1a2.637 2.637 0 01-1.259 2.325 7.33 7.33 0 00-2.082 1.824 2.955 2.955 0 00.953 3.72 4.228 4.228 0 004.014.307c1.365-.561 2.816-1.693 4.128-1.035.461.308.884.671 1.259 1.079a4.215 4.215 0 005.781-.526 4.848 4.848 0 000-5.984c-1.854-2.298-.297-6.141-4.311-6.509-2.064-.202-9.349.737-8.798 3.799z" fill="#080C20"/><path fill-rule="evenodd" clip-rule="evenodd" d="M707.788 139.428a4.639 4.639 0 003.114 1.132l.402.008a5.124 5.124 0 003.498-1.754 5.735 5.735 0 000-7.098 5.885 5.885 0 01-.945-2.57v-.004c-.359-1.754-.806-3.944-3.961-4.26-1.487-.149-7.022.307-9.008 2.483a2.639 2.639 0 00-.708 2.351c.047.219.111.433.192.641.051.112.09.23.114.351.096.5-.411 1.087-.918 1.473l-.516.369a5.586 5.586 0 00-1.793 1.702 3.815 3.815 0 001.198 4.886 5.075 5.075 0 004.854.395 15.5 15.5 0 001.032-.482c1.058-.571 1.801-.86 2.378-.571.242.149.46.332.648.544.131.144.271.278.419.404zm-.288-2.518c-.385-.197-.81-.3-1.242-.298a6.323 6.323 0 00-2.737.912 6.77 6.77 0 01-.875.43 3.39 3.39 0 01-3.174-.202 2.065 2.065 0 01-.7-2.561c.34-.472.775-.867 1.277-1.158l.577-.413a3.345 3.345 0 001.583-3.193 4.216 4.216 0 00-.201-.641 2.824 2.824 0 01-.114-.359.88.88 0 01.289-.878c1.346-1.482 6.016-2.079 7.538-1.921 1.801.176 2.055 1.062 2.422 2.869a7.34 7.34 0 001.295 3.316 3.983 3.983 0 01.043 4.869 3.326 3.326 0 01-2.308 1.114 3.009 3.009 0 01-2.563-1.009 4.288 4.288 0 00-1.11-.877z" fill="#093F68"/><path d="M718.851 135.199a4.476 4.476 0 00-1.216 2.632 2.188 2.188 0 00.665 1.825c.43.308.95.462 1.478.439a6.335 6.335 0 003.734-1.395c1.399-1.079 3.734-4.132 1.565-5.597-1.976-1.272-4.976.693-6.226 2.096z" fill="#093F68"/><path fill-rule="evenodd" clip-rule="evenodd" d="M717.749 140.367a3.177 3.177 0 002.02.631 7.11 7.11 0 004.268-1.579c1.11-.851 2.851-2.895 2.798-4.781a2.719 2.719 0 00-1.277-2.237c-2.413-1.623-5.789.456-7.354 2.211a5.344 5.344 0 00-1.443 3.193c-.1.963.268 1.916.988 2.562zm.726-2.448c.077-.8.426-1.55.988-2.123l.035.009c1.233-1.36 3.761-2.808 5.09-1.93a.954.954 0 01.498.824c.035 1.088-1.233 2.659-2.107 3.334a5.238 5.238 0 01-3.201 1.219 1.584 1.584 0 01-.927-.236 1.357 1.357 0 01-.376-1.097z" fill="#093F68"/><path d="M724.526 131.532c-.349-.816-1.023-1.754-1.889-1.553-.865.202-1.163 1.141-1.303 2.018-.402 2.281-.472 4.606-.874 6.887a.704.704 0 00.087.614.6.6 0 00.403.141 4.713 4.713 0 004.285-2.51c.769-1.623-.044-4.035-.709-5.597z" fill="#080C20"/><path fill-rule="evenodd" clip-rule="evenodd" d="M720.853 140.498h.35a5.68 5.68 0 004.801-3c.726-1.465.499-3.527-.673-6.29-.647-1.518-1.81-2.281-2.86-2.08-1.049.202-1.714 1.106-1.994 2.694-.184 1.053-.295 2.091-.406 3.135l-.031.286-.018.167c-.116 1.089-.237 2.213-.437 3.299a1.53 1.53 0 00.324 1.394c.256.243.592.384.944.395zm1.382-8.378c.149-.886.42-1.272.595-1.272v-.018c.253 0 .638.448.927 1.053 1.18 2.79 1.041 4.167.717 4.834a3.964 3.964 0 01-3.087 2.027c.192-1.115.315-2.246.428-3.334l.015-.138c.109-1.044.221-2.118.405-3.152z" fill="#093F68"/><path d="M690.08 139.059c-1.61.58-3.192 1.843-3.149 3.457.107.777.256 1.547.446 2.307.245 1.869-.787 3.975.254 5.536a4.036 4.036 0 003.113 1.448c1.749.149 3.813-.307 4.679-1.86.127-.337.334-.639.603-.877.288-.147.605-.225.927-.229a3.263 3.263 0 002.51-1.991c.691-1.755-.525-3.632-1.749-4.869-1.452-1.509-3.708-3.29-5.903-3.272a5.633 5.633 0 00-1.731.35z" fill="#080C20"/><path fill-rule="evenodd" clip-rule="evenodd" d="M690.674 152.71h.735c2.186 0 3.944-.842 4.74-2.368.013-.025.03-.049.046-.073.038-.055.076-.11.076-.164.056-.118.123-.23.201-.334.117-.035.237-.055.359-.061h.218a4.128 4.128 0 003.192-2.535c.682-1.764.009-3.817-1.897-5.808-1.26-1.299-3.813-3.509-6.507-3.509a6.387 6.387 0 00-2.046.394c-1.758.632-3.787 2.132-3.734 4.299.026.521.114 1.036.262 1.535.079.316.149.606.192.878a8.122 8.122 0 01-.096 1.982l-.002.019c-.157 1.284-.326 2.672.492 3.903a4.776 4.776 0 003.769 1.842zm-.271-12.87c.472-.172.967-.27 1.469-.289v.044c2.125 0 4.381 2.096 5.273 3 .656.684 2.117 2.43 1.531 3.939a2.372 2.372 0 01-1.819 1.448h-.166a2.456 2.456 0 00-1.12.342c-.35.255-.625.601-.795 1l-.088.175c-.682 1.22-2.44 1.536-3.848 1.413a3.248 3.248 0 01-2.448-1.062c-.464-.693-.35-1.64-.21-2.737.13-.8.16-1.614.087-2.421a7.772 7.772 0 00-.236-1.079 5.142 5.142 0 01-.201-1.141c-.053-1.175 1.268-2.158 2.571-2.632z" fill="#093F68"/><path d="M698.099 157.071a3.955 3.955 0 001.6 2.824 7.775 7.775 0 003.035 1.325c2.85.681 5.832.566 8.622-.333a3.403 3.403 0 001.391-.746 2.516 2.516 0 000-3.158 6.298 6.298 0 00-2.807-1.895c-1.986-.825-2.213-4.053-4.95-4.141-1.181 0-1.845.763-2.624 1.518-1.259 1.228-1.311 1.052-3.008 1.061-1.495.009-1.312 2.571-1.259 3.545z" fill="#080C20"/><path fill-rule="evenodd" clip-rule="evenodd" d="M702.533 162.08c1.284.298 2.599.448 3.917.447a16.56 16.56 0 005.178-.824 4.02 4.02 0 001.749-.965 3.422 3.422 0 00.07-4.299 7.188 7.188 0 00-3.184-2.185 4.01 4.01 0 01-1.504-1.588c-.769-1.158-1.723-2.57-3.752-2.631a3.984 3.984 0 00-3.008 1.517l-.245.246c-.46.439-.673.641-.927.735-.218.081-.466.081-.927.081h-.559a1.824 1.824 0 00-1.373.588c-.895.949-.798 2.756-.745 3.734l.001.02v.123a4.832 4.832 0 001.942 3.51 8.438 8.438 0 003.367 1.491zm-3.306-7.676a.134.134 0 01.114 0l.489-.036c1.443.009 1.828-.087 3.087-1.307l.263-.254c.699-.667 1.128-1.018 1.749-1.018 1.084.035 1.609.72 2.361 1.842a5.495 5.495 0 002.282 2.229 5.699 5.699 0 012.449 1.605c.477.58.516 1.405.096 2.027a2.629 2.629 0 01-1.04.526 15.213 15.213 0 01-8.151.316 6.865 6.865 0 01-2.702-1.167 3.078 3.078 0 01-1.259-2.175v-.132c-.079-1.36.017-2.185.262-2.456z" fill="#093F68"/><path d="M44.939 148.96c-.984-11.567-.51-17.215-1.727-21.044-2.824-2.271-13.298-8.372-22.08-13.054a6.795 6.795 0 01-3.287-4.022 6.854 6.854 0 01.499-5.186c1.727-3.316 3.954-.331 7.253 1.427 10.448 5.605 25.472 8.747 28.365 12.445 3.264 4.169 2.357 31.749 2.357 31.749l-11.38-2.315z" fill="#080C20"/><path fill-rule="evenodd" clip-rule="evenodd" d="M56.12 152.128a.624.624 0 00.174 0 .864.864 0 00.57-.183.874.874 0 00.328-.653c.002-.158.008-.384.014-.671.109-4.906.612-27.59-2.553-31.652-1.736-2.21-6.804-4.029-13.228-6.318-5.052-1.801-10.716-3.838-15.413-6.353-.762-.407-1.5-.857-2.211-1.349l-.007-.005c-1.517-1.033-2.827-1.927-4.19-1.579a3.309 3.309 0 00-2.055 1.88c-1.964 3.745-.555 8.387 3.152 10.382 8.151 4.361 18.608 10.418 21.742 12.829.638 2.137.76 4.967.94 9.176l.002.023.03.662c.132 2.876.293 6.395.67 10.73a.867.867 0 00.69.783l11.346 2.298zm-.664-1.924l-9.705-1.975c-.339-4.045-.49-7.362-.613-10.093l-.026-.577c-.19-4.526-.329-7.511-1.106-9.913a.802.802 0 00-.285-.409c-2.97-2.384-13.625-8.564-22.208-13.159-2.867-1.545-3.956-5.136-2.435-8.032.31-.592.63-.932.941-1.01.622-.157 1.692.566 2.815 1.34.752.528 1.53 1.016 2.331 1.462 4.758 2.549 10.445 4.586 15.482 6.39l.165.059c5.673 2.028 11.026 3.943 12.45 5.762 2.194 2.784 2.505 19.172 2.194 30.155z" fill="#093F68"/><path d="M44.939 148.96v13.689s20.628 3.986 18.996.871c-1.632-3.116-8.168-4.874-8.168-4.874l.544-7.415-11.372-2.271z" fill="#080C20"/><path fill-rule="evenodd" clip-rule="evenodd" d="M44.81 163.502c8.021 1.549 12.848 2.045 15.74 2.045 2.764 0 3.757-.417 4.102-.896a1.375 1.375 0 00.06-1.514c-1.485-2.785-6.225-4.526-8.021-5.091l.492-6.719a.87.87 0 00-.69-.923l-11.347-2.297a.858.858 0 00-.717.174.872.872 0 00-.32.679v13.672a.868.868 0 00.7.87zm18.262.166c-1.857.609-9.965-.383-17.2-1.741v-11.906l9.567 1.941-.484 6.649a.87.87 0 00.64.871c1.64.452 6.052 2.045 7.477 4.186z" fill="#093F68"/><path d="M34.016 66.865s10.526 13.55 13.064 13.054c2.539-.496 9.87-5.404 13.712-7.032 6.157-2.61 15.862-1.357 13.22.87-2.642 2.229-1.9.175-1.9.175-14.307 9.495-24.177 15.665-25.42 15.56-6.183-.322-17.77-11.957-17.77-11.957l5.094-10.67z" fill="#080C20"/><path fill-rule="evenodd" clip-rule="evenodd" d="M46.649 90.354h.086c.673 0 3.065-.61 24.808-14.978l.095.079c.768.548 1.727-.009 2.935-1.01.354-.209.611-.55.715-.95a1.57 1.57 0 00-.162-1.182c-1.33-2.184-9.68-2.28-14.679-.174a70.137 70.137 0 00-6.39 3.394c-2.737 1.567-5.854 3.333-7.123 3.577-1.434 0-7.47-6.614-12.236-12.75a.86.86 0 00-1.46.157l-5.094 10.652a.875.875 0 00.164 1.001l.155.15c1.469 1.425 12.07 11.712 18.186 12.034zm.095-1.74c-5.138-.305-14.628-9.226-16.778-11.314l4.205-8.825C43.29 80.041 46.346 80.938 47.21 80.772c1.54-.288 4.394-1.908 7.448-3.642l.237-.135c2.253-1.288 4.585-2.62 6.2-3.307 4.861-2.045 11.156-1.427 12.365-.661-.234.191-.423.339-.579.452a1.218 1.218 0 00-.233-.287.858.858 0 00-1.019 0C50.499 87.23 47.193 88.544 46.744 88.614z" fill="#093F68"/><path fill="#080C20" d="M-6.11 149.499h38.114v6.04H-6.11z"/><path fill-rule="evenodd" clip-rule="evenodd" d="M-6.11 156.427h38.114c.477 0 .863-.39.863-.871v-6.092c0-.48-.386-.87-.863-.87H-6.11a.867.867 0 00-.863.87v6.092c0 .481.386.871.863.871zm37.25-1.741H-5.246v-4.351H31.14v4.351z" fill="#093F68"/><path d="M-7.966 164.799H-9.9a1.815 1.815 0 01-1.419-.685c-.345-.433-.478-1-.36-1.543l9.498-43.576h5.656l-9.628 44.385a1.833 1.833 0 01-1.813 1.419z" fill="#080C20"/><path fill-rule="evenodd" clip-rule="evenodd" d="M-9.9 165.669h1.934a2.689 2.689 0 002.676-2.097l9.628-44.385a.876.876 0 00-.173-.74.862.862 0 00-.664-.322h-5.656a.865.865 0 00-.864.688l-9.498 43.575a2.689 2.689 0 00.527 2.272 2.669 2.669 0 002.09 1.009zm-.933-2.898l9.308-42.897h3.886l-9.395 43.306a.951.951 0 01-.932.757h-1.935a.946.946 0 01-.745-.356.964.964 0 01-.187-.81z" fill="#093F68"/><path d="M34.318 164.799h1.926c.551 0 1.072-.252 1.418-.685.346-.433.478-1 .36-1.543l-9.42-43.567h-5.699l9.628 44.385c.2.831.94 1.414 1.787 1.41z" fill="#080C20"/><path fill-rule="evenodd" clip-rule="evenodd" d="M34.318 165.669h1.925l.087-.026a2.669 2.669 0 002.071-1.018 2.714 2.714 0 00.52-2.263l-9.456-43.575a.865.865 0 00-.863-.688h-5.665a.862.862 0 00-.665.322.876.876 0 00-.172.74l9.628 44.385a2.698 2.698 0 002.59 2.123zm-.941-2.489l-9.395-43.306h3.886l9.308 42.897a.964.964 0 01-.187.81.946.946 0 01-.745.356h-1.926a.959.959 0 01-.941-.757z" fill="#093F68"/><rect x="-12.163" y="115.854" width="42.863" height="6.275" rx="2.21" fill="#080C20"/><path fill-rule="evenodd" clip-rule="evenodd" d="M-10.255 123.008H28.8c.735 0 1.44-.295 1.96-.819s.812-1.234.812-1.975v-2.428c0-1.545-1.24-2.798-2.772-2.803h-39.055c-1.532.005-2.771 1.258-2.771 2.803v2.428c0 1.543 1.24 2.794 2.771 2.794zm-1.044-5.222c0-.583.466-1.057 1.044-1.062H28.8a1.058 1.058 0 011.045 1.062v2.428a1.05 1.05 0 01-1.045 1.053h-39.055a1.05 1.05 0 01-1.044-1.053v-2.428z" fill="#093F68"/><path d="M41.46 148.96c-.994-11.567-.51-17.215-1.728-21.044-2.823-2.271-13.297-8.372-22.079-13.054-3.258-1.782-4.482-5.878-2.742-9.177 1.74-3.298 5.792-4.567 9.08-2.842 10.457 5.596 23.599 12.985 26.491 16.683 3.256 4.169 2.358 31.749 2.358 31.749l-11.38-2.315z" fill="#080C20"/><path fill-rule="evenodd" clip-rule="evenodd" d="M52.606 152.128a.556.556 0 00.173 0l-.008.052c.477 0 .863-.39.863-.871l.012-.515c.108-4.561.658-27.701-2.542-31.807-2.349-2.994-11.104-8.529-26.768-16.919-3.715-1.98-8.32-.56-10.3 3.177-1.966 3.745-.557 8.387 3.15 10.382 8.143 4.361 18.609 10.418 21.743 12.829.638 2.137.76 4.967.94 9.176l.001.023c.13 2.993.294 6.718.7 11.392.03.384.307.703.682.783l11.354 2.298zm-.664-1.924l-9.714-1.975h.034c-.289-3.54-.446-6.522-.578-9.041-.03-.566-.058-1.109-.087-1.629l-.001-.03c-.198-4.509-.329-7.486-1.104-9.883a.802.802 0 00-.285-.409c-2.97-2.384-13.626-8.564-22.209-13.159a5.941 5.941 0 01-3.124-5.033 5.95 5.95 0 012.764-5.244 5.85 5.85 0 015.887-.21c15.24 8.155 24.03 13.673 26.223 16.458 2.194 2.784 2.505 19.172 2.194 30.155z" fill="#093F68"/><path d="M49.325 78.631c-3.885-1.514-16.682-14.316-17.951-14.934l-.605-.287a59.423 59.423 0 00-13.237-4.151c-5.362-.87-10.957-.618-14.066 3.063-7.244 8.59-7.581 33.637-7.581 33.637l33.062 6.092a140.002 140.002 0 005.181-19.756c3.877 3.264 9.075 7.032 12.555 7.215l2.642-10.879z" fill="#080C20"/><path fill-rule="evenodd" clip-rule="evenodd" d="M28.766 102.895h.155a.863.863 0 00.83-.592 144.906 144.906 0 004.99-18.441c5.112 4.151 9.127 6.327 11.925 6.475a.865.865 0 00.863-.662l2.59-10.852a.872.872 0 00-.526-1.018c-2.322-.903-8.378-6.436-12.678-10.365l-.525-.48c-3.065-2.82-4.188-3.82-4.671-4.055 0 0-.225-.122-.639-.305a59.56 59.56 0 00-13.453-4.212c-7.011-1.157-12.01-.026-14.86 3.36-7.349 8.72-7.772 33.149-7.772 34.185a.869.869 0 00.708.87l33.063 6.092zm-.423-1.862L-3.26 95.237c.13-4.17 1.079-24.908 7.365-32.35 2.435-2.889 6.9-3.82 13.272-2.767a57.864 57.864 0 0113.03 4.09l.57.262c.334.195 1.85 1.58 3.485 3.074l.789.72c4.291 3.942 10.05 9.225 13.055 10.853l-2.262 9.407c-2.599-.487-6.58-2.915-11.346-6.918a.858.858 0 00-.864-.157.869.869 0 00-.552.67 137.83 137.83 0 01-4.94 18.912z" fill="#093F68"/><path d="M34.31 81.303h-.173a.863.863 0 01-.548-.373.875.875 0 01-.126-.654l1.727-8.294a.88.88 0 011.036-.696.887.887 0 01.691 1.044l-1.727 8.294a.865.865 0 01-.88.68zm-17.34-5.935a1.082 1.082 0 01-.232 0 .865.865 0 01-.523-.41.876.876 0 01-.082-.66c1.278-4.674.518-14.796.51-14.935a.87.87 0 01.799-.936.868.868 0 01.928.805c0 .427.794 10.566-.57 15.526a.864.864 0 01-.83.61zm11.951 4.752a.946.946 0 01-.31-.062.866.866 0 01-.482-.456.877.877 0 01-.02-.666 35.306 35.306 0 001.78-15.404.87.87 0 01.733-.984.858.858 0 01.643.17c.183.14.303.349.333.579a36.411 36.411 0 01-1.874 16.257.864.864 0 01-.803.566z" fill="#093F68"/><path d="M11.134 4.125c-4.439-.93-9.145.627-12.737 3.316-2.789 2.089-5.18 5.222-4.878 8.608a15.853 15.853 0 001.407 4.612 9.287 9.287 0 01.924 4.708 3.861 3.861 0 01-3.082 3.377 9.438 9.438 0 007.34 1.436 9.143 9.143 0 005.923-4.447 3.86 3.86 0 011.476-1.897 3.433 3.433 0 011.114-.253 14.396 14.396 0 007.478-2.828c6.459-5.318 2.72-14.995-4.965-16.632z" fill="#080C20"/><path fill-rule="evenodd" clip-rule="evenodd" d="M-7.664 29.486a10.236 10.236 0 005.768 1.793 9.99 9.99 0 002.262-.21 9.938 9.938 0 006.485-4.873l.164-.313c.156-.498.457-.938.863-1.262.278-.101.57-.16.864-.174a14.955 14.955 0 007.961-3.037 9.555 9.555 0 003.281-9.817c-1.067-4.205-4.418-7.43-8.634-8.312-4.3-.87-9.326.4-13.427 3.481-3.584 2.681-5.484 6.093-5.233 9.365a14.22 14.22 0 001.26 4.351l.234.566a8.691 8.691 0 01.863 4.256 3.02 3.02 0 01-2.331 2.61.866.866 0 00-.38 1.576zm7.616-.157a8.658 8.658 0 01-5.181-.452 5.23 5.23 0 001.951-3.351 10.13 10.13 0 00-.975-5.16l-.234-.575a12.85 12.85 0 01-1.14-3.803c-.293-3.777 3.083-6.736 4.543-7.833 3.721-2.785 8.22-3.96 12.045-3.16 3.59.732 6.441 3.479 7.331 7.059a7.763 7.763 0 01-2.703 8.059 13.405 13.405 0 01-7.089 2.61 4.17 4.17 0 00-1.321.323 4.08 4.08 0 00-1.727 1.984l-.147.287A8.244 8.244 0 01-.048 29.33z" fill="#093F68"/><path d="M22.264 5.553a13.468 13.468 0 00-9.947 1.819 16.707 16.707 0 00-6.476 7.937A12.927 12.927 0 004.82 21.4a7.852 7.852 0 002.772 5.352 2.77 2.77 0 001.727.723c.432-.035.854-.15 1.244-.34a30.855 30.855 0 0014.29-12.515c1.96-3.298 1.77-8.085-2.59-9.068z" fill="#080C20"/><path fill-rule="evenodd" clip-rule="evenodd" d="M7.058 27.493a3.576 3.576 0 002.228.87l.026.035a4.151 4.151 0 001.563-.41 31.705 31.705 0 0014.679-12.87 8.236 8.236 0 00.863-7.215 5.344 5.344 0 00-3.963-3.16 14.265 14.265 0 00-10.586 1.924 17.55 17.55 0 00-6.83 8.346 13.769 13.769 0 00-1.071 6.5 8.725 8.725 0 003.091 5.98zM12.774 8.11a12.972 12.972 0 016.796-1.984c.844-.008 1.687.077 2.513.253a3.657 3.657 0 012.746 2.15 6.545 6.545 0 01-.726 5.63A29.86 29.86 0 0110.22 26.344a2.644 2.644 0 01-.916.278 2.004 2.004 0 01-1.183-.53 6.98 6.98 0 01-2.435-4.796c-.149-1.939.18-3.885.959-5.665a15.787 15.787 0 016.13-7.52z" fill="#093F68"/><path d="M28.844 6.414c3.98.13 7.615 1.567 9.843 4.996 2.59-1.236 5.5.713 7.34 2.88a23.921 23.921 0 015.57 14.856c.12 7.11-3.014 14.02-7.669 19.364a27.417 27.417 0 01-8.997 7.015 17.808 17.808 0 01-11.225 1.41c-10.569-2.359-17.01-15.457-18.22-25.387C3.83 17.58 14.917 5.962 28.845 6.414z" fill="#080C20"/><path fill-rule="evenodd" clip-rule="evenodd" d="M23.568 57.779c1.168.263 2.36.394 3.557.392a19.67 19.67 0 008.16-1.828 28.103 28.103 0 009.309-7.258c5.198-5.97 8.004-13.055 7.883-19.947A24.576 24.576 0 0046.7 13.733c-1.917-2.271-4.861-4.255-7.676-3.385-2.228-3.002-5.716-4.656-10.137-4.804a23.74 23.74 0 00-18.418 7.702A22.901 22.901 0 004.675 31.67c1.33 10.905 8.402 23.768 18.893 26.109zM11.73 14.421a21.964 21.964 0 0116.345-7.145l.743.009c2.866.095 6.778.966 9.153 4.604.237.36.7.489 1.088.304 2.132-1.027 4.732.792 6.312 2.663a23.178 23.178 0 015.362 14.308c.112 6.457-2.539 13.124-7.452 18.772a26.526 26.526 0 01-8.712 6.797 16.865 16.865 0 01-10.63 1.349C14.225 53.915 7.645 41.774 6.393 31.444a21.126 21.126 0 015.337-17.023z" fill="#093F68"/><path d="M22.546 58.673l4.837.963a.444.444 0 01.347.522l-.48 2.45a2.92 2.92 0 01-3.43 2.316c-1.581-.315-2.61-1.863-2.297-3.457l.48-2.45a.44.44 0 01.518-.35l.025.006z" fill="#080C20"/><path fill-rule="evenodd" clip-rule="evenodd" d="M23.689 65.768c.244.05.493.073.742.07l.035-.035a3.79 3.79 0 003.696-3.072l.483-2.446a1.35 1.35 0 00-.198-.983 1.251 1.251 0 00-.864-.557l-4.861-.975a1.33 1.33 0 00-.976.2 1.28 1.28 0 00-.553.87l-.483 2.455c-.402 2.064.931 4.066 2.979 4.473zm-1.287-4.142l.397-2.028 4.024.792-.397 2.036a2.029 2.029 0 01-.863 1.315 2.046 2.046 0 01-2.85-.557 2.102 2.102 0 01-.31-1.558z" fill="#093F68"/><ellipse cx="41.698" cy="48.735" rx="4.924" ry="4.37" transform="rotate(-78.82 41.698 48.735)" fill="#080C20"/><path fill-rule="evenodd" clip-rule="evenodd" d="M40.613 54.411a5 5 0 00.941.096 5.035 5.035 0 003.005-1.053 6.099 6.099 0 002.254-3.69c.613-3.133-1.192-6.145-4.024-6.71a4.936 4.936 0 00-3.998.974c-2.404 1.9-3.065 5.288-1.554 7.964a4.958 4.958 0 003.376 2.419zm1.273-9.712h.022-.035.013zm-1.998.705a3.36 3.36 0 011.998-.705c.211.006.421.035.627.087 1.89.374 3.09 2.462 2.659 4.656a4.357 4.357 0 01-1.597 2.61c-.735.6-1.696.84-2.623.654a3.188 3.188 0 01-2.178-1.61 4.497 4.497 0 011.114-5.692z" fill="#093F68"/><path d="M23.611 61.486C14.208 59.606 8.068 46.23 9.908 36.892l2.072 1.305 1.217-6.623s23.737-1.6 23.314-7.432l9.498 6.684-3.307 16.884c-1.9 9.33-9.68 15.648-19.091 13.776z" fill="#080C20"/><path fill-rule="evenodd" clip-rule="evenodd" d="M23.473 62.34c1.137.228 2.294.344 3.454.347 8.09 0 14.782-5.787 16.604-14.873l3.307-16.875a.874.874 0 00-.354-.87l-9.498-6.684a.858.858 0 00-.924-.043.872.872 0 00-.431.87c.016.42-.144.827-.44 1.122-2.894 3.386-16.847 5.022-22.028 5.37a.866.866 0 00-.795.714l-.984 5.36-.993-.626a.857.857 0 00-1.304.575c-1.89 9.643 4.499 23.637 14.386 25.612zm18.314-14.77c-1.822 9.27-9.369 14.795-18.003 13.055l.026.017c-7.185-1.41-14.524-12.001-13.229-22.297l.967.61a.869.869 0 001.304-.583l1.097-5.962c3.773-.287 18.944-1.706 22.554-5.927a4.14 4.14 0 00.56-.87l7.945 5.605-3.22 16.353z" fill="#093F68"/><ellipse cx="23.11" cy="41.622" rx="1.592" ry="1.581" transform="rotate(-78.82 23.11 41.622)" fill="#093F68"/><ellipse cx="38.048" cy="44.594" rx="1.58" ry="1.593" fill="#093F68"/><path d="M31.624 48.067a8.578 8.578 0 01-2.72-.575.875.875 0 01-.233-1.492.86.86 0 01.855-.135 7.277 7.277 0 001.848.444 13.824 13.824 0 00-.622-3.482.877.877 0 01.201-.847.86.86 0 011.457.351c.535 1.837 1.027 4.23.354 5.222a1.18 1.18 0 01-.933.522l-.207-.008zm-4.853-9.295a1.8 1.8 0 01-.371 0l-7.374-1.602a1.74 1.74 0 01-1.292-2.06 1.727 1.727 0 012.017-1.342l7.383 1.601a1.747 1.747 0 011.546 1.923 1.74 1.74 0 01-1.909 1.558v-.078zM40.82 40.59h-.181l-7.504-.783a1.746 1.746 0 01-1.554-1.914 1.74 1.74 0 011.9-1.567l7.512.766c.456.048.874.277 1.162.636.288.36.423.82.375 1.279a1.733 1.733 0 01-1.71 1.584z" fill="#093F68"/><path d="M13.06 38.755s-3.532-3.673-6.46-.427c-2.927 3.246-2.029 9.93 5.104 9.451" fill="#080C20"/><path d="M11.004 48.676c-2.936 0-5.18-1.227-6.243-3.43a7.005 7.005 0 011.183-7.51 4.46 4.46 0 013.307-1.618c2.358-.053 4.318 1.949 4.413 2.036a.875.875 0 01-.382 1.501.86.86 0 01-.853-.291 5.164 5.164 0 00-3.152-1.506 2.782 2.782 0 00-2.055 1.08 5.254 5.254 0 00-.906 5.578c.863 1.74 2.71 2.61 5.31 2.42a.868.868 0 01.92.813.87.87 0 01-.808.927h-.734zM27.1 55.925c-.252 0-.503-.017-.752-.052-2.694-.4-4.844-2.88-6.39-7.371a.876.876 0 01.162-.856.86.86 0 011.47.281c1.322 3.83 2.997 5.927 5.009 6.223 3.609.53 7.426-4.743 7.46-4.795a.863.863 0 011.209-.2c.385.28.473.82.199 1.21-.173.243-4.016 5.56-8.368 5.56z" fill="#093F68"/><path d="M28.921 102.025l3.688-12.541-2.16-15.97-14.376-5.048L-3.02 81.991l-1.12 13.977s-5.276 9.19-2.59 15.761c2.685 6.57 47.11 19.146 47.11 19.146l9.706-16.701-21.164-12.149z" fill="#080C20"/><path fill-rule="evenodd" clip-rule="evenodd" d="M40.181 131.737a.76.76 0 00.233 0 .863.863 0 00.82-.392l9.697-16.701a.875.875 0 00-.32-1.192l-20.602-11.81 3.454-11.871a.88.88 0 000-.365l-2.159-15.97a.869.869 0 00-.57-.705l-14.376-5.057a.858.858 0 00-.777.113L-3.511 81.312a.872.872 0 00-.363.644L-4.987 95.74c-.786 1.367-5.181 9.895-2.513 16.362 2.78 6.762 43.096 18.337 47.681 19.634zM-3.278 96.02l1.088-13.568 18.4-13.055 13.454 4.77 2.064 15.247-3.636 12.35c-.113.386.051.8.398 1.001l20.438 11.705-8.92 15.361c-31.81-9.051-44.892-15.988-45.91-18.451-2.522-6.092 2.46-14.908 2.512-14.995a.875.875 0 00.112-.365z" fill="#093F68"/><path d="M65.29 86.003l21.519 13.68v6.232L62.277 88.622l3.014-2.62z" fill="#093F68"/><path fill-rule="evenodd" clip-rule="evenodd" d="M86.317 106.663a.853.853 0 00.889.061.87.87 0 00.466-.774v-6.223c0-.3-.153-.58-.406-.74L65.757 85.316a.858.858 0 00-1.027.07l-3.014 2.61a.874.874 0 00.07 1.376l24.53 17.292zm-.372-2.454l-22.26-15.665 1.684-1.47 20.576 13.054v4.081z" fill="#093F68"/><path d="M95.03 158.019H83.984V73.94l11.044-3.62v87.699z" fill="#093F68"/><path fill-rule="evenodd" clip-rule="evenodd" d="M83.985 158.89H95.03c.477 0 .864-.39.864-.871V70.32a.873.873 0 00-.339-.735.858.858 0 00-.793-.135l-11.044 3.62a.87.87 0 00-.595.87v84.079c0 .481.386.871.863.871zm10.18-1.741H84.85V74.567l9.316-3.055v85.637z" fill="#093F68"/><rect x="72.225" y="157.132" width="34.565" height="7.145" rx="3.23" fill="#093F68"/><path fill-rule="evenodd" clip-rule="evenodd" d="M75.014 165.13h28.978c.974 0 1.908-.391 2.595-1.087a3.704 3.704 0 001.066-2.621v-1.514c-.005-2.035-1.642-3.681-3.661-3.681H75.014c-2.015.004-3.648 1.65-3.653 3.681v1.532c0 2.034 1.634 3.685 3.653 3.69zm-1.926-5.205c0-1.071.862-1.94 1.926-1.94l28.978-.018a1.917 1.917 0 011.367.566c.363.364.567.859.567 1.375v1.532c0 .517-.204 1.013-.566 1.378a1.926 1.926 0 01-1.368.571H75.014a1.942 1.942 0 01-1.926-1.949v-1.515z" fill="#093F68"/><ellipse cx="89.503" cy="80.05" rx="2.91" ry="2.933" fill="#080C20"/><path fill-rule="evenodd" clip-rule="evenodd" d="M85.72 80.05c0 2.105 1.694 3.812 3.783 3.812 2.088 0 3.782-1.707 3.782-3.812 0-2.105-1.694-3.812-3.782-3.812-2.089 0-3.782 1.707-3.782 3.812zm1.883-.782a2.055 2.055 0 011.9-1.28c1.131 0 2.05.921 2.055 2.062a2.072 2.072 0 01-1.263 1.92 2.043 2.043 0 01-2.242-.444 2.083 2.083 0 01-.45-2.258z" fill="#093F68"/><ellipse cx="89.503" cy="156.227" rx="2.91" ry="2.933" fill="#080C20"/><path fill-rule="evenodd" clip-rule="evenodd" d="M85.738 156.221c-.003 2.099 1.682 3.804 3.765 3.809a3.762 3.762 0 002.674-1.111 3.819 3.819 0 001.108-2.692c0-2.1-1.688-3.802-3.77-3.804-2.084-.001-3.774 1.699-3.777 3.798zm1.727.011a2.054 2.054 0 012.038-2.068c1.131 0 2.05.922 2.055 2.063a2.054 2.054 0 01-2.044 2.062 2.054 2.054 0 01-2.049-2.057z" fill="#093F68"/><path d="M37.057 94.52l86.897-45.244 2.988 5.83-86.897 45.243-2.988-5.83z" fill="#080C20"/><path fill-rule="evenodd" clip-rule="evenodd" d="M39.283 100.737c.149.289.445.47.769.47a.954.954 0 00.423-.061l86.891-45.255a.864.864 0 00.423-.505.877.877 0 00-.051-.67l-2.997-5.831a.86.86 0 00-1.157-.375L36.667 93.73a.868.868 0 00-.432.506.877.877 0 00.06.67l2.988 5.831zm1.14-1.575L38.22 94.88l85.363-44.455 2.193 4.282-85.354 44.455z" fill="#093F68"/><path d="M41.459 148.96v13.689s20.628 3.986 18.996.871c-1.631-3.116-8.168-4.874-8.168-4.874l.544-7.415-11.372-2.271z" fill="#080C20"/><path fill-rule="evenodd" clip-rule="evenodd" d="M41.295 163.502c8.022 1.549 12.848 2.045 15.741 2.045 2.798 0 3.79-.417 4.102-.896.317-.448.34-1.042.06-1.514-1.485-2.785-6.226-4.526-8.022-5.091l.492-6.719a.87.87 0 00-.69-.923l-11.346-2.297a.858.858 0 00-.717.174.872.872 0 00-.32.679v13.672a.868.868 0 00.7.87zm18.262.166c-1.856.609-9.964-.383-17.2-1.741v-11.906l9.567 1.941-.483 6.649a.87.87 0 00.63.871c1.65.452 6.062 2.045 7.486 4.186z" fill="#093F68"/><path d="M48.781 88.396l-1.7-4.134 66.314-34.115 2.09 3.516-66.704 34.733z" fill="#080C20"/><path fill-rule="evenodd" clip-rule="evenodd" d="M48.48 89.214a.855.855 0 00.301.052.857.857 0 00.398-.122l66.703-34.733a.87.87 0 00.432-.54.876.876 0 00-.087-.678l-2.089-3.482a.86.86 0 00-1.131-.33L46.649 83.487a.873.873 0 00-.398 1.106l1.727 4.142a.866.866 0 00.501.479zm.742-2.02l-1.037-2.523 64.882-33.376 1.2 2.02-65.045 33.88z" fill="#093F68"/><path d="M54.057 51.635l-2.46 1.714L63.96 71.356l2.496-1.741-12.4-17.98z" fill="#080C20"/><path fill-rule="evenodd" clip-rule="evenodd" d="M63.296 71.852a.862.862 0 00.708.374.86.86 0 00.493-.174l2.495-1.74a.941.941 0 00.354-.566.875.875 0 00-.138-.653l-12.4-17.98a.86.86 0 00-1.2-.218l-2.46 1.74a.875.875 0 00-.217 1.21l12.365 18.007zm.872-1.706L52.78 53.566l1.045-.704 11.407 16.535-1.063.749z" fill="#093F68"/><path d="M28.921 77.822l20.914-11.314s1.89-3.699 3.126-4.69c1.424-1.158 2.452-2.403 2.9-1.846.382.445.675.959.864 1.514.095.305.043.819.363.984.717.383 2.867-1.314 3.454-1.68.233-.148.492-.356.475-.635-.018-.279-.622-.583-.682-.992a2.367 2.367 0 011.942-.209c.465.19.83.565 1.013 1.035.183.47.167.996-.045 1.454-.38.87-1.365 1.514-1.624 2.35a3.92 3.92 0 00-.112 1 9.77 9.77 0 01-.64 3.534c-1.217 2.872-5.076 3.577-7.77 4.508 0 0-22.623 17.885-25.533 17.885" fill="#080C20"/><path d="M27.592 91.564a.867.867 0 01-.864-.87c0-.481.387-.87.864-.87 1.727-.096 14.083-9.07 25.04-17.703a.777.777 0 01.25-.139c.45-.156.934-.304 1.434-.461 2.314-.722 4.93-1.532 5.794-3.56a8.545 8.545 0 00.57-3.21c-.004-.42.048-.84.156-1.245a4.546 4.546 0 011.001-1.558c.253-.26.471-.553.648-.87a1.087 1.087 0 000-.87.806.806 0 00-.7-.514 1.6 1.6 0 01.104.426 1.577 1.577 0 01-.864 1.427l-.362.253c-1.572 1.114-2.962 1.993-3.946 1.462a1.621 1.621 0 01-.751-1.314 1.36 1.36 0 000-.183 3.092 3.092 0 00-.467-.87 11.89 11.89 0 00-.863.748c-.268.252-.682.6-1.062.87-.795.636-2.194 3.047-2.893 4.413a.867.867 0 01-.363.365L29.405 78.605a.87.87 0 01-1.192-.33.885.885 0 01.329-1.202l20.723-11.165c.483-.87 2.046-3.769 3.23-4.726.362-.287.69-.583.992-.87.864-.801 1.546-1.375 2.28-1.314.337.019.65.18.863.443.454.53.8 1.146 1.02 1.81.036.117.062.236.077.357a12.13 12.13 0 002.012-1.235l.294-.2a1.536 1.536 0 01-.467-.87.873.873 0 01.415-.871 3.182 3.182 0 012.694-.33c.67.238 1.207.754 1.476 1.418a2.857 2.857 0 010 2.245 5.472 5.472 0 01-.924 1.314c-.27.274-.491.592-.656.94a2.71 2.71 0 00-.078.696 10.814 10.814 0 01-.708 3.917c-1.174 2.767-4.317 3.75-6.907 4.542l-1.244.4c-5.587 4.352-23.09 17.99-26.042 17.99z" fill="#093F68"/><path d="M1.834 74.497c18.237 26.475 30.8 14.987 30.8 14.987-.224-1.401-.777-4.352-1.053-5.744-.44-2.315-.933-4.63-1.278-6.962l-1.356.74s-8.937-6.702-15.68-12.82" fill="#080C20"/><path d="M25.148 92.835a14.72 14.72 0 01-1.727-.096c-7.305-.87-14.834-6.815-22.364-17.746a.879.879 0 01-.07-.87.863.863 0 011.495-.122c7.106 10.322 14.403 16.205 21.086 16.997a11.379 11.379 0 008.065-1.871c-.25-1.462-.7-3.881-.967-5.222l-.285-1.462c-.277-1.41-.57-2.854-.803-4.351l-.294.156a.858.858 0 01-.924-.07c-.086-.069-9.05-6.788-15.741-12.87a.875.875 0 01-.07-1.228.861.861 0 011.227-.06c5.794 5.22 13.298 11.008 15.18 12.436l.863-.48a.858.858 0 01.797-.007.87.87 0 01.464.652c.268 1.81.63 3.655.985 5.44l.293 1.461c.294 1.532.864 4.421 1.053 5.78a.874.874 0 01-.267.782 12.407 12.407 0 01-7.996 2.75z" fill="#093F68"/><path fill-rule="evenodd" clip-rule="evenodd" d="M67.035 74.471a.858.858 0 00.984-.017.874.874 0 00.337-.931l-1.07-4.126a.868.868 0 00-.534-.592.858.858 0 00-.787.096l-2.496 1.741a.872.872 0 00-.371.722c.004.288.15.555.388.714l3.55 2.393zm-.924-2.715l-.613-.418.432-.296.181.714z" fill="#093F68"/><path d="M118.706 153.72s-5.622-11.557-4.836-19.364a14.412 14.412 0 016.701 8.146c3.324 9.304 2.59 11.227 2.59 11.227l-4.455-.009z" fill="#080C20"/><path fill-rule="evenodd" clip-rule="evenodd" d="M118.706 154.599h4.421a.863.863 0 00.803-.539c.146-.375.725-2.69-2.548-11.845-2.279-6.353-6.959-8.555-7.158-8.642a.857.857 0 00-.786.043.869.869 0 00-.431.662c-.795 7.963 4.688 19.355 4.93 19.834a.861.861 0 00.769.487zm3.643-1.74h-3.091l.009-.009c-.967-2.098-4.637-10.531-4.611-17.014a14.475 14.475 0 015.103 6.962c2.228 6.223 2.59 9.008 2.59 10.061z" fill="#093F68"/><path d="M121.382 153.163s-4.222-16.474 1.848-27.51c0 0 3.497 4.038 4.318 13.786a24.827 24.827 0 01-2.513 13.507l-3.653.217z" fill="#080C20"/><path fill-rule="evenodd" clip-rule="evenodd" d="M120.519 153.381c.101.394.46.665.863.652h.035l3.652-.252a.862.862 0 00.683-.426 25.413 25.413 0 002.642-13.986c-.846-9.93-4.387-14.107-4.542-14.281a.862.862 0 00-1.407.147c-6.166 11.201-2.099 27.458-1.926 28.146zm1.537-1.14c-.665-3.116-2.979-15.622 1.278-24.873 1.036 1.766 2.841 5.648 3.367 12.149a24.712 24.712 0 01-2.201 12.567l-2.444.157z" fill="#093F68"/><path d="M123.204 152.641s1.313-10.992 10.129-18.172c0 0 2.59 8.19-4.689 19.147l-5.44-.975z" fill="#080C20"/><path fill-rule="evenodd" clip-rule="evenodd" d="M128.498 154.486a.447.447 0 00.146 0 .862.862 0 00.717-.366c7.435-11.191 4.905-19.546 4.792-19.894a.864.864 0 00-.572-.572.857.857 0 00-.792.154c-8.989 7.319-10.388 18.285-10.439 18.755a.869.869 0 00.708.957l5.44.966zm-.26-1.828l-4.041-.722c.475-2.472 2.375-10.139 8.583-15.813.346 2.611.423 8.825-4.542 16.535z" fill="#093F68"/><path d="M129.249 164.999h-11.105l-1.64-13.62h14.385l-1.64 13.62z" fill="#080C20"/><path fill-rule="evenodd" clip-rule="evenodd" d="M118.144 165.869h11.105a.864.864 0 00.854-.739l1.632-13.646a.873.873 0 00-.207-.679.858.858 0 00-.647-.296h-14.386a.86.86 0 00-.648.296.877.877 0 00-.207.679l1.641 13.62a.864.864 0 00.863.765zm10.31-1.74h-9.567l-1.434-11.88h12.435l-1.434 11.88z" fill="#093F68"/><path d="M136.821 165.869H-19.174a.866.866 0 01-.864-.87c0-.48.387-.87.864-.87H136.82c.477 0 .864.39.864.87 0 .481-.387.87-.864.87zm-65.703 69.329a.826.826 0 01-.826-.827v-5.296c-.292-18.881-15.657-34.034-34.51-34.034-18.853 0-34.218 15.153-34.51 34.034v5.296a.826.826 0 11-1.652 0v-5.296c.299-19.79 16.401-35.677 36.162-35.677 19.76 0 35.863 15.887 36.162 35.677v5.296a.83.83 0 01-.826.827z" fill="#093F68"/><path d="M68.656 344.83c0 3.152 5.593 3.136 12.49 3.136 6.898 0 12.483 0 12.483-3.136s-5.593-7.447-12.483-7.447c-6.89 0-12.49 4.295-12.49 7.447z" fill="#080C20"/><path fill-rule="evenodd" clip-rule="evenodd" d="M81.014 348.793h.389a55.967 55.967 0 008.748-.405c1.066-.182 4.304-.753 4.304-3.558 0-3.715-6.138-8.274-13.308-8.274s-13.317 4.551-13.317 8.274c0 2.805 3.238 3.376 4.304 3.558 2.945.363 5.914.498 8.88.405zm.38-1.655h-.38a58.138 58.138 0 01-8.6-.38c-2.932-.513-2.932-1.506-2.932-1.928 0-2.606 5.23-6.619 11.665-6.619 6.435 0 11.656 4.004 11.656 6.619 0 .422 0 1.415-2.933 1.928a55.185 55.185 0 01-8.476.38z" fill="#093F68"/><path d="M67.97 334.247s4.189 1.399 5.114 3.103c.925 1.705 1.71 8.853 4.031 8.233 2.322-.621.314-7.761 2.173-7.612 1.859.149 14.655 6.371 14.34 3.111-.313-3.26-6.12-8.39-11.085-10.872-4.965-2.483-13.424-3.575-13.424-3.575l-1.148 7.612z" fill="#080C20"/><path fill-rule="evenodd" clip-rule="evenodd" d="M75.876 346.187a1.903 1.903 0 001.479.198c1.875-.488 1.875-2.986 1.875-5.196-.028-.792.027-1.585.165-2.366.543.119 1.848.613 3.109 1.091l.419.158c5.485 2.102 9.483 3.5 10.962 2.367.44-.34.663-.889.586-1.44-.404-3.938-6.972-9.226-11.565-11.534-5.03-2.515-13.333-3.649-13.688-3.649a.826.826 0 00-.917.695l-1.157 7.612a.827.827 0 00.554.91c1.503.505 4.089 1.68 4.65 2.714.337.819.6 1.667.786 2.532.784 2.979 1.437 5.147 2.742 5.908zm-2.04-9.226c-.876-1.555-3.643-2.763-4.957-3.26l.934-6.164c2.23.339 8.484 1.423 12.391 3.376 5.18 2.598 10.31 7.513 10.624 10.21-1.114.5-6.739-1.641-9.251-2.597l-.068-.026a21.396 21.396 0 00-4.13-1.382 1.312 1.312 0 00-1.05.348c-.751.662-.751 2.027-.751 3.682-.008 1.2-.033 3.442-.653 3.607a.19.19 0 01-.181 0c-.818-.471-1.545-3.243-1.975-4.898a15.276 15.276 0 00-.933-2.896z" fill="#093F68"/><path d="M41.147 233.245c-11.821-1.456-26.963 1.597-35.612 10.161a10.205 10.205 0 00-3.007 4.476c-1.479 5.709-.132 11.286-5.163 15.58-1.28 1.101-2.751 1.986-3.924 3.211-3.8 3.971-3.015 11.352 1.545 14.43-2.57 2.482-2.966 6.553-2.181 10.044 1.412 6.322 6.113 11.584 11.714 14.786 5.6 3.202 12.052 4.7 18.463 5.561 9.326 1.249 18.925 1.307 28.02-1.093 9.096-2.399 17.695-7.405 23.337-14.951a17.56 17.56 0 003.701-8.167c.579-4.641-1.652-9.101-3.791-13.238 3.139-3.699 3.907-9.027 2.792-13.743-1.115-4.717-3.932-8.895-7.237-12.412a47.51 47.51 0 00-28.657-14.645z" fill="#080C20"/><path fill-rule="evenodd" clip-rule="evenodd" d="M22.866 312.346c4.044.544 8.12.82 12.201.827a63.024 63.024 0 0016.126-1.837c9.937-2.623 18.388-8.042 23.783-15.257 2.263-3.02 3.527-5.825 3.866-8.556.594-4.856-1.677-9.49-3.635-13.279 2.858-3.699 3.841-8.895 2.61-14.066-1.024-4.311-3.527-8.622-7.434-12.809a48.63 48.63 0 00-29.161-14.893c-11.425-1.399-27.08 1.299-36.299 10.4a10.945 10.945 0 00-3.221 4.857 36.395 36.395 0 00-.826 5.205l-.022.188c-.42 3.743-.784 6.998-4.035 9.741a31.17 31.17 0 01-1.495 1.166 19.7 19.7 0 00-2.478 2.102 10.23 10.23 0 00-2.594 8.208 10.407 10.407 0 003.511 6.909c-1.99 2.457-2.652 6.156-1.768 10.111 1.371 6.073 5.775 11.658 12.11 15.323 4.9 2.83 10.682 4.576 18.761 5.66zM6.113 243.993c5.502-5.444 16.166-10.301 28.847-10.301 2.03.011 4.058.146 6.072.406a46.97 46.97 0 0128.153 14.33c3.734 3.98 6.08 8.034 7.038 12.064 1.132 4.791.132 9.78-2.619 13.015a.83.83 0 00-.107.919c2.338 4.517 4.23 8.58 3.709 12.791-.297 2.441-1.462 4.981-3.544 7.77-5.18 6.917-13.3 12.163-22.883 14.645-8.095 2.135-17.157 2.49-27.707 1.076-7.872-1.06-13.473-2.739-18.173-5.453-5.932-3.434-10.062-8.63-11.326-14.256-.843-3.79-.116-7.249 1.95-9.267a.83.83 0 00.247-.671.828.828 0 00-.355-.612 9.11 9.11 0 01-1.413-13.172 18.696 18.696 0 012.289-1.912c.165-.129.33-.256.496-.382.365-.279.73-.557 1.082-.859 3.757-3.168 4.193-7.077 4.617-10.876l.017-.153c.157-1.673.433-3.332.826-4.965a9.487 9.487 0 012.784-4.137z" fill="#093F68"/><path d="M35.406 200.654h1.297c16.657 0 30.16 13.524 30.16 30.208v8.928H5.254v-8.928c0-16.684 13.504-30.208 30.161-30.208h-.008z" fill="#080C20"/><path fill-rule="evenodd" clip-rule="evenodd" d="M5.254 240.626h61.659a.827.827 0 00.826-.828v-8.936c-.023-17.147-13.908-31.036-31.028-31.036h-1.305c-17.103.023-30.96 13.906-30.978 31.036v8.936c0 .457.37.828.826.828zm60.833-1.655H6.12v-8.109c.014-16.218 13.134-29.363 29.326-29.381h1.305c16.194.018 29.317 13.162 29.335 29.381v8.109z" fill="#093F68"/><path d="M41.527 286.142a.827.827 0 01-.826-.828v-5.792h-9.78v5.792a.827.827 0 11-1.653 0v-6.619c0-.457.37-.827.826-.827h11.433c.457 0 .826.37.826.827v6.619c0 .457-.37.828-.826.828z" fill="#093F68"/><path d="M35.786 280.226c-16.869 0-30.565-10.053-30.565-28.587v-12.974c18 3.384 20.743-15.332 20.743-15.332 16.332 28.446 40.313 9.631 40.313 9.631v18.675c.033 18.534-13.63 28.587-30.49 28.587z" fill="#080C20"/><path fill-rule="evenodd" clip-rule="evenodd" d="M4.395 251.639c0 17.599 12.63 29.414 31.391 29.414 18.736 0 31.358-11.815 31.325-29.431v-18.675a.826.826 0 00-1.338-.653l-.005.004c-.278.211-10.085 7.671-21.06 5.531-7.072-1.34-13.135-6.363-18.025-14.893a.824.824 0 00-.876-.397.825.825 0 00-.66.686l-.001.003c-.028.172-1.31 8.189-7.22 12.408-3.346 2.4-7.6 3.136-12.556 2.201a.829.829 0 00-.975.828v12.974zm1.652.033v-11.989l.033-.034c5.014.745 9.335-.14 12.87-2.606 4.635-3.31 6.61-8.572 7.435-11.468 4.957 7.877 11.028 12.569 18.075 13.942 9.5 1.804 17.885-2.863 21.065-4.964v17.119c0 19.179-14.919 27.759-29.739 27.759s-29.74-8.58-29.74-27.759z" fill="#093F68"/><ellipse cx="20.66" cy="250.637" rx="2.933" ry="2.937" fill="#093F68"/><ellipse cx="50.904" cy="250.637" rx="2.933" ry="2.937" fill="#093F68"/><path d="M36.1 260.277a19.319 19.319 0 01-2.842-.232.825.825 0 01-.669-.96.83.83 0 01.959-.67c1.469.237 2.966.237 4.436 0 .256-.761-.827-3.988-2.479-7.049a.83.83 0 01.762-1.229c.3.014.567.19.7.459.827 1.531 3.305 6.669 2.479 8.556a1.438 1.438 0 01-1 .827 9.77 9.77 0 01-2.346.298zM.636 229.125h4.618v30.233H.636a6.126 6.126 0 01-6.121-6.131v-17.971a6.126 6.126 0 016.121-6.131z" fill="#093F68"/><path fill-rule="evenodd" clip-rule="evenodd" d="M.636 260.178h4.618a.827.827 0 00.826-.828v-30.225a.827.827 0 00-.826-.828H.636c-3.835.005-6.943 3.118-6.947 6.959v17.971c.004 3.84 3.113 6.951 6.947 6.951zm-5.295-24.922a5.3 5.3 0 015.295-5.304h3.792v28.571H.636a5.3 5.3 0 01-5.295-5.296v-17.971z" fill="#093F68"/><path d="M70.936 259.35h-4.618v-30.234h4.618a6.126 6.126 0 016.121 6.132v17.971a6.126 6.126 0 01-6.12 6.131z" fill="#093F68"/><path fill-rule="evenodd" clip-rule="evenodd" d="M66.318 260.178h4.61c3.834 0 6.943-3.111 6.947-6.951v-17.971c-.004-3.841-3.112-6.954-6.947-6.959h-4.61a.827.827 0 00-.826.828v30.225c0 .457.37.828.826.828zm4.61-1.655h-3.784v-28.571h3.784a5.3 5.3 0 015.295 5.304v17.971a5.3 5.3 0 01-5.295 5.296z" fill="#093F68"/><path d="M36.067 271.604a12.658 12.658 0 01-6.27-1.514 9.172 9.172 0 01-4.006-4.203.826.826 0 111.537-.613c.131.34 3.502 8.159 17.347 2.797a.828.828 0 01.595 1.547 26.004 26.004 0 01-9.203 1.986zm-20.322 3.442c-3.998 0-9.4-.463-12.135-2.672-4.61-3.74-4.436-12.569-4.428-12.941a.827.827 0 111.652 0c0 .083-.157 8.39 3.809 11.584 3.965 3.193 15.695 2.101 15.827 2.093a.827.827 0 01.166 1.646c-.199.083-2.24.29-4.89.29z" fill="#093F68"/><path fill-rule="evenodd" clip-rule="evenodd" d="M14.613 277.313h7.914a3.67 3.67 0 003.668-3.673 3.67 3.67 0 00-3.668-3.674h-7.914a3.67 3.67 0 00-3.667 3.674 3.67 3.67 0 003.667 3.673zm-2.015-3.69c0-1.115.902-2.019 2.015-2.019h7.914c1.113 0 2.016.904 2.016 2.019a2.017 2.017 0 01-2.016 2.019h-7.914a2.017 2.017 0 01-2.015-2.019z" fill="#093F68"/><path d="M21.924 285.314H49.69c9.905 0 17.935 8.043 17.935 17.963v39.17H4.014v-39.161c-.004-9.915 8.012-17.958 17.91-17.972z" fill="#080C20"/><path fill-rule="evenodd" clip-rule="evenodd" d="M4.023 343.283h63.609a.826.826 0 00.86-.828v-39.169c-.01-10.379-8.408-18.79-18.77-18.799H21.957c-10.358.014-18.75 8.423-18.76 18.799v39.169c0 .457.37.828.826.828zm62.783-1.655H4.849l-.033-38.342c.01-9.462 7.662-17.131 17.108-17.144H49.69c9.448.013 17.103 7.681 17.117 17.144v38.342z" fill="#093F68"/><path d="M13.614 244.68a1.316 1.316 0 01-.165-2.615l13.647-1.712a1.315 1.315 0 01.322 2.606l-13.647 1.713-.157.008zm44.344 0h-.132l-13.647-1.713a1.314 1.314 0 01.322-2.606l13.647 1.713c.67.104 1.15.701 1.109 1.379a1.313 1.313 0 01-1.266 1.235l-.033-.008z" fill="#093F68"/><path d="M35.81 300.208c-6.93 0-16.917-14.894-16.917-14.894H52.72s-9.988 14.894-16.91 14.894z" fill="#080C20"/><path fill-rule="evenodd" clip-rule="evenodd" d="M18.214 285.788c.512.755 10.347 15.247 17.597 15.247 6.926 0 16.231-13.257 17.506-15.073l.13-.184a.83.83 0 00.05-.828.824.824 0 00-.735-.438H18.934a.824.824 0 00-.727.438.83.83 0 000 .828l.007.01zM35.81 299.38c-4.825 0-12.028-8.613-15.332-13.238h30.664c-3.33 4.625-10.508 13.238-15.332 13.238z" fill="#093F68"/><path fill-rule="evenodd" clip-rule="evenodd" d="M22.932 285.902c.801.819 4.7 4.625 7.328 4.625.206.002.412-.026.61-.083 2.446-.67 5.205-4.22 5.51-4.625a.829.829 0 00-.66-1.332H23.519a.827.827 0 00-.587 1.415zm7.501 2.954c-.867.231-2.916-1.06-4.824-2.714h8.335c-1.033 1.108-2.42 2.407-3.511 2.714z" fill="#093F68"/><path fill-rule="evenodd" clip-rule="evenodd" d="M40.75 290.444c.197.057.4.085.604.083 2.627 0 6.559-3.814 7.336-4.625a.829.829 0 00.173-.902.827.827 0 00-.76-.513h-12.21a.826.826 0 00-.652 1.332c.306.405 3.032 3.955 5.51 4.625zm.439-1.588c-1.099-.307-2.495-1.606-3.511-2.714h8.327c-1.9 1.646-3.99 2.945-4.816 2.714z" fill="#093F68"/><path d="M35.894 301.035a.826.826 0 01-.827-.827v-14.894a.826.826 0 111.653 0v14.894c0 .457-.37.827-.826.827z" fill="#093F68"/><path d="M-2.75 282.005s-20.86 39.558-13.218 47.907c7.641 8.348 17.207 2.755 20-3.31 2.791-6.065 4.072-40.105 4.072-40.105l-10.855-4.492z" fill="#080C20"/><path fill-rule="evenodd" clip-rule="evenodd" d="M-16.547 330.474c3.264 3.55 6.634 4.493 9.294 4.493a11.9 11.9 0 001.76-.107A14.311 14.311 0 004.8 326.991c2.76-5.964 4-37.167 4.122-40.224l.008-.195a.829.829 0 00-.512-.828l-10.855-4.501a.826.826 0 00-1.05.373c-.858 1.638-21.04 40.171-13.06 48.858zm1.215-1.125c-5.849-6.363 7.055-34.933 12.961-46.294l9.616 3.997c-.182 4.46-1.462 33.8-3.94 39.211a12.698 12.698 0 01-9.038 6.925c-3.47.546-6.79-.778-9.6-3.839z" fill="#093F68"/><path d="M3.759 266.78s13.803-1.39 15.043 1.713c1.239 3.103-3.107 3.881-8.22 3.26 0 0 4.188 2.333 4.188 6.371s-6.666 8.373-6.666 8.373l-10.855-4.501s.149-11.641 6.51-15.216z" fill="#080C20"/><path fill-rule="evenodd" clip-rule="evenodd" d="M7.782 287.267a.887.887 0 00.322.058.82.82 0 00.446-.108l.1-.069c.889-.619 6.947-4.833 6.947-9.032a7.658 7.658 0 00-2.396-5.345c2.37.041 4.998-.273 6.113-1.738a2.75 2.75 0 00.256-2.854c-1.363-3.418-12.507-2.565-15.894-2.226a.734.734 0 00-.322.099c-6.691 3.765-6.93 15.44-6.93 15.936a.829.829 0 00.503.77l10.855 4.509zM-1.9 281.45zm9.912 4.137L-1.9 281.45c.125-2.287.947-10.908 5.873-13.842 6.327-.621 13.424-.34 14.043 1.208.306.711.14 1.042 0 1.233-.578.761-2.85 1.448-7.327.901a.829.829 0 00-.504 1.548c.041.016 3.767 2.126 3.767 5.643 0 2.755-3.999 6.098-5.94 7.446z" fill="#093F68"/><path d="M66.913 354.519H2.247A5.968 5.968 0 01-3.709 349l-2.883-37.233a5.987 5.987 0 011.571-4.527 5.969 5.969 0 014.385-1.919h70.424a5.97 5.97 0 014.385 1.919 5.987 5.987 0 011.57 4.527L72.862 349a5.969 5.969 0 01-5.948 5.519z" fill="#080C20"/><path fill-rule="evenodd" clip-rule="evenodd" d="M2.247 355.346h64.666a6.836 6.836 0 006.774-6.28l2.883-37.233a6.826 6.826 0 00-1.791-5.153 6.8 6.8 0 00-4.991-2.186H-.636a6.8 6.8 0 00-4.99 2.186 6.825 6.825 0 00-1.792 5.153l2.883 37.233a6.835 6.835 0 006.782 6.28zm-6.654-47.566a5.14 5.14 0 013.78-1.656h70.423c1.435 0 2.805.6 3.78 1.656a5.16 5.16 0 011.35 3.904l-2.875 37.233a5.175 5.175 0 01-5.138 4.758H2.255a5.175 5.175 0 01-5.138-4.758l-2.875-37.233a5.16 5.16 0 011.351-3.904z" fill="#093F68"/><path fill-rule="evenodd" clip-rule="evenodd" d="M27.814 329.912c0 3.738 3.026 6.768 6.758 6.768a6.77 6.77 0 006.757-6.768c0-3.738-3.025-6.769-6.757-6.769-3.732 0-6.758 3.031-6.758 6.769zm1.653 0a5.11 5.11 0 015.105-5.114 5.119 5.119 0 015.105 5.114 5.109 5.109 0 01-5.105 5.113 5.109 5.109 0 01-5.105-5.113zm94.405-114.073h19.935c.5 0 .906-.407.906-.91V194.91a.908.908 0 00-.906-.91h-19.935c-.5 0-.906.407-.906.91v20.019c0 .503.406.91.906.91zm19.029-1.82h-18.123V195.82h18.123v18.199z" fill="#093F68"/><path fill-rule="evenodd" clip-rule="evenodd" d="M110 216.651c.008 6.596 5.338 11.937 11.906 11.932a11.872 11.872 0 008.417-3.512 11.975 11.975 0 003.472-8.463c-.015-6.596-5.35-11.932-11.919-11.92-6.568.012-11.884 5.367-11.876 11.963zm2.579-3.88a10.084 10.084 0 019.327-6.254c5.551.01 10.052 4.518 10.077 10.091a10.131 10.131 0 01-6.203 9.384 10.054 10.054 0 01-11.004-2.176 10.16 10.16 0 01-2.197-11.045z" fill="#093F68"/></svg>