<svg width="104" height="74" fill="none" xmlns="http://www.w3.org/2000/svg"><path fill="#080C20" d="M22.941 7.629h28.98v13.086h-28.98z"/><path fill-rule="evenodd" clip-rule="evenodd" d="M22.941 21.143h28.985a.439.439 0 00.437-.44V7.628a.439.439 0 00-.437-.44H22.94a.439.439 0 00-.437.44v13.073c0 .244.196.44.437.44zm28.548-.881h-28.11V8.07h28.11v12.192z" fill="#093F68"/><path d="M101.212 61.292H3.557V44.995c0-1.615.194-3.224.577-4.793.238-.94.54-1.863.904-2.761l4.724-11.642.734-1.806a5.244 5.244 0 014.837-3.29h44.489a5.19 5.19 0 013.74 1.594l3.37 3.484 11.514 11.92a10.76 10.76 0 007.725 3.285h8.74c2.354.005 4.328 1.795 4.58 4.154l.576 5.193 1.145 10.96z" fill="#3EE9E5"/><path fill-rule="evenodd" clip-rule="evenodd" d="M3.557 61.733h97.655a.434.434 0 00.323-.163.44.44 0 00.11-.344l-1.704-16.104a4.875 4.875 0 00-.46-1.634 5.044 5.044 0 00-4.553-2.911h-8.74a10.316 10.316 0 01-7.428-3.154L63.877 22.006a5.659 5.659 0 00-4.055-1.727H15.338a5.641 5.641 0 00-5.244 3.524L4.632 37.255c-.373.925-.68 1.874-.922 2.841a20.86 20.86 0 00-.59 4.899v16.297c0 .243.196.44.437.44zm97.17-.881H3.994l.013-15.84a19.92 19.92 0 011.438-7.409l5.48-13.447a4.768 4.768 0 014.408-3.013h44.489c1.296 0 2.538.527 3.443 1.462l14.88 15.417a11.182 11.182 0 008.04 3.418h8.739a4.176 4.176 0 013.767 2.41c.202.423.33.88.38 1.347l1.656 15.655z" fill="#093F68"/><path d="M2.185 58.359H9.39v4.63H2.185a1.67 1.67 0 01-1.184-.495 1.694 1.694 0 01-.49-1.193v-1.255c0-.932.75-1.687 1.674-1.687z" fill="#3EE9E5"/><path fill-rule="evenodd" clip-rule="evenodd" d="M2.185 63.429h7.188a.435.435 0 00.455-.44v-4.63a.439.439 0 00-.437-.44H2.185a2.12 2.12 0 00-2.106 2.127V61.3a2.12 2.12 0 002.106 2.128zM.953 60.046c0-.687.55-1.244 1.232-1.247h6.769v3.749h-6.77A1.242 1.242 0 01.954 61.3v-1.255z" fill="#093F68"/><path d="M94.627 58.359h7.188a1.68 1.68 0 011.674 1.687V61.3c0 .447-.177.877-.49 1.193a1.67 1.67 0 01-1.184.494h-7.188v-4.63z" fill="#3EE9E5"/><path fill-rule="evenodd" clip-rule="evenodd" d="M94.627 63.429h7.188a2.119 2.119 0 002.106-2.128v-1.255a2.119 2.119 0 00-2.106-2.128h-7.188a.439.439 0 00-.437.44v4.63c0 .243.196.44.437.44zm7.188-.881h-6.769l.018-3.749h6.751c.681.003 1.232.56 1.232 1.247V61.3c0 .687-.551 1.244-1.232 1.247z" fill="#093F68"/><ellipse cx="85.271" cy="62.314" rx="11.125" ry="11.214" fill="#080C20"/><path fill-rule="evenodd" clip-rule="evenodd" d="M74.589 66.769c1.789 4.356 6.005 7.196 10.682 7.196 6.381-.008 11.553-5.219 11.563-11.65.001-4.715-2.815-8.966-7.135-10.772a11.495 11.495 0 00-12.602 2.524 11.723 11.723 0 00-2.508 12.702zm.808-8.578c1.654-4.026 5.551-6.65 9.874-6.65v-.005c5.903.005 10.686 4.828 10.689 10.778 0 4.358-2.604 8.286-6.598 9.954a10.627 10.627 0 01-11.649-2.335 10.837 10.837 0 01-2.316-11.742z" fill="#093F68"/><ellipse cx="85.271" cy="62.314" rx="5.392" ry="5.435" fill="#093F68"/><path fill-rule="evenodd" clip-rule="evenodd" d="M79.886 64.563a5.829 5.829 0 005.385 3.627c3.218-.005 5.825-2.633 5.83-5.876a5.875 5.875 0 00-3.599-5.428 5.796 5.796 0 00-6.353 1.273 5.91 5.91 0 00-1.263 6.404zm.43-2.249c0-2.758 2.218-4.995 4.955-4.995 2.736.003 4.953 2.237 4.956 4.995 0 2.759-2.219 4.995-4.956 4.995-2.737 0-4.955-2.236-4.955-4.995z" fill="#093F68"/><ellipse cx="17.549" cy="62.314" rx="11.125" ry="11.214" fill="#080C20"/><path fill-rule="evenodd" clip-rule="evenodd" d="M6.866 66.769c1.79 4.356 6.006 7.196 10.683 7.196 6.382-.005 11.555-5.218 11.562-11.65.002-4.715-2.814-8.966-7.134-10.772a11.495 11.495 0 00-12.602 2.524 11.723 11.723 0 00-2.509 12.702zm-.006-4.455c0-5.95 4.786-10.774 10.689-10.774v-.004c5.903.005 10.686 4.828 10.688 10.778 0 5.95-4.785 10.774-10.688 10.774-5.903 0-10.689-4.823-10.689-10.774z" fill="#093F68"/><ellipse cx="17.549" cy="62.314" rx="5.392" ry="5.435" fill="#093F68"/><path fill-rule="evenodd" clip-rule="evenodd" d="M11.72 62.314c0 3.245 2.61 5.876 5.829 5.876 3.217-.005 5.824-2.633 5.83-5.876 0-3.245-2.61-5.876-5.83-5.876s-5.83 2.631-5.83 5.876zm.874 0c0-2.758 2.218-4.995 4.955-4.995 2.736.003 4.953 2.237 4.955 4.995 0 2.759-2.218 4.995-4.955 4.995s-4.955-2.236-4.955-4.995z" fill="#093F68"/><path d="M36.618 25.794V40.22H4.13c.24-.946.544-1.875.91-2.78L9.761 25.8l26.856-.005z" fill="#080C20"/><path fill-rule="evenodd" clip-rule="evenodd" d="M4.134 40.66h32.484a.439.439 0 00.438-.44V25.794a.439.439 0 00-.438-.44H9.748a.437.437 0 00-.405.273L4.619 37.269a21.78 21.78 0 00-.922 2.84.443.443 0 00.082.386c.086.109.217.17.355.165zm32.047-.88H4.703a20.87 20.87 0 01.738-2.177l4.61-11.368h26.131v13.544z" fill="#093F68"/><path d="M82.151 40.22H41.95V25.794h24.955l11.514 11.92a10.64 10.64 0 003.732 2.506z" fill="#080C20"/><path fill-rule="evenodd" clip-rule="evenodd" d="M82.134 40.66h.002a.441.441 0 00.16-.85 10.294 10.294 0 01-3.566-2.405l-11.514-11.92a.436.436 0 00-.31-.131H41.95a.439.439 0 00-.437.44V40.22c0 .243.195.44.437.44h40.184zm-1.818-.88h-37.93l.027-13.545h24.335L78.13 38.017c.652.678 1.386 1.27 2.185 1.762z" fill="#093F68"/><path d="M71.056 58.8H32.773a.439.439 0 01-.437-.441c0-.244.196-.44.437-.44H71.04c.241 0 .437.196.437.44 0 .243-.196.44-.437.44h.017zm-32.039-1.85a.439.439 0 01-.437-.441V42.546a.438.438 0 11.875 0v13.963c0 .243-.196.44-.438.44zm10.361-11.651h-4.724a.439.439 0 01-.437-.44c0-.244.196-.441.437-.441h4.724c.242 0 .437.197.437.44s-.195.44-.437.44zm-15.998 0h-4.706a.439.439 0 01-.437-.44c0-.244.196-.441.437-.441h4.706c.242 0 .438.197.438.44s-.196.44-.438.44z" fill="#093F68"/><path fill="#080C20" d="M1.031 43.7h2.526v7.404H1.031z"/><path fill-rule="evenodd" clip-rule="evenodd" d="M1.031 51.536h2.526a.439.439 0 00.437-.44V43.7a.439.439 0 00-.437-.44H1.031a.439.439 0 00-.437.44v7.395c0 .244.196.44.437.44zm2.089-.881H1.468V44.14H3.12v6.515z" fill="#093F68"/><path d="M100.067 50.333h-3.67a1.82 1.82 0 01-1.814-1.828v-3.021a1.82 1.82 0 011.814-1.828h2.687c.229.47.377.977.437 1.497l.546 5.18z" fill="#080C20"/><path fill-rule="evenodd" clip-rule="evenodd" d="M96.397 50.774h3.67a.437.437 0 00.437-.485l-.568-5.184a4.936 4.936 0 00-.459-1.639.437.437 0 00-.393-.25h-2.687a2.264 2.264 0 00-2.25 2.268v3.021a2.264 2.264 0 002.25 2.269zm-1.364-5.29c0-.767.617-1.388 1.377-1.388h2.403c.137.354.228.724.271 1.101l.498 4.696H96.41c-.76 0-1.377-.621-1.377-1.388v-3.021z" fill="#093F68"/><path d="M12.795 37.537a.436.436 0 01-.35-.176.443.443 0 01.087-.616l11.02-8.33a.434.434 0 01.613.088.443.443 0 01-.088.617l-11.02 8.32a.435.435 0 01-.262.097zm12.742-1.347a.437.437 0 01-.414-.294.443.443 0 01.139-.49l7.843-6.48a.435.435 0 01.616.062.443.443 0 01-.06.62l-7.845 6.48a.435.435 0 01-.28.102zm21.468 1.347a.435.435 0 01-.437-.46.442.442 0 01.145-.306l10.094-9.334a.435.435 0 01.618.029c.163.18.15.459-.028.623l-10.094 9.352a.435.435 0 01-.298.096zm13.429-1.347a.443.443 0 01-.306-.753l4.806-4.846a.437.437 0 11.617.621l-4.807 4.845a.436.436 0 01-.31.133z" fill="#093F68"/><path fill-rule="evenodd" clip-rule="evenodd" d="M17.479 21.143h39.625a.436.436 0 00.398-.577l-1.888-5.836a.437.437 0 00-.415-.304H19.367a.437.437 0 00-.437.303l-1.888 5.837a.443.443 0 00.068.404c.087.116.225.18.369.173zm39.026-.881H18.091l1.604-4.956H54.9l1.604 4.956z" fill="#093F68"/><path fill="#080C20" d="M28.6.476h19v7.153h-19z"/><path fill-rule="evenodd" clip-rule="evenodd" d="M28.6 8.07h18.995a.439.439 0 00.437-.44V.475a.439.439 0 00-.437-.44H28.6a.439.439 0 00-.437.44v7.153c0 .243.196.44.437.44zm18.558-.881H29.037V.916h18.121V7.19z" fill="#093F68"/><path d="M29.212 21.143a.435.435 0 01-.127 0 .441.441 0 01-.293-.546L34.762.335a.436.436 0 01.541-.295.441.441 0 01.297.546l-5.969 20.262a.437.437 0 01-.42.295zm18.047 0a.437.437 0 01-.437-.317L41.002.564a.44.44 0 01.296-.542.434.434 0 01.542.3l5.82 20.261a.441.441 0 01-.296.547.372.372 0 01-.105.013zM27.337 9.845h-2.22a.439.439 0 01-.437-.44c0-.244.196-.441.437-.441h2.22c.241 0 .437.197.437.44s-.196.44-.437.44zm4.125-7.251h-1.376a.439.439 0 01-.437-.44c0-.243.195-.44.437-.44h1.376c.241 0 .437.197.437.44s-.196.44-.437.44z" fill="#093F68"/></svg>