<svg width="80" height="94" viewBox="0 0 80 94" fill="none" xmlns="http://www.w3.org/2000/svg">
<path d="M60.2848 92.8708L45.4121 83.1046V54.8252C45.4121 53.8341 44.6144 53.0307 43.6303 53.0307C42.6462 53.0307 41.8485 53.8341 41.8485 54.8252V83.129L26.9758 92.8952L60.2848 92.8708Z" fill="#3EE9E5"/>
<path fill-rule="evenodd" clip-rule="evenodd" d="M26.9515 93.4812H60.2788C60.5472 93.4805 60.7832 93.3021 60.8588 93.0427C60.9343 92.7833 60.8315 92.5047 60.6061 92.3581L45.9939 82.7993V54.8252C45.9939 53.497 44.9248 52.4203 43.6061 52.4203C42.2873 52.4203 41.2182 53.497 41.2182 54.8252V82.7993L26.6242 92.3581C26.3988 92.5047 26.296 92.7833 26.3715 93.0427C26.4471 93.3021 26.6831 93.4805 26.9515 93.4812ZM58.2424 92.2604H29.0242L42.1818 83.6417C42.3529 83.5282 42.4555 83.3353 42.4545 83.129V54.8252C42.4545 54.1712 42.9809 53.641 43.6303 53.641C44.2797 53.641 44.8061 54.1712 44.8061 54.8252V83.1106C44.8051 83.317 44.9077 83.5099 45.0788 83.6234L58.2424 92.2604Z" fill="#093F68"/>
<ellipse cx="11.6667" cy="19.0441" rx="11.0242" ry="11.103" fill="#080C20"/>
<path fill-rule="evenodd" clip-rule="evenodd" d="M0.921666 23.5267C2.72182 27.9037 6.96265 30.7575 11.6667 30.7575C18.0871 30.7508 23.2903 25.5105 23.297 19.0442C23.297 14.3065 20.4633 10.0354 16.1174 8.22241C11.7714 6.40941 6.76904 7.41155 3.4428 10.7616C0.116556 14.1116 -0.878484 19.1497 0.921666 23.5267ZM2.04094 15.0363C3.65312 11.1148 7.45235 8.55767 11.6667 8.55767V8.54546C17.4201 8.55219 22.0815 13.2497 22.0848 19.0442C22.0873 23.2886 19.5505 27.1164 15.6577 28.7424C11.7649 30.3684 7.28288 29.4722 4.30204 26.4718C1.32121 23.4714 0.428761 18.9579 2.04094 15.0363Z" fill="#093F68"/>
<path d="M43.6303 58.1213L7.90303 16.2852H79.3576L43.6303 58.1213Z" fill="#080C20"/>
<path fill-rule="evenodd" clip-rule="evenodd" d="M43.1758 58.5181C43.2909 58.6536 43.4592 58.7317 43.6364 58.7317C43.8114 58.7299 43.9771 58.652 44.0909 58.5181L79.8182 16.682C79.9727 16.5009 80.0082 16.2457 79.9091 16.0288C79.8097 15.8125 79.5943 15.6742 79.3576 15.6748H7.90909C7.67238 15.6742 7.45699 15.8125 7.35758 16.0288C7.25844 16.2457 7.29396 16.5009 7.44849 16.682L43.1758 58.5181ZM43.6303 57.1813L9.22424 16.8956H78.0364L43.6303 57.1813Z" fill="#093F68"/>
<path d="M16.503 26.3505L43.6303 58.1213L70.7576 26.3505H16.503Z" fill="#3EE9E5"/>
<path fill-rule="evenodd" clip-rule="evenodd" d="M43.1758 58.5181C43.2909 58.6536 43.4592 58.7317 43.6364 58.7317C43.8135 58.7317 43.9818 58.6536 44.097 58.5181L71.2242 26.7473C71.3788 26.5662 71.4143 26.311 71.3152 26.0942C71.2157 25.8778 71.0003 25.7395 70.7636 25.7401H16.5091C16.2724 25.7395 16.057 25.8778 15.9576 26.0942C15.8584 26.311 15.894 26.5662 16.0485 26.7473L43.1758 58.5181ZM43.6364 57.1813L17.8303 26.9914L69.4485 26.9609L43.6364 57.1813Z" fill="#093F68"/>
<path d="M44.6485 53.5251C44.5344 53.5236 44.4231 53.4898 44.3273 53.4274C44.1914 53.3408 44.0953 53.2034 44.0601 53.0454C44.0249 52.8875 44.0534 52.7219 44.1394 52.5851L76.8061 0.305199C76.9851 0.0186569 77.3609 -0.0674266 77.6455 0.112927C77.93 0.29328 78.0154 0.671774 77.8364 0.958316L45.1636 53.2382C45.0527 53.417 44.8579 53.5255 44.6485 53.5251Z" fill="#093F68"/>
<ellipse cx="73.0848" cy="7.94728" rx="6.27273" ry="6.31753" fill="#080C20"/>
<path fill-rule="evenodd" clip-rule="evenodd" d="M66.1939 7.94727C66.1973 11.7768 69.2825 14.8786 73.0848 14.8752C76.8859 14.8685 79.9636 11.7632 79.9636 7.93506C79.9603 4.10551 76.8751 1.00378 73.0727 1.00715C69.2703 1.01052 66.1906 4.11772 66.1939 7.94727ZM67.8385 5.7595C68.7177 3.6233 70.7888 2.23156 73.0848 2.23402C76.2093 2.24073 78.7415 4.78826 78.7515 7.93506C78.7564 10.2475 77.3768 12.3349 75.2567 13.2227C73.1366 14.1105 70.6941 13.6236 69.0697 11.9893C67.4453 10.355 66.9592 7.8957 67.8385 5.7595Z" fill="#093F68"/>
<path d="M69.6242 7.60545C69.564 7.61466 69.5027 7.61466 69.4424 7.60545C69.1229 7.50587 68.9439 7.16438 69.0424 6.84246C69.9041 4.23547 72.6626 2.78564 75.2788 3.56467C75.6135 3.6422 75.8224 3.97834 75.7455 4.31545C75.6685 4.65256 75.3347 4.86298 75 4.78545C71.297 3.90038 70.2424 7.09882 70.2 7.22701C70.1046 7.46119 69.8755 7.61175 69.6242 7.60545Z" fill="#093F68"/>
<path fill-rule="evenodd" clip-rule="evenodd" d="M40.4182 35.1218C40.5003 35.1581 40.5891 35.1768 40.6788 35.1768C40.7427 35.1776 40.8063 35.1673 40.8667 35.1462C41.0182 35.0927 41.1425 34.9807 41.2121 34.8349L46.2182 24.2935C46.3612 23.9901 46.2339 23.6273 45.9333 23.4817L35.4727 18.4277C35.1714 18.2836 34.8112 18.4118 34.6667 18.7145L29.6485 29.2499C29.5862 29.4003 29.5862 29.5695 29.6485 29.7199C29.6994 29.8724 29.8115 29.9964 29.9576 30.0617L40.4182 35.1218ZM40.3939 33.7545L31.0242 29.2255L35.5212 19.7888L44.8909 24.3179L40.3939 33.7545Z" fill="#093F68"/>
<path fill-rule="evenodd" clip-rule="evenodd" d="M38.4 48.117C38.4919 48.3494 38.7153 48.5018 38.9636 48.5016C39.0485 48.505 39.1332 48.4905 39.2121 48.4588L47.2606 45.2543C47.5712 45.1322 47.7256 44.7804 47.6061 44.4669L44.4242 36.3548C44.3649 36.2042 44.2485 36.0835 44.1007 36.0193C43.9529 35.9552 43.7858 35.9529 43.6364 36.013L35.5636 39.2114C35.4141 39.2712 35.2942 39.3884 35.2306 39.5373C35.1669 39.6861 35.1646 39.8544 35.2242 40.0049L38.4 48.117ZM39.303 47.0977L36.5697 40.127L43.497 37.3742L46.2303 44.3448L39.303 47.0977Z" fill="#093F68"/>
</svg>
