<svg width="88" height="106" viewBox="0 0 88 106" fill="none" xmlns="http://www.w3.org/2000/svg">
<path d="M70.0527 65.3895C70.0618 67.8563 69.8585 70.3195 69.4448 72.7525C68.7611 77.0123 67.2284 81.097 64.9348 84.7715C58.7284 94.5281 47.5663 99.1955 35.3505 99.1955C23.1348 99.1955 11.9611 94.5281 5.75476 84.7715C4.8194 83.3021 4.0192 81.7535 3.36371 80.144C2.74167 78.6631 2.23082 77.1393 1.83528 75.5848C1.61528 74.6787 1.40686 73.7441 1.25634 72.781C0.85231 70.3471 0.658634 67.884 0.67739 65.418C0.693962 61.4305 1.158 57.457 2.06107 53.5699C2.41423 51.9514 2.84844 50.3215 3.34634 48.6973C4.20476 45.8405 5.22728 43.034 6.40897 40.2914C13.2116 24.4484 24.8948 10.828 35.3448 10.828C43.809 10.828 53.13 19.8038 59.9674 31.6746C61.079 33.6066 62.1327 35.6069 63.0879 37.6642C63.499 38.5247 63.8927 39.4024 64.2748 40.28C65.4513 43.0207 66.4738 45.8231 67.3374 48.6745C69.0479 54.0901 69.9623 59.7188 70.0527 65.3895Z" fill="#080C20"/>
<path fill-rule="evenodd" clip-rule="evenodd" d="M5.23949 85.0735C11.1795 94.4084 22.139 99.7654 35.3158 99.7654C48.5216 99.7654 59.4811 94.4084 65.4211 85.0735C67.7543 81.3362 69.3145 77.1819 70.0121 72.8493C70.4326 70.3844 70.6399 67.8889 70.6316 65.3895C70.5282 59.6648 69.5844 53.985 67.8295 48.5263C66.9634 45.6531 65.9352 42.8296 64.7495 40.0691V40.0349C64.379 39.1345 63.9795 38.2341 63.5916 37.4248C62.6537 35.4188 61.6116 33.39 60.4537 31.3954C52.8232 18.1568 43.4211 10.2581 35.3158 10.2581C23.8816 10.2581 12.0363 25.7306 5.87633 40.0805C4.68713 42.8422 3.6569 45.6677 2.79054 48.5434C2.28107 50.2303 1.84107 51.883 1.4937 53.4559C0.571254 57.3699 0.087836 61.3717 0.0521225 65.3895C0.0436336 67.887 0.250871 70.3807 0.671596 72.8436C0.798965 73.7555 0.995807 74.6844 1.25054 75.6931C1.64784 77.2825 2.16452 78.8407 2.79633 80.3548C3.46727 81.9958 4.28487 83.5749 5.23949 85.0735ZM6.94739 40.5364C14.2769 23.3998 25.9542 11.432 35.3158 11.432V11.3978C42.9116 11.3978 52.1574 19.2966 59.4926 31.971C60.6274 33.9371 61.6695 35.9431 62.5958 37.9263C62.9721 38.7299 63.3658 39.6018 63.7537 40.5193V40.5535C64.9204 43.2658 65.9332 46.0397 66.7874 48.8626C68.4812 54.2167 69.3859 59.7824 69.4737 65.3895C69.4894 67.8232 69.2957 70.254 68.8948 72.6556C68.2082 76.8453 66.6873 80.8602 64.4195 84.4695C58.6937 93.4681 48.0527 98.6256 35.3158 98.6256C22.579 98.6256 11.9669 93.4624 6.21212 84.4979C5.29665 83.0477 4.51022 81.5223 3.8616 79.9388C3.25409 78.4736 2.7549 76.967 2.36791 75.431C2.13054 74.4564 1.93949 73.5503 1.78896 72.667C1.38803 70.2654 1.19435 67.8346 1.21002 65.4009C1.24498 61.4655 1.71869 57.5459 2.62265 53.7124C2.97002 52.1623 3.39844 50.5381 3.89633 48.8797C4.75377 46.0445 5.77239 43.2591 6.94739 40.5364Z" fill="#093F68"/>
<path d="M60.0195 31.8C60.6853 33.3387 59.0353 38.8895 58.9658 40.7416C58.743 44.3077 58.3255 47.8595 57.7153 51.3815C57.6378 52.3745 57.3624 53.3427 56.9048 54.231C56.4204 55.1179 55.46 55.6504 54.4384 55.5987C53.1706 55.4334 52.4063 54.1113 52.1632 52.8803C51.92 51.6494 52.0184 50.3386 51.5437 49.176C51.069 48.0134 49.6737 47.0503 48.5274 47.6145C48.0562 47.8949 47.6811 48.3078 47.4506 48.7999C46.53 50.4697 46.2232 52.3902 45.9279 54.2652C44.9263 60.6821 42.8074 67.8514 43.2242 74.3311C43.3574 76.434 43.7511 78.7477 41.4527 80.0642C39.1542 81.3806 36.6706 79.5741 35.7211 77.4997C34.8411 75.5848 34.8179 73.4135 34.3606 71.3619C33.7295 68.5125 30.7248 60.9272 27.2569 65.8226C26.3653 67.082 26.099 68.672 25.8848 70.1823C24.6092 79.1388 23.8919 88.1637 23.7369 97.2066C23.7021 99.3038 23.6558 101.538 22.4632 103.276C21.2706 105.014 18.4569 105.823 16.9921 104.302C16.1353 103.413 16.0137 102.073 15.9442 100.848C15.3653 90.6927 15.6084 80.2637 14.4274 70.1652C13.7384 64.3124 8.05897 55.006 2.09003 53.5813C2.44318 51.9628 2.8774 50.3329 3.37529 48.7087C4.23371 45.8519 5.25623 43.0454 6.43792 40.3028C13.2116 24.4484 24.8948 10.828 35.3448 10.828C43.809 10.828 53.13 19.8038 59.9674 31.6746C61.079 33.6066 62.1327 35.6069 63.0879 37.6642C61.9011 35.869 61.1137 33.6977 60.0195 31.8Z" fill="#3EE9E5"/>
<path fill-rule="evenodd" clip-rule="evenodd" d="M16.5463 104.695C17.1803 105.341 18.0599 105.696 18.9721 105.675L19.3369 105.664C20.7861 105.524 22.1012 104.768 22.9379 103.595C24.2405 101.703 24.2811 99.3209 24.3158 97.2179C24.473 88.1923 25.1903 79.1845 26.4637 70.2449C26.6953 68.6549 26.95 67.2416 27.7374 66.1303C28.4611 65.1102 29.1616 64.6657 29.8274 64.7911C31.489 65.1216 33.2258 68.9456 33.8047 71.4645C33.9553 72.137 34.0595 72.8379 34.1579 73.5161C34.3015 74.9344 34.6424 76.3266 35.1711 77.6535C35.8243 79.1202 37.0616 80.2578 38.5926 80.7993C39.6346 81.1478 40.7794 81.0291 41.7247 80.4745C44.1324 79.0958 43.9596 76.6863 43.8207 74.749L43.8205 74.7471L43.78 74.2171C43.4918 69.6777 44.4662 64.7825 45.4119 60.0319L45.4242 59.9698C45.8179 57.9979 46.1769 56.0831 46.4779 54.2709C46.4901 54.1976 46.5022 54.1242 46.5144 54.0507C46.8029 52.3078 47.098 50.5248 47.9369 48.9936C48.1127 48.6038 48.4004 48.273 48.7647 48.0419C49.059 47.91 49.3968 47.91 49.6911 48.0419C50.276 48.2855 50.7399 48.7462 50.9821 49.3242C51.2292 50.0316 51.3697 50.7708 51.399 51.5183C51.4395 51.9742 51.4858 52.4472 51.5726 52.9202C51.8332 54.2481 52.7074 55.8836 54.3342 56.0945C55.5854 56.1756 56.7709 55.5355 57.3737 54.4532C57.875 53.5116 58.1801 52.4808 58.2711 51.4214C58.3521 50.8515 58.4332 50.2816 58.52 49.7117C59.0277 46.7353 59.3621 43.7328 59.5216 40.7188C59.6272 39.7206 59.7915 38.7292 60.0137 37.7497C60.28 36.4161 60.5058 35.2421 60.6274 34.2505C60.6795 34.3531 60.7258 34.45 60.7721 34.5526C61.2993 35.7292 61.9026 36.8714 62.5784 37.9719C62.7424 38.2271 63.0801 38.3121 63.3484 38.1657C63.6149 38.0202 63.7212 37.6963 63.5916 37.4248C62.6537 35.4188 61.6116 33.39 60.4537 31.3954C52.8232 18.1568 43.4211 10.2581 35.3158 10.2581C23.8816 10.2581 12.0363 25.7306 5.87633 40.0805C4.68712 42.8422 3.65689 45.6677 2.79054 48.5434C2.28106 50.2303 1.84106 51.883 1.4937 53.4616C1.42837 53.7629 1.61813 54.0608 1.92212 54.1341C7.79843 55.536 13.1942 64.8652 13.8253 70.2335C14.5721 76.6391 14.7574 83.3069 14.9311 89.7467C15.0295 93.4054 15.1337 97.1895 15.3421 100.877C15.3884 101.965 15.4926 103.606 16.5463 104.695ZM14.989 70.1025C14.3405 64.4548 8.96212 55.1086 2.76159 53.1767H2.74422C3.05721 51.8098 3.45971 50.3879 3.87472 48.9218L3.89633 48.8455C4.75376 46.0103 5.77239 43.2249 6.94738 40.5023C14.2769 23.3656 25.9542 11.3978 35.3158 11.3978C42.9116 11.3978 52.1574 19.2966 59.4811 32.0621C59.8458 32.8885 59.3016 35.624 58.9021 37.6186C58.662 38.655 58.4918 39.7059 58.3926 40.7644C58.2275 43.7361 57.895 46.6965 57.3969 49.6319C57.3563 49.917 57.3143 50.202 57.2723 50.4871C57.2304 50.7719 57.1884 51.0568 57.1479 51.3416C57.0712 52.25 56.8197 53.1358 56.4069 53.9517C56.0344 54.638 55.3041 55.0624 54.5137 55.0516C53.5584 54.9034 52.9332 53.8035 52.7363 52.772C52.6599 52.3419 52.6058 51.9082 52.5742 51.4727C52.538 50.6132 52.3701 49.764 52.0763 48.9538C51.7139 48.08 51.0082 47.3874 50.1195 47.0332C49.5192 46.8011 48.8478 46.8259 48.2669 47.1016C47.6921 47.4334 47.2321 47.9279 46.9469 48.5206C45.977 50.2775 45.6556 52.3088 45.3681 54.1259L45.3605 54.174C45.0711 56.0033 44.7005 57.8669 44.3069 59.833L44.2998 59.8686C43.3409 64.6959 42.3507 69.6809 42.6511 74.3596L42.6858 74.901C42.8247 76.7702 42.9521 78.5369 41.1632 79.5684C40.5005 79.9564 39.698 80.0376 38.969 79.7906C37.754 79.3426 36.7746 78.43 36.2537 77.2603C35.7508 76.0116 35.4293 74.6993 35.2984 73.3623C35.1942 72.667 35.0842 71.9432 34.9279 71.2366C34.5284 69.4471 32.78 64.2212 30.0474 63.6855C28.8895 63.4632 27.7895 64.0673 26.7821 65.4863C25.8442 66.8085 25.5605 68.3586 25.3116 70.0968C24.0244 79.0774 23.2955 88.127 23.129 97.1952C23.129 99.2354 23.0769 101.344 21.9711 102.957C21.3279 103.841 20.3311 104.411 19.2326 104.524C18.5587 104.61 17.8824 104.383 17.4032 103.908C16.7026 103.185 16.5811 102.034 16.5116 100.814C16.309 97.1268 16.2047 93.3655 16.1063 89.7182L16.1009 89.5209C15.9231 83.114 15.7397 76.4994 14.989 70.1025Z" fill="#093F68"/>
<path d="M56.4223 70.2613L61.1106 66.3281L64.7571 70.5397L60.0688 74.4729L56.4223 70.2613Z" fill="#080C20"/>
<path fill-rule="evenodd" clip-rule="evenodd" d="M59.6258 74.8326C59.7358 74.9592 59.8966 75.0321 60.0658 75.032C60.2038 75.0321 60.3372 74.9835 60.4421 74.8953L65.1316 70.963C65.2486 70.8654 65.3215 70.726 65.3342 70.5755C65.346 70.4241 65.296 70.2744 65.1953 70.1595L61.5479 65.948C61.4481 65.8331 61.306 65.7619 61.1529 65.7502C60.9998 65.7384 60.8483 65.787 60.7316 65.8853L56.0479 69.8175C55.9309 69.9152 55.858 70.0546 55.8453 70.2051C55.8318 70.3556 55.8797 70.5053 55.9784 70.6211L59.6258 74.8326ZM60.1295 73.6586L57.2347 70.3133L61.0384 67.1219L63.9332 70.4672L60.1295 73.6586Z" fill="#093F68"/>
<path d="M64.7553 70.5299L86.0374 53.5699C86.7832 52.986 87.2562 52.129 87.3479 51.1953C87.4396 50.2616 87.1421 49.3312 86.5237 48.6175C85.9052 47.9046 85.0193 47.4692 84.0687 47.4112C83.1181 47.3532 82.1843 47.6775 81.4811 48.3098L61.1079 66.307L64.7553 70.5299Z" fill="#080C20"/>
<path fill-rule="evenodd" clip-rule="evenodd" d="M64.3153 70.9003C64.4253 71.0269 64.586 71.0998 64.7553 71.0998C64.8907 71.094 65.0198 71.0415 65.12 70.9516L86.3963 54.003C87.5705 53.0884 88.1436 51.6157 87.8907 50.1629C87.6378 48.7102 86.5993 47.5094 85.1827 47.0317C83.7662 46.5541 82.1978 46.876 81.0931 47.871L60.72 65.891C60.4842 66.0983 60.461 66.4535 60.6679 66.6888L64.3153 70.9003ZM64.8131 69.7377L61.9184 66.3697L81.8516 48.7543C82.4402 48.226 83.222 47.9565 84.0168 48.0077C85.2197 48.0915 86.2482 48.8908 86.6099 50.0232C86.9716 51.1556 86.593 52.3905 85.6553 53.1368L64.8131 69.7377Z" fill="#093F68"/>
<path d="M54.3023 73.8506C53.5582 72.9912 53.6621 71.689 54.533 70.9584C55.3849 70.2437 56.6526 70.3448 57.3805 71.1855L59.2515 73.3465C59.9956 74.2058 59.8917 75.5081 59.0209 76.2387C58.169 76.9533 56.9012 76.8522 56.1733 76.0116L54.3023 73.8506Z" fill="#080C20"/>
<path fill-rule="evenodd" clip-rule="evenodd" d="M56.2158 76.9355C56.5685 77.3416 57.0857 77.5732 57.6284 77.5681C58.0726 77.5737 58.5041 77.422 58.8442 77.1406L60.0021 76.1604C60.3811 75.8481 60.6151 75.3977 60.6505 74.9124C60.6909 74.4278 60.5324 73.9475 60.2105 73.5788L57.3158 70.262C56.9968 69.891 56.5402 69.6611 56.0479 69.6238C55.5563 69.5896 55.0705 69.7449 54.6931 70.0569L53.5353 71.0371C52.7538 71.6927 52.658 72.8469 53.321 73.6187L56.2158 76.9355ZM55.4689 70.8946C55.5976 70.7896 55.7591 70.7312 55.9263 70.7294L55.9784 70.7351C56.1655 70.7454 56.3397 70.8321 56.4589 70.9744L59.3537 74.2912C59.4754 74.4301 59.5358 74.6109 59.5217 74.7938C59.5076 74.9767 59.42 75.1465 59.2784 75.2657L58.1205 76.2459C57.9788 76.3637 57.7962 76.423 57.611 76.4112C57.424 76.3962 57.2509 76.3079 57.1305 76.1661L54.2358 72.8494C54.1127 72.7117 54.052 72.5306 54.0679 72.3478C54.0847 72.1654 54.1717 71.9962 54.311 71.8748L55.4689 70.8946Z" fill="#093F68"/>
<path d="M53.5237 71.8065L58.0568 77.0381C58.0568 77.0381 57.8021 79.1923 54.0042 81.4547C53.0776 82.0032 52.1099 82.4813 51.1095 82.8852C44.521 85.5694 40.5668 81.0045 40.5668 81.0045C44.4226 82.5204 45.6847 78.97 46.9353 75.1688L47.0916 74.7015C48.371 70.7294 53.5237 71.8065 53.5237 71.8065Z" fill="#080C20"/>
<path fill-rule="evenodd" clip-rule="evenodd" d="M40.1095 81.3693C41.9325 83.2218 44.4367 84.2735 47.0568 84.2871C48.5207 84.2731 49.9672 83.9729 51.3121 83.4038C52.3392 82.9881 53.3338 82.4986 54.2879 81.9391C58.2942 79.557 58.63 77.1976 58.63 77.1008C58.6466 76.9437 58.5963 76.7868 58.491 76.6676L53.9579 71.4303C53.8778 71.3325 53.7649 71.2658 53.6395 71.2423C51.6826 70.8319 47.6763 70.9972 46.5184 74.5134L46.3621 74.9922C45.6153 77.2717 44.7642 79.859 43.2126 80.5771C42.4184 80.889 41.5263 80.8496 40.7637 80.4688C40.5161 80.3713 40.2329 80.4529 40.0778 80.6664C39.9226 80.8799 39.9357 81.1701 40.1095 81.3693ZM50.8721 82.3495C47.0684 83.9053 44.2258 82.9137 42.5874 81.9106C42.9764 81.8767 43.3564 81.7764 43.7105 81.6143C45.7222 80.6838 46.6435 77.8665 47.4571 75.3784L47.4679 75.3455L47.6242 74.8725C48.6316 71.7951 52.3253 72.1826 53.2168 72.3251L57.4258 77.1805C57.2289 77.7447 56.4763 79.3119 53.6974 80.9646C52.7915 81.494 51.8472 81.9569 50.8721 82.3495Z" fill="#093F68"/>
<path d="M40.9084 76.679C41.1722 77.3027 41.5062 77.8953 41.9042 78.4457C42.4137 79.0156 43.4384 78.8503 44.0463 78.5369C44.6656 78.1951 45.1873 77.7051 45.5631 77.1122C45.9568 76.5423 46.2753 75.9154 46.6631 75.3341C46.7149 75.2385 46.7932 75.1595 46.8889 75.1061C47.2189 74.9409 47.5258 75.4766 47.6126 75.7102C47.7543 76.1161 47.8476 76.5369 47.8905 76.964C47.9542 77.4142 48.0005 77.8644 48.0468 78.3146C48.0332 78.557 48.0707 78.7995 48.1568 79.027C48.2088 79.1253 48.2984 79.1991 48.4058 79.2322C48.4813 79.2449 48.5589 79.2391 48.6316 79.2151C49.0426 79.0612 49.4016 78.8047 49.8184 78.6851C50.242 78.5193 50.7257 78.6692 50.9763 79.0441C51.1326 79.3689 50.9763 79.7565 51.0284 80.1155C51.0816 80.5079 51.3656 80.8322 51.7521 80.9418C52.0152 80.9916 52.2838 81.0069 52.551 80.9874C53.0703 81.0018 53.5729 81.1707 53.9926 81.4718C53.066 82.0203 52.0983 82.4984 51.0979 82.9023C47.326 84.4385 42.9902 83.6656 40.0053 80.9247C39.2959 80.294 38.8674 79.4136 38.8126 78.4742" fill="#3EE9E5"/>
<path d="M47.0626 84.2301C44.292 84.2529 41.6198 83.2195 39.6058 81.3465C38.7847 80.6118 38.2916 79.5877 38.2337 78.497C38.2337 78.1822 38.4929 77.9271 38.8126 77.9271C39.1324 77.9271 39.3916 78.1822 39.3916 78.497C39.4471 79.2824 39.8104 80.016 40.4047 80.5429C43.2276 83.1208 47.3218 83.8341 50.8721 82.3666C51.5031 82.1101 52.0937 81.8423 52.6495 81.5573H52.3253C52.078 81.575 51.8295 81.5519 51.59 81.4889C50.97 81.3231 50.5128 80.8056 50.4321 80.1782C50.4062 79.9891 50.4062 79.7974 50.4321 79.6083C50.4536 79.4934 50.4536 79.3756 50.4321 79.2606C50.2995 79.1662 50.1271 79.1447 49.9747 79.2037C49.7737 79.2679 49.5797 79.3519 49.3958 79.4544C49.2079 79.554 49.0146 79.6434 48.8168 79.7223C48.633 79.7937 48.4331 79.8154 48.2379 79.7849C47.9781 79.723 47.7559 79.558 47.6242 79.329C47.4876 79.0771 47.4216 78.7938 47.4331 78.5084C47.4331 78.4571 47.4331 78.4115 47.4331 78.3716V78.1152C47.3926 77.7561 47.3579 77.3971 47.3058 77.0381C47.2632 76.6512 47.1818 76.2694 47.0626 75.8983L47.0221 75.8128C46.8889 76.018 46.7674 76.2288 46.64 76.4397C46.4489 76.7645 46.2521 77.1008 46.0263 77.4199C45.597 78.0949 44.999 78.6501 44.2895 79.0327C43.3863 79.4943 42.1184 79.5627 41.4468 78.8104C41.1145 78.4118 40.8452 77.966 40.6479 77.4883C40.561 77.3059 40.4742 77.1179 40.3758 76.9184C40.2159 76.6414 40.3144 76.2893 40.5958 76.1319C40.8772 75.9746 41.2349 76.0715 41.3947 76.3485C41.5047 76.5537 41.6031 76.7588 41.7016 76.9697C41.8565 77.3422 42.0609 77.6929 42.3095 78.0126C42.57 78.2975 43.2705 78.2234 43.7626 77.9727C44.2931 77.6736 44.7389 77.2484 45.0595 76.736C45.2621 76.4454 45.4416 76.1661 45.6384 75.8185C45.8353 75.4709 45.98 75.2486 46.1653 74.9637C46.2748 74.7845 46.4306 74.637 46.6168 74.5362C46.8413 74.4363 47.0987 74.4363 47.3231 74.5362C47.7071 74.7373 48.0005 75.0729 48.1453 75.4766C48.2962 75.9245 48.399 76.3867 48.4521 76.8557C48.5042 77.2261 48.5447 77.6023 48.5853 77.9955V78.2462C48.5853 78.3089 48.5853 78.3773 48.5853 78.4571C48.5885 78.4931 48.5885 78.5294 48.5853 78.5654L48.8458 78.44C49.0936 78.3012 49.3555 78.1885 49.6274 78.1038C50.3177 77.8615 51.0852 78.1397 51.451 78.7648C51.5758 79.0601 51.6139 79.3839 51.561 79.6995C51.553 79.8019 51.553 79.9048 51.561 80.0072C51.5889 80.1719 51.707 80.3079 51.8679 80.3605C52.0004 80.3794 52.1349 80.3794 52.2674 80.3605H52.5279C53.1508 80.3804 53.7543 80.5784 54.2647 80.9304C54.4233 81.0414 54.5147 81.2234 54.5079 81.4148C54.5011 81.6067 54.3967 81.7824 54.23 81.8822C53.2759 82.4416 52.2813 82.9311 51.2542 83.3468C49.9287 83.9068 48.5049 84.2069 47.0626 84.2301Z" fill="#093F68"/>
<path d="M41.6437 91.6615C41.7537 90.2596 41.5047 88.0199 40.3411 87.0055C37.8226 84.8 36.0569 88.4473 35.9642 90.4248C35.8433 91.6083 36.1375 92.7968 36.7979 93.7929C37.5021 94.7933 38.8029 95.2006 39.9647 94.7845C41.1053 94.2887 41.5511 92.8925 41.6437 91.6615Z" fill="#3EE9E5"/>
<path fill-rule="evenodd" clip-rule="evenodd" d="M36.3347 94.1519C36.9749 95.0184 37.9907 95.5395 39.0789 95.5596C39.4683 95.5604 39.8534 95.4788 40.2079 95.3202C41.7768 94.6136 42.1416 92.75 42.2226 91.7071C42.35 90.0544 42.0316 87.7179 40.7231 86.5781C39.5653 85.5637 38.5695 85.6605 37.9384 85.9284C36.3116 86.6009 35.4547 89.0001 35.3853 90.4134C35.2477 91.7306 35.5837 93.0535 36.3347 94.1519ZM38.3784 86.977C38.5068 86.9167 38.6472 86.8855 38.7895 86.8858C39.2334 86.9178 39.6489 87.1131 39.9531 87.4329C40.8737 88.2365 41.1747 90.1684 41.0647 91.6216C41.0126 92.2599 40.7868 93.8043 39.7158 94.2887C38.8589 94.6762 37.7937 94.1747 37.261 93.4681C36.6737 92.5818 36.4179 91.522 36.5374 90.4704C36.601 89.154 37.4 87.3816 38.3784 86.977Z" fill="#093F68"/>
<path d="M21.5947 21.428L31.9405 16.3388V6.65065L21.5947 1.55011C18.9316 0.239357 15.6316 1.89774 15.6316 4.55914V18.4474C15.6316 21.086 18.9316 22.7387 21.5947 21.428Z" fill="#080C20"/>
<path fill-rule="evenodd" clip-rule="evenodd" d="M16.9979 21.7357C17.7833 22.2105 18.6873 22.461 19.609 22.4595C20.3885 22.4606 21.1576 22.2831 21.8553 21.9409L32.2126 16.8631C32.4073 16.7666 32.5304 16.5705 32.5311 16.3559V6.66775C32.5326 6.4511 32.4092 6.25233 32.2126 6.15484L21.8669 1.0657C20.3194 0.308344 18.4853 0.385809 17.0095 1.27087C15.8119 1.9487 15.0676 3.19935 15.0526 4.55915V18.4474C15.0652 19.8049 15.8047 21.055 16.9979 21.7357ZM17.6058 2.23398C18.2076 1.86626 18.9007 1.66906 19.609 1.66409C20.2117 1.66077 20.8068 1.79745 21.3458 2.06302L31.3732 6.99828V15.9855L21.3458 20.9208C20.1586 21.5032 18.7509 21.4451 17.6174 20.7669C16.7646 20.2932 16.2296 19.4111 16.2105 18.4474V4.55914C16.2252 3.59574 16.7557 2.7116 17.6058 2.23398Z" fill="#093F68"/>
<path d="M23.1232 15.3871C22.8411 15.3896 22.5983 15.1916 22.5482 14.9184C22.4982 14.6452 22.6554 14.3762 22.9205 14.2815L29.9721 11.6429L20.6279 9.47162C20.4211 9.42479 20.2553 9.2729 20.1931 9.07316C20.1309 8.87342 20.1816 8.65618 20.3263 8.50327C20.4709 8.35035 20.6874 8.285 20.8942 8.33183L32.0737 10.9305C32.3224 10.9867 32.5045 11.1967 32.5218 11.4473C32.5391 11.6979 32.3877 11.9302 32.149 12.019L23.3316 15.3244C23.2673 15.3592 23.1963 15.3806 23.1232 15.3871Z" fill="#093F68"/>
<path d="M49.089 21.428L38.7432 16.3388V6.65065L49.089 1.55581C51.7521 0.245058 55.0637 1.90344 55.0637 4.54205V18.4474C55.0637 21.086 51.7521 22.7387 49.089 21.428Z" fill="#080C20"/>
<path fill-rule="evenodd" clip-rule="evenodd" d="M48.8284 21.9409C49.5261 22.2831 50.2952 22.4606 51.0747 22.4595C51.9963 22.4601 52.9 22.2096 53.6858 21.7357C54.8834 21.0579 55.6277 19.8072 55.6426 18.4474V4.55914C55.6338 3.19322 54.8887 1.93468 53.6858 1.25376C52.2099 0.368703 50.3759 0.291238 48.8284 1.0486L38.4826 6.13774C38.2861 6.23523 38.1627 6.43399 38.1642 6.65064V16.3388C38.1649 16.5534 38.2879 16.7494 38.4826 16.846L48.8284 21.9409ZM49.3495 20.9207L39.3221 15.9855V7.02107L49.3495 2.0858C50.5362 1.50116 51.9451 1.5593 53.0779 2.23967C53.9307 2.71337 54.4657 3.59543 54.4847 4.55914V18.4474C54.4657 19.4111 53.9307 20.2932 53.0779 20.7669C51.9444 21.4451 50.5366 21.5032 49.3495 20.9207Z" fill="#093F68"/>
<path d="M47.5605 15.3871C47.4891 15.3877 47.4182 15.3741 47.3521 15.3472L38.5348 12.0247C38.296 11.9359 38.1446 11.7036 38.1619 11.453C38.1793 11.2023 38.3613 10.9924 38.61 10.9362L49.7895 8.33753C49.9963 8.2907 50.2128 8.35605 50.3574 8.50896C50.5021 8.66187 50.5528 8.87911 50.4906 9.07885C50.4284 9.27859 50.2626 9.43048 50.0558 9.47731L40.7116 11.6486L47.7632 14.2473C48.0283 14.342 48.1855 14.611 48.1355 14.8842C48.0854 15.1574 47.8426 15.3554 47.5605 15.3529V15.3871Z" fill="#093F68"/>
<rect x="30.8058" y="5.86989" width="9.06632" height="11.2383" rx="3.91" fill="#080C20"/>
<path fill-rule="evenodd" clip-rule="evenodd" d="M33.0868 17.6667H37.6316C39.1922 17.6605 40.4584 16.4217 40.4742 14.8856V8.09818C40.471 6.55409 39.2002 5.30314 37.6316 5.3H33.0868C31.5182 5.30314 30.2474 6.55409 30.2442 8.09818V14.8685C30.2505 16.4113 31.5195 17.6604 33.0868 17.6667ZM31.3847 8.09818C31.3879 7.18357 32.1403 6.44291 33.0695 6.43979H37.6316C38.5607 6.44291 39.3131 7.18357 39.3163 8.09818V14.8685C39.3131 15.7831 38.5607 16.5238 37.6316 16.5269H33.0695C32.147 16.5239 31.3974 15.7935 31.3847 14.8856V8.09818Z" fill="#093F68"/>
</svg>
