<svg width="74" height="89" fill="none" xmlns="http://www.w3.org/2000/svg"><path d="M70.262 24.74c-3.227-3.986-10.034-4.204-11.873-10.145-1.839-5.94-1.306-8.458-1.306-8.458H16.917s.544 2.512-1.306 8.458S6.965 20.748 3.738 24.74C.881 28.278.881 33.503.881 39.04v36.74c0 5.946 2.754 12.198 9.294 12.198h53.65c6.53 0 9.293-6.252 9.293-12.198V39.04c0-5.537 0-10.762-2.856-14.3z" fill="#080C20"/><path fill-rule="evenodd" clip-rule="evenodd" d="M10.175 88.525h53.65c6.796 0 9.838-6.405 9.892-12.739v-36.74c0-5.636 0-10.96-2.976-14.645-1.374-1.695-3.35-2.737-5.263-3.746l-.01-.005c-2.84-1.485-5.5-2.888-6.53-6.213-1.757-5.695-1.289-8.19-1.289-8.19a.548.548 0 00-.114-.46.543.543 0 00-.419-.201H16.949a.543.543 0 00-.544.655v.002c.015.082.45 2.563-1.29 8.188-1.05 3.325-3.71 4.729-6.529 6.214l-.135.072c-1.873.998-3.793 2.02-5.137 3.679C.337 28.08.337 33.405.337 39.04v36.74c0 6.34 3.042 12.744 9.838 12.744zm5.958-73.772c1.355-4.379 1.447-6.95 1.388-8.07h38.991c-.06 1.12.033 3.702 1.388 8.07 1.163 3.76 4.146 5.332 7.034 6.855l.006.003c1.9 1 3.7 1.95 4.93 3.473 2.72 3.385 2.72 8.496 2.72 13.956v36.74c0 5.799-2.704 11.652-8.749 11.652h-53.65c-6.029 0-8.75-5.853-8.75-11.652V39.04c0-5.438 0-10.57 2.721-13.956 1.23-1.524 3.031-2.474 4.93-3.473l.007-.003c2.887-1.523 5.87-3.096 7.034-6.855z" fill="#093F68"/><path fill-rule="evenodd" clip-rule="evenodd" d="M10.175 85.249h53.65c6.304 0 6.567-8.266 6.604-9.444l.002-.046V39.018c0-5.018 0-9.774-2.248-12.558-.952-1.174-2.557-2.02-4.26-2.916l-.116-.062c-2.95-1.577-6.573-3.514-7.986-8.079a42.37 42.37 0 01-1.355-7.147.545.545 0 00-.544-.48h-33.79a.545.545 0 00-.544.48 42.368 42.368 0 01-1.376 7.169c-1.431 4.625-5.131 6.574-8.108 8.14l-.002.002c-1.697.895-3.301 1.741-4.253 2.915C3.602 29.244 3.602 34 3.602 39.04v36.74c0 .966.18 9.468 6.573 9.468zm9.076-69.524a41.833 41.833 0 001.338-6.858h32.822c.254 2.32.702 4.614 1.338 6.858 1.567 5.056 5.485 7.147 8.64 8.786 1.595.84 3.102 1.637 3.913 2.637 2.008 2.484 2.008 7.054 2.008 11.892v36.74c0 .857-.153 8.376-5.485 8.376h-53.65c-5.332 0-5.485-7.519-5.485-8.376V39.04c0-4.838 0-9.408 2.008-11.892.81-1 2.318-1.797 3.918-2.637l.122-.066c3.129-1.675 6.966-3.729 8.513-8.72z" fill="#093F68"/><path d="M13.402.808h47.196a4.219 4.219 0 014.212 4.226v2.73c0 .624-.247 1.223-.687 1.664-.44.442-1.036.69-1.658.69h-50.93a2.34 2.34 0 01-1.658-.69 2.357 2.357 0 01-.687-1.664v-2.73A4.219 4.219 0 0113.402.808z" fill="#080C20"/><path fill-rule="evenodd" clip-rule="evenodd" d="M11.535 10.68h50.93a2.894 2.894 0 002.889-2.9V5.05c-.003-2.634-2.13-4.769-4.756-4.772H13.402c-2.626.003-4.753 2.138-4.756 4.773v2.73c0 1.6 1.294 2.899 2.89 2.899zm-.727-8.248a3.661 3.661 0 012.594-1.078h47.196a3.674 3.674 0 013.668 3.68v2.73c0 .998-.807 1.808-1.801 1.808h-50.93c-.994 0-1.8-.81-1.8-1.808v-2.73c0-.976.386-1.912 1.073-2.602z" fill="#093F68"/><rect x="12.368" y="45.996" width="32.402" height="7.573" rx="3.787" fill="#3EE9E5"/><path fill-rule="evenodd" clip-rule="evenodd" d="M14.544 54.115h28.05a2.725 2.725 0 002.72-2.73V48.18a2.725 2.725 0 00-2.72-2.73h-28.05a2.725 2.725 0 00-2.72 2.73v3.205a2.725 2.725 0 002.72 2.73zm-1.632-5.935c0-.904.73-1.638 1.632-1.638h28.05c.901 0 1.632.733 1.632 1.638v3.205c0 .905-.731 1.638-1.633 1.638H14.544a1.635 1.635 0 01-1.632-1.638V48.18z" fill="#093F68"/><rect x="15.692" y="53.569" width="32.402" height="7.573" rx="3.787" fill="#3EE9E5"/><path fill-rule="evenodd" clip-rule="evenodd" d="M17.869 61.7h28.05c.72 0 1.413-.288 1.923-.8s.797-1.207.797-1.93v-3.211a2.725 2.725 0 00-2.72-2.73h-28.05a2.725 2.725 0 00-2.72 2.73v3.21a2.725 2.725 0 002.72 2.73zm-1.633-5.941c0-.905.731-1.638 1.633-1.638h28.05c.9 0 1.631.733 1.631 1.638v3.21c0 .905-.73 1.638-1.632 1.638h-28.05a1.635 1.635 0 01-1.631-1.638v-3.21z" fill="#093F68"/><rect x="43.763" y="68.737" width="32.402" height="7.573" rx="3.787" transform="rotate(-180 43.763 68.737)" fill="#3EE9E5"/><path fill-rule="evenodd" clip-rule="evenodd" d="M13.538 69.284h28.049c.723 0 1.417-.29 1.927-.804a2.733 2.733 0 00.793-1.938v-3.205a2.725 2.725 0 00-2.72-2.73h-28.05a2.725 2.725 0 00-2.72 2.73v3.216a2.725 2.725 0 002.72 2.73zm-1.633-5.947c0-.904.731-1.638 1.633-1.638h28.049c.901 0 1.632.734 1.632 1.638v3.206c0 .904-.73 1.638-1.632 1.638h-28.05a1.635 1.635 0 01-1.632-1.638v-3.206z" fill="#093F68"/><rect x="39.198" y="76.311" width="32.402" height="7.573" rx="3.787" transform="rotate(-180 39.198 76.31)" fill="#3EE9E5"/><path fill-rule="evenodd" clip-rule="evenodd" d="M8.973 76.857H37a2.725 2.725 0 002.72-2.73V70.92A2.725 2.725 0 0037 68.19H8.973a2.725 2.725 0 00-2.721 2.73v3.206a2.725 2.725 0 002.72 2.73zM7.317 70.92c0-.904.731-1.638 1.633-1.638H37c.901 0 1.632.734 1.632 1.638v3.206c0 .904-.73 1.638-1.632 1.638H8.95a1.635 1.635 0 01-1.632-1.638V70.92z" fill="#093F68"/><rect x="43.763" y="83.889" width="32.402" height="7.573" rx="3.787" transform="rotate(-180 43.763 83.89)" fill="#3EE9E5"/><path fill-rule="evenodd" clip-rule="evenodd" d="M13.538 84.435h28.049a2.725 2.725 0 002.72-2.73v-3.21a2.725 2.725 0 00-2.72-2.73h-28.05a2.725 2.725 0 00-2.72 2.73v3.21a2.725 2.725 0 002.72 2.73zm-1.633-5.94c0-.905.731-1.638 1.633-1.638h28.049c.901 0 1.632.733 1.632 1.638v3.21c0 .905-.73 1.638-1.632 1.638h-28.05a1.635 1.635 0 01-1.632-1.638v-3.21z" fill="#093F68"/><path d="M67.086 52.746a3.776 3.776 0 011.84 5.005L58.49 80.406a3.776 3.776 0 01-6.86-3.16l10.438-22.655a3.776 3.776 0 015.018-1.845z" fill="#3EE9E5"/><path fill-rule="evenodd" clip-rule="evenodd" d="M54.7 83.42a2.713 2.713 0 003.608-1.332L70.077 56.54a2.739 2.739 0 00.085-2.09 2.727 2.727 0 00-1.413-1.536l-2.9-1.343a2.711 2.711 0 00-2.082-.085c-.677.25-1.228.76-1.53 1.417l-11.77 25.548a2.734 2.734 0 001.328 3.62L54.7 83.42zm9.462-30.9c.174-.067.358-.102.544-.103a1.67 1.67 0 01.697.131l2.9 1.349a1.643 1.643 0 01.8 2.184L57.312 81.629a1.627 1.627 0 01-2.177.797l-2.9-1.343a1.636 1.636 0 01-.81-.912 1.61 1.61 0 01.049-1.25l11.769-25.548c.181-.395.512-.702.92-.852z" fill="#093F68"/><path d="M61.95 46.604a3.777 3.777 0 011.332 5.163L50.65 73.263a3.777 3.777 0 11-6.513-3.827L56.77 47.94a3.777 3.777 0 015.18-1.336z" fill="#3EE9E5"/><path fill-rule="evenodd" clip-rule="evenodd" d="M46.582 75.89a2.71 2.71 0 001.377.377 2.72 2.72 0 002.366-1.332L64.57 50.692a2.738 2.738 0 00-.957-3.74l-2.753-1.638a2.713 2.713 0 00-3.728.96L42.866 70.513a2.738 2.738 0 00.963 3.74l2.753 1.638zm12.471-29.812a1.52 1.52 0 01.408-.055c.291.001.577.08.827.23l2.754 1.638a1.638 1.638 0 01.576 2.244l-14.25 24.243a1.633 1.633 0 01-2.236.579l-2.748-1.638a1.638 1.638 0 01-.577-2.245l14.245-24.242a1.63 1.63 0 011.001-.754z" fill="#093F68"/><ellipse cx="30.672" cy="70.239" rx="13.581" ry="13.629" fill="#3EE9E5"/><path fill-rule="evenodd" clip-rule="evenodd" d="M16.588 71.568c.694 7.29 6.802 12.855 14.1 12.846 1.78 0 3.543-.338 5.197-1 6.784-2.699 10.41-10.134 8.369-17.166-2.041-7.032-9.078-11.352-16.246-9.974-7.168 1.379-12.114 8.003-11.42 15.294zm1.137-3.104c.89-6.496 6.429-11.332 12.963-11.318a13.047 13.047 0 0110.887 5.908 13.143 13.143 0 011.084 12.372c-2.581 6.024-9.202 9.206-15.498 7.449-6.295-1.758-10.327-7.915-9.436-14.41z" fill="#093F68"/><ellipse cx="30.672" cy="70.239" rx="10.36" ry="10.396" fill="#3EE9E5"/><path fill-rule="evenodd" clip-rule="evenodd" d="M19.91 71.626c.681 5.45 5.29 9.543 10.762 9.56a10.905 10.905 0 009.018-4.8c2.029-3 2.448-6.811 1.119-10.182-2.036-5.097-7.527-7.885-12.826-6.51-5.298 1.374-8.755 6.484-8.073 11.932zm1.412-4.293a9.798 9.798 0 019.346-6.944 9.838 9.838 0 019.129 6.224 9.85 9.85 0 01-2.995 11.28 9.767 9.767 0 01-11.623.452 9.846 9.846 0 01-3.857-11.012zm9.346-6.944h.004-.011.007z" fill="#093F68"/><path fill-rule="evenodd" clip-rule="evenodd" d="M32.647 78.511l-.49-1.24c-.17.02-.336.04-.5.062-.321.042-.634.083-.947.097a4.097 4.097 0 01-2.606-.71 4.007 4.007 0 01-1.41-1.867l2.41-.961a2.044 2.044 0 002.177 1.207l-1.3-3.276c-.182.016-.363.033-.544.051-.363.035-.726.07-1.088.096a3.543 3.543 0 01-1.714-.246 2.958 2.958 0 01-1.383-1.212 4.192 4.192 0 01-.68-2.184 3.767 3.767 0 011.285-2.943c.345-.29.709-.558 1.088-.803l.13-.087-.647-1.638 2.252-.901.066.164.134.339c.141.355.282.708.41 1.064.043.12.092.142.212.12a5.076 5.076 0 012.492.148 3.653 3.653 0 012.024 1.638c.088.14.163.284.242.433.038.073.076.147.117.222l-2.448.972a1.855 1.855 0 00-1.681-1.136l1.213 3.063.288-.044a9.599 9.599 0 012.177-.147 2.98 2.98 0 012.584 1.638 3.952 3.952 0 01-.865 4.996c-.26.227-.538.433-.826.644-.14.103-.282.208-.425.317l.473 1.196-2.22.928zm-.201-7.13l1.126 2.85c.345-.199.629-.487.822-.836a1.353 1.353 0 00-.838-1.955 10.31 10.31 0 00-1.121-.06h.01zm-4.522-4.767l1.088 2.73a8.39 8.39 0 00-.359.009 4.9 4.9 0 01-.555.002 1.28 1.28 0 01-.955-.749 1.287 1.287 0 01.095-1.212c.213-.273.442-.534.686-.78z" fill="#093F68"/></svg>