<svg width="51" height="65" fill="none" xmlns="http://www.w3.org/2000/svg"><path fill-rule="evenodd" clip-rule="evenodd" d="M1.38 64.918h47.416a1.383 1.383 0 001.38-1.385V1.386C50.176.62 49.56 0 48.796 0H1.38C.618 0 0 .62 0 1.385v62.149c0 .765.618 1.384 1.38 1.384zm46.036-2.77H2.76V2.77h44.655v59.379z" fill="#093F68"/><path fill-rule="evenodd" clip-rule="evenodd" d="M8.463 58.053h28.919a1.38 1.38 0 001.146-.623c.255-.38.307-.862.138-1.288L24.2 20.678a1.38 1.38 0 00-2.554 0L7.193 56.142a1.388 1.388 0 001.27 1.911zm26.904-2.77H10.52l12.423-30.465 12.424 30.465z" fill="#093F68"/><path fill-rule="evenodd" clip-rule="evenodd" d="M15.463 30.659h25.095c.763 0 1.38-.62 1.38-1.385V8.614c0-.765-.617-1.385-1.38-1.385H15.463c-.762 0-1.38.62-1.38 1.384v20.661c0 .765.618 1.385 1.38 1.385zm23.715-2.77h-22.28L16.845 10h22.334v17.89z" fill="#093F68"/></svg>